<svg height="24" viewBox="0 0 24 24" width="24" xmlns="http://www.w3.org/2000/svg">
  <g id="account_balance_wallet" transform="translate(-746 -154)">
    <path d="M765,171v2H751V159h14v2h-6a2.006,2.006,0,0,0-2,2v6a2.006,2.006,0,0,0,2,2Z"
        fill="#d0d0d0" id="Icon" />
    <path
        d="M765,175H751a2,2,0,0,1-2-2V159a2,2,0,0,1,2-2h14a2,2,0,0,1,2,2v2.28a1.994,1.994,0,0,1,1,1.72v6a1.993,1.993,0,0,1-1,1.72V173A2,2,0,0,1,765,175Zm-14-16v14h14v-2h-6a2,2,0,0,1-2-2v-6a2,2,0,0,1,2-2h6v-2Zm8,4v6h7v-6Zm3,4.5a1.5,1.5,0,1,1,1.5-1.5A1.5,1.5,0,0,1,762,167.5Z"
        data-name="Icon" fill="#1d1d1d" id="Icon-2" />
  </g>
</svg>
