<svg height="24" viewBox="0 0 24 24" width="24" xmlns="http://www.w3.org/2000/svg">
    <g id="account_box" transform="translate(-712 -154)">
        <path
            d="M731,173H717V159h14v14Zm-7-6.11c-2.027,0-6,1.081-6,3.58V172h12v-1.53C730,167.971,726.027,166.89,724,166.89Zm0-6.89a3,3,0,1,0,3,3A3,3,0,0,0,724,160Z"
            fill="#d0d0d0" id="Icon" />
        <path
            d="M731,175H717a2,2,0,0,1-2-2V159a2,2,0,0,1,2-2h14a2,2,0,0,1,2,2v14A2,2,0,0,1,731,175Zm-14-16v14h14V159Zm13,13H718v-1.53c0-2.5,3.973-3.58,6-3.58s6,1.081,6,3.58V172Zm-6-3.12a7.022,7.022,0,0,0-3.69,1.12h7.38A6.953,6.953,0,0,0,724,168.88Zm0-2.88a3,3,0,1,1,3-3A3,3,0,0,1,724,166Zm0-4a1,1,0,1,0,1,1A1,1,0,0,0,724,162Z"
            data-name="Icon" fill="#1d1d1d" id="Icon-2" />
    </g>
</svg>
