<?xml version="1.0" encoding="UTF-8"?>
<svg height="377px" version="1.1" viewBox="0 0 409 377" width="409px"
    xmlns="http://www.w3.org/2000/svg">
    <!-- Generator: Sketch 64 (93537) - https://sketch.com -->
    <title>add_new</title>
    <desc>Created with Sketch.</desc>
    <g fill="none" fill-rule="evenodd" id="Page-1" stroke="none" stroke-width="1">
        <g id="add_new">
            <g fill="#000000" fill-rule="nonzero" id="freepik--Shadows--inject-3" opacity="0.1"
                transform="translate(0.000000, 246.000000)">
                <path
                    d="M180.92,57.83 L155.92,43.34 L141.1,51.89 L124.26,42.13 L0.94,113.33 C0.580188163,113.534334 0.357890835,113.916216 0.357890835,114.33 C0.357890835,114.743784 0.580188163,115.125666 0.94,115.33 L23.63,128.48 C25.0667178,129.304753 26.8332822,129.304753 28.27,128.48 L40.76,121.26 L55.28,129.68 C56.7150661,130.510924 58.4849339,130.510924 59.92,129.68 L180.92,59.82 C181.26969,59.6104318 181.483699,59.2326785 181.483699,58.825 C181.483699,58.4173215 181.26969,58.0395682 180.92,57.83 Z"
                    id="Path"></path>
                <polygon id="Path"
                    points="158.96 42.21 167.65 47.23 240.58 5.12 231.89 0.1"></polygon>
                <path
                    d="M354.66,59.89 L310.35,34.31 C309.761566,33.9453214 309.403565,33.3022751 309.403565,32.61 C309.403565,31.9177249 309.761566,31.2746786 310.35,30.91 L349.41,8.22 C350.028802,7.86273441 350.791198,7.86273441 351.41,8.22 L396.71,34.37 C397.293853,34.7356713 397.648409,35.3760881 397.648409,36.065 C397.648409,36.7539119 397.293853,37.3943287 396.71,37.76 L358.6,59.89 C357.381515,60.5958824 355.878485,60.5958824 354.66,59.89 L354.66,59.89 Z"
                    id="Path"></path>
            </g>
            <g fill-rule="nonzero" id="freepik--Window--inject-3"
                transform="translate(247.000000, 0.000000)">
                <polygon fill="#E0E0E0" id="Path"
                    points="75.85 52.95 75.56 156.36 81.31 159.68 81.61 56.27"></polygon>
                <polygon fill="#F0F0F0" id="Path"
                    points="81.61 56.27 81.61 56.27 81.31 159.68 86.32 156.77 86.59 59.15"></polygon>
                <rect fill="#E0E0E0" height="6.64" id="Rectangle"
                    transform="translate(78.775562, 54.615199) rotate(-60.000000) translate(-78.775562, -54.615199) "
                    width="1" x="78.7255618" y="51.2951988"></rect>
                <polygon fill="#000000" id="Path" opacity="0.2"
                    points="81.6 60.92 81.61 56.27 75.85 52.95 75.84 57.59 81.6 60.92"></polygon>
                <polygon fill="#000000" id="Path" opacity="0.2"
                    points="81.6 60.92 85.63 58.59 81.61 56.27 81.61 56.27"></polygon>
                <rect fill="#E0E0E0" height="6.64" id="Rectangle"
                    transform="translate(78.775562, 54.605199) rotate(-60.000000) translate(-78.775562, -54.605199) "
                    width="1" x="78.7255618" y="51.2851988"></rect>
                <polygon fill="#F0F0F0" id="Path"
                    points="6.61 12.97 11.61 10.06 11.32 113.47 6.32 116.38"></polygon>
                <polygon fill="#F5F5F5" id="Path"
                    points="6.32 116.38 11.32 113.47 155.57 196.75 150.57 199.66"></polygon>
                <path
                    d="M0.88,3 L156.63,93 L156.3,209.63 L0.54,119.67 L0.88,3 Z M150.57,199.66 L150.86,96.25 L6.61,13 L6.32,116.41 L150.57,199.69"
                    fill="#E0E0E0" id="Shape"></path>
                <polygon fill="#F5F5F5" id="Path"
                    points="0.88 3.04 5.88 0.13 161.63 90.06 156.63 92.96"></polygon>
                <polygon fill="#F0F0F0" id="Path"
                    points="156.63 92.96 161.63 90.06 161.3 206.69 156.3 209.59"></polygon>
            </g>
            <g fill-rule="nonzero" id="freepik--Table--inject-3"
                transform="translate(310.000000, 199.000000)">
                <polygon fill="#E6E6E6" id="Path"
                    points="8.33 77.01 4.45 79.26 4.46 74.78"></polygon>
                <polygon fill="#787878" id="Path"
                    points="4.56 53.08 4.56 53.03 4.56 53.03 4.56 53.03"></polygon>
                <polygon fill="#CFCFCF" id="Path"
                    points="4.62 31.27 42.33 53.04 42.33 53.04"></polygon>
                <path
                    d="M8.33,77 L42.24,96.58 L42.24,101.06 L46.24,103.39 L46.39,50.71 L0.53,24.23 L0.38,76.92 L4.38,79.25 L4.38,74.77 L8.33,77 Z M42.28,70.12 L4.57,48.35 L4.62,31.26 L42.33,53 L42.33,53 L42.28,70.12 Z M42.22,91.88 L4.51,70.11 L4.56,53.11 L4.56,53 L4.56,53 L42.27,74.78 L42.27,74.78 L42.22,91.88 Z"
                    fill="#EBEBEB" id="Shape"></path>
                <polygon fill="#F5F5F5" id="Path"
                    points="4.51 70.12 4.56 53.08 4.56 53.03 42.27 74.81 42.27 74.81 42.22 91.89"></polygon>
                <polygon fill="#F5F5F5" id="Path"
                    points="4.57 48.36 4.62 31.27 42.33 53.04 42.33 53.04 42.28 70.13"></polygon>
                <polygon fill="#E6E6E6" id="Path"
                    points="46.42 50.72 86.45 27.45 86.3 80.14 46.27 103.4"></polygon>
                <polygon fill="#F5F5F5" id="Path"
                    points="46.42 50.72 0.56 24.24 40.59 0.98 86.45 27.45"></polygon>
            </g>
            <g fill-rule="nonzero" id="freepik--Plant--inject-3"
                transform="translate(338.000000, 180.000000)">
                <path
                    d="M27.81,25.75 L15.04,26.13 L2.26,25.75 C1.71,34.38 3.4,43.17 5.72,47.47 L5.72,47.47 C6.2647614,48.5791139 7.15175808,49.4836402 8.25,50.05 C12.52289,52.2231788 17.57711,52.2231788 21.85,50.05 C22.96037,49.4717197 23.8494714,48.5439617 24.38,47.41 C26.69,43.08 28.36,34.34 27.81,25.75 Z"
                    fill="#37474F" id="Path"></path>
                <path
                    d="M24,20.52 C29,23.41 29,28.1 24.06,30.99 C19.12,33.88 11,33.87 6,31 C1,28.13 1,23.42 5.94,20.53 C10.88,17.64 19,17.63 24,20.52 Z"
                    fill="#455A64" id="Path"></path>
                <path
                    d="M22.06,21.67 C25.97,23.93 25.99,27.58 22.11,29.83 C17.6816417,32.0898371 12.4383583,32.0898371 8.01,29.83 C4.11,27.58 4.09,23.93 8.01,21.67 C12.426351,19.4336033 17.643649,19.4336033 22.06,21.67 L22.06,21.67 Z"
                    fill="#263238" id="Path"></path>
                <path
                    d="M14,26.11 C16.0759744,27.8521858 18.8636281,28.4886194 21.49,27.82 C24.0227226,27.0473366 25.9961665,25.0513391 26.74,22.51 C25.2269436,21.7901406 23.841957,20.827406 22.64,19.66 C24.5581677,19.1850054 26.5711299,19.2577631 28.45,19.87 C29.5064759,18.2106216 29.6712998,16.135339 28.89,14.33 C26.7085658,13.3590555 24.2544641,13.1890744 21.96,13.85 C23.8856582,12.1740518 26.4211067,11.3735745 28.96,11.64 C29.142364,7.97941389 28.5705371,4.32040251 27.28,0.89 C22.52,1.13 17.9,3.19 16.34,4.66 C16.2695232,6.36347014 16.448072,8.06810586 16.87,9.72 C15.621361,9.08105606 14.7872272,7.84683997 14.66,6.45 C11.66,7.2 10.4,8.68 9.94,9.82 C10.3713629,11.9378254 11.3427766,13.9082107 12.76,15.54 C9.96,14.69 8.83,11.54 8.83,11.54 C6,18.09 6.57,25.48 14,26.11 Z"
                    fill="#04A635" id="Path"></path>
                <path
                    d="M14,26.11 C16.0759744,27.8521858 18.8636281,28.4886194 21.49,27.82 C24.0227226,27.0473366 25.9961665,25.0513391 26.74,22.51 C25.2269436,21.7901406 23.841957,20.827406 22.64,19.66 C24.5581677,19.1850054 26.5711299,19.2577631 28.45,19.87 C29.5064759,18.2106216 29.6712998,16.135339 28.89,14.33 C26.7085658,13.3590555 24.2544641,13.1890744 21.96,13.85 C23.8856582,12.1740518 26.4211067,11.3735745 28.96,11.64 C29.142364,7.97941389 28.5705371,4.32040251 27.28,0.89 C22.52,1.13 17.9,3.19 16.34,4.66 C16.2695232,6.36347014 16.448072,8.06810586 16.87,9.72 C15.621361,9.08105606 14.7872272,7.84683997 14.66,6.45 C11.66,7.2 10.4,8.68 9.94,9.82 C10.3713629,11.9378254 11.3427766,13.9082107 12.76,15.54 C9.96,14.69 8.83,11.54 8.83,11.54 C6,18.09 6.57,25.48 14,26.11 Z"
                    fill="#000000" id="Path" opacity="0.2"></path>
                <path
                    d="M13.8,26.82 L13.8,26.82 C13.7264074,26.815012 13.6580595,26.7801329 13.6108386,26.7234678 C13.5636177,26.6668028 13.5416354,26.5932856 13.55,26.52 C14,20.52 17.44,10.58 25.65,2.39 C25.7141355,2.29850725 25.8265264,2.25390273 25.9359472,2.27651626 C26.045368,2.29912979 26.1308702,2.38463205 26.1534837,2.49405285 C26.1760973,2.60347365 26.1314927,2.71586452 26.04,2.78 C17.94,10.86 14.54,20.65 14.1,26.57 C14.095012,26.6435926 14.0601329,26.7119405 14.0034678,26.7591614 C13.9468028,26.8063823 13.8732856,26.8283646 13.8,26.82 Z"
                    fill="#F5F5F5" id="Path"></path>
                <path
                    d="M16.05,29.33 C14.1132481,30.9117539 11.5368429,31.4718998 9.11817601,30.837074 C6.69950916,30.2022481 4.73029464,28.4490163 3.82,26.12 C5.1903055,25.4958997 6.44477734,24.6438056 7.53,23.6 C5.71851961,23.1623815 3.82291961,23.2176267 2.04,23.76 C0.938445775,22.3607092 0.646571409,20.4881646 1.27,18.82 C3.3464473,17.9684164 5.64706335,17.8312237 7.81,18.43 C5.87939847,16.9318353 3.45445932,16.2175675 1.02,16.43 C0.609182997,13.2013976 0.923476281,9.92181554 1.94,6.83 C6.48,7.1 10.94,8.98 12.53,10.31 C12.7075566,11.8101114 12.6468065,13.3288631 12.35,14.81 C13.4700753,14.2766276 14.1963777,13.1601308 14.23,11.92 C17.07,12.61 18.36,13.92 18.86,14.92 C18.5847225,16.769648 17.7906871,18.5033496 16.57,19.92 C18.1901811,19.3441649 19.4576029,18.0583213 20.01,16.43 C23,22.27 22.92,28.78 16.05,29.33 Z"
                    fill="#04A635" id="Path"></path>
                <path
                    d="M16.24,30.0000053 C16.1018541,30.0008551 15.9853472,29.8972934 15.97,29.76 C15.18,24.53 11.38,15.83 3.22,8.57 C3.12623564,8.51019137 3.07675689,8.40055919 3.09393803,8.29067909 C3.11111917,8.180799 3.19170273,8.09150369 3.29924886,8.06317249 C3.40679499,8.0348413 3.52091349,8.07284565 3.59,8.16 C11.85,15.52 15.71,24.35 16.51,29.68 C16.5287143,29.8303757 16.4284975,29.9698078 16.28,30.0000053 L16.24,30.0000053 Z"
                    fill="#FFFFFF" id="Path"></path>
            </g>
            <g id="freepik--Pictures--inject-3" transform="translate(14.000000, 18.000000)">
                <polygon id="Path"
                    points="48.54 49.81 8.99 72.64 9.07 102.88 48.63 80.04"></polygon>
                <polygon fill="#F0F0F0" fill-rule="nonzero" id="Path"
                    points="48.54 49.81 48.63 80.04 52.29 82.17 52.19 47.7"></polygon>
                <polygon fill="#F5F5F5" fill-rule="nonzero" id="Path"
                    points="9.07 102.88 9.08 107.11 52.29 82.17 48.63 80.04"></polygon>
                <path
                    d="M56.61,40.06 L4.54,70.12 L4.67,114.76 L56.73,84.7 L56.61,40.06 Z M9.08,107.11 L9.08,102.88 L9,72.64 L48.55,49.8 L52.2,47.7 L52.3,82.17 L9.08,107.11 Z"
                    fill="#E0E0E0" fill-rule="nonzero" id="Shape"></path>
                <polygon fill="#F5F5F5" fill-rule="nonzero" id="Path"
                    points="56.61 40.06 52.94 37.93 0.88 67.99 4.54 70.12"></polygon>
                <polygon fill="#F0F0F0" fill-rule="nonzero" id="Path"
                    points="0.88 67.99 1.01 112.63 4.67 114.76 4.54 70.12"></polygon>
                <polygon id="Path"
                    points="114.78 12.46 75.23 35.29 75.31 65.53 114.87 42.69"></polygon>
                <polygon fill="#F0F0F0" fill-rule="nonzero" id="Path"
                    points="114.78 12.46 114.87 42.69 118.53 44.82 118.44 10.35"></polygon>
                <polygon fill="#F5F5F5" fill-rule="nonzero" id="Path"
                    points="75.31 65.53 75.33 69.76 118.53 44.82 114.87 42.69"></polygon>
                <path
                    d="M122.85,2.71 L70.79,32.77 L70.91,77.41 L123,47.35 L122.85,2.71 Z M75.33,69.76 L75.33,65.53 L75.25,35.29 L114.8,12.46 L118.46,10.35 L118.55,44.82 L75.33,69.76 Z"
                    fill="#E0E0E0" fill-rule="nonzero" id="Shape"></path>
                <polygon fill="#F5F5F5" fill-rule="nonzero" id="Path"
                    points="122.85 2.71 119.19 0.58 67.12 30.64 70.79 32.77"></polygon>
                <polygon fill="#F0F0F0" fill-rule="nonzero" id="Path"
                    points="67.12 30.64 67.25 75.28 70.91 77.41 70.79 32.77"></polygon>
                <polygon fill="#E0E0E0" fill-rule="nonzero" id="Path"
                    points="35.97 61.28 46.76 69.78 46.79 78.08 10.91 98.79 10.88 90.49 17.72 76.91 23.86 81.68 21.69 88.42 24.84 82.43"></polygon>
                <path
                    d="M24.19,65.47 C25.88,64.47 27.25,65.27 27.26,67.21 C27.1479065,69.3569836 26.0138242,71.3202472 24.21,72.49 C22.52,73.49 21.15,72.69 21.14,70.75 C21.2553046,68.603969 22.3886052,66.6420584 24.19,65.47 L24.19,65.47 Z"
                    fill="#E0E0E0" fill-rule="nonzero" id="Path"></path>
                <polygon fill="#E0E0E0" fill-rule="nonzero" id="Path"
                    points="102.22 23.94 113 32.43 113.03 40.73 77.15 61.44 77.12 53.14 83.96 39.56 90.1 44.33 87.93 51.08 91.08 45.09"></polygon>
                <path
                    d="M90.43,28.12 C92.12,27.12 93.49,27.93 93.5,29.87 C93.3830989,32.0155564 92.2501861,33.9767957 90.45,35.15 C88.76,36.15 87.39,35.34 87.38,33.4 C87.4953046,31.253969 88.6286052,29.2920584 90.43,28.12 L90.43,28.12 Z"
                    fill="#E0E0E0" fill-rule="nonzero" id="Path"></path>
            </g>
            <g fill-rule="nonzero" id="freepik--Notes--inject-3"
                transform="translate(1.000000, 92.000000)">
                <polygon fill="#04A635" id="Path"
                    points="230.89 0.44 157.96 42.54 158.26 146.63 231.19 104.52"></polygon>
                <polygon fill="#04A635" id="Path"
                    points="234.99 2.84 162.06 44.94 162.36 149.03 235.29 106.92"></polygon>
                <polygon fill="#FFFFFF" id="Path" opacity="0.4"
                    points="234.99 2.84 162.06 44.94 162.36 149.03 235.29 106.92"></polygon>
                <polygon fill="#04A635" id="Path"
                    points="239.58 5.46 166.65 47.57 166.94 151.65 239.87 109.55"></polygon>
                <polygon fill="#FFFFFF" id="Path" opacity="0.6"
                    points="239.58 5.46 166.65 47.57 166.94 151.65 239.87 109.55"></polygon>
                <path
                    d="M202,12.66 C209.07,8.58 214.83,11.86 214.850052,19.99 C214.87,28.12 209.15,37.99 202.08,42.11 C195.01,46.23 189.24,42.92 189.219948,34.79 C189.2,26.66 195,16.75 202,12.66 Z"
                    fill="#EBEBEB" id="Path"></path>
                <path
                    d="M202.59,22.36 C203.12,22.05 203.59,22.3 203.59,22.92 L203.59,26.15 L206.41,24.53 C206.95,24.22 207.41,24.46 207.41,25.08 C207.363623,25.7700684 206.992545,26.3971908 206.41,26.77 L203.6,28.39 L203.6,31.62 C203.55842,32.3115467 203.18615,32.9406838 202.6,33.31 C202.06,33.62 201.6,33.37 201.6,32.75 L201.6,29.52 L198.79,31.14 C198.24,31.45 197.79,31.2 197.79,30.58 C197.834713,29.8920635 198.206602,29.2672909 198.79,28.9 L201.6,27.28 L201.6,24 C201.648528,23.3264009 202.01656,22.7167312 202.59,22.36 Z"
                    fill="#04A635" id="Path"></path>
                <polygon fill="#04A635" id="Path"
                    points="145.07 38.46 24.46 108.09 24.95 280.23 145.56 210.59"></polygon>
                <polygon fill="#04A635" id="Path"
                    points="0.86 94.38 1.35 266.51 24.95 280.23 24.46 108.09"></polygon>
                <polygon fill="#04A635" id="Path"
                    points="145.07 38.46 121.47 24.74 0.86 94.38 24.46 108.09"></polygon>
                <polygon fill="#FFFFFF" id="Path" opacity="0.2"
                    points="145.07 38.46 24.46 108.09 24.95 280.23 145.56 210.59"></polygon>
                <polygon fill="#FFFFFF" id="Path" opacity="0.5"
                    points="145.07 38.46 121.47 24.74 0.86 94.38 24.46 108.09"></polygon>
                <path
                    d="M24.46,108.09 C24.46,186.85 33.27,246.41 39.96,271.56 L145.56,210.56 L145.07,38.43 L24.46,108.09 Z"
                    fill="#000000" id="Path" opacity="0.2"></path>
                <path
                    d="M179.23,203 L58.62,272.59 C49.33,261.42 24.46,206.97 24.46,108.09 L145.07,38.46 C145.07,132 166.81,185.71 179.23,203 Z"
                    fill="#04A635" id="Path"></path>
                <path
                    d="M179.23,203 L58.62,272.59 C49.33,261.42 24.46,206.97 24.46,108.09 L145.07,38.46 C145.07,132 166.81,185.71 179.23,203 Z"
                    fill="#FFFFFF" id="Path" opacity="0.6"></path>
                <path
                    d="M128.3,120.83 L50.73,165.62 C50.89,166.953333 51.05,168.286667 51.21,169.62 L128.93,124.75 C128.72,123.46 128.5,122.15 128.3,120.83 Z"
                    fill="#04A635" id="Path"></path>
                <path
                    d="M132.07,141.67 L53.75,186.89 C53.9766667,188.223333 54.2066667,189.523333 54.44,190.79 L132.89,145.5 C132.61,144.23 132.34,143 132.07,141.67 Z"
                    fill="#04A635" id="Path"></path>
                <path
                    d="M130.06,131.32 L52.11,176.32 C52.3,177.66 52.49,178.98 52.69,180.32 L130.78,135.24 L130.06,131.32 Z"
                    fill="#04A635" id="Path"></path>
                <path
                    d="M126.76,110.21 L49.61,154.76 C49.73,156.13 49.86,157.49 50,158.83 L127.31,114.2 C127.12,112.87 126.94,111.54 126.76,110.21 Z"
                    fill="#04A635" id="Path"></path>
                <path
                    d="M124.33,88.6 L48.1,132.6 C48.16,134.01 48.23,135.4 48.3,136.79 L124.72,92.67 C124.58,91.3166667 124.45,89.96 124.33,88.6 Z"
                    fill="#04A635" id="Path"></path>
                <path
                    d="M125.44,99.47 L48.73,143.75 C48.8166667,145.136667 48.9166667,146.516667 49.03,147.89 L125.91,103.5 C125.75,102.15 125.59,100.81 125.44,99.47 Z"
                    fill="#04A635" id="Path"></path>
                <path
                    d="M143,181.4 L63.29,227.4 C63.68,228.65 64.06,229.86 64.45,231.03 L144.3,185 C143.85,183.78 143.42,182.59 143,181.4 Z"
                    fill="#04A635" id="Path"></path>
                <path
                    d="M134.34,151.87 L55.68,197.28 C55.94,198.59 56.2,199.87 56.47,201.13 L135.26,155.64 C135,154.39 134.64,153.13 134.34,151.87 Z"
                    fill="#04A635" id="Path"></path>
                <path
                    d="M139.76,171.75 L60.41,217.57 C60.75,218.83 61.1,220.07 61.41,221.28 L140.89,175.39 C140.53,174.18 140.14,173 139.76,171.75 Z"
                    fill="#04A635" id="Path"></path>
                <path
                    d="M136.89,161.9 L57.89,207.51 C58.19,208.8 58.49,210.06 58.8,211.29 L137.93,165.61 C137.58,164.38 137.23,163.15 136.89,161.9 Z"
                    fill="#04A635" id="Path"></path>
                <g fill="#000000" id="Group" opacity="0.1"
                    transform="translate(48.000000, 88.000000)">
                    <path
                        d="M80.3,32.83 L2.73,77.62 C2.89,78.9533333 3.05,80.2866667 3.21,81.62 L80.93,36.75 C80.72,35.46 80.5,34.15 80.3,32.83 Z"
                        id="Path"></path>
                    <path
                        d="M84.07,53.67 L5.75,98.89 C5.97666667,100.223333 6.20666667,101.523333 6.44,102.79 L84.89,57.5 C84.61,56.23 84.34,55 84.07,53.67 Z"
                        id="Path"></path>
                    <path
                        d="M82.06,43.32 L4.11,88.32 C4.3,89.66 4.49,90.98 4.69,92.32 L82.78,47.24 L82.06,43.32 Z"
                        id="Path"></path>
                    <path
                        d="M78.76,22.21 L1.61,66.76 C1.73,68.13 1.86,69.49 2,70.83 L79.31,26.2 C79.12,24.87 78.94,23.54 78.76,22.21 Z"
                        id="Path"></path>
                    <path
                        d="M76.33,0.6 L0.1,44.6 C0.16,46.01 0.23,47.4 0.3,48.79 L76.72,4.67 C76.58,3.31666667 76.45,1.96 76.33,0.6 Z"
                        id="Path"></path>
                    <path
                        d="M77.44,11.47 L0.73,55.75 C0.816666667,57.1366667 0.916666667,58.5166667 1.03,59.89 L77.91,15.5 C77.75,14.15 77.59,12.81 77.44,11.47 Z"
                        id="Path"></path>
                    <path
                        d="M95,93.4 L15.29,139.4 C15.68,140.65 16.06,141.86 16.45,143.03 L96.3,97 C95.85,95.78 95.42,94.59 95,93.4 Z"
                        id="Path"></path>
                    <path
                        d="M86.34,63.87 L7.68,109.28 C7.94,110.59 8.2,111.87 8.47,113.13 L87.26,67.64 C87,66.39 86.64,65.13 86.34,63.87 Z"
                        id="Path"></path>
                    <path
                        d="M91.76,83.75 L12.41,129.57 C12.75,130.83 13.1,132.07 13.41,133.28 L92.89,87.39 C92.53,86.18 92.14,85 91.76,83.75 Z"
                        id="Path"></path>
                    <path
                        d="M88.89,73.9 L9.89,119.51 C10.19,120.8 10.49,122.06 10.8,123.29 L89.93,77.61 C89.58,76.38 89.23,75.15 88.89,73.9 Z"
                        id="Path"></path>
                </g>
                <g fill="#FFFFFF" id="Group" opacity="0.3"
                    transform="translate(48.000000, 88.000000)">
                    <path
                        d="M80.3,32.83 L2.73,77.62 C2.89,78.9533333 3.05,80.2866667 3.21,81.62 L80.93,36.75 C80.72,35.46 80.5,34.15 80.3,32.83 Z"
                        id="Path"></path>
                    <path
                        d="M84.07,53.67 L5.75,98.89 C5.97666667,100.223333 6.20666667,101.523333 6.44,102.79 L84.89,57.5 C84.61,56.23 84.34,55 84.07,53.67 Z"
                        id="Path"></path>
                    <path
                        d="M82.06,43.32 L4.11,88.32 C4.3,89.66 4.49,90.98 4.69,92.32 L82.78,47.24 L82.06,43.32 Z"
                        id="Path"></path>
                    <path
                        d="M78.76,22.21 L1.61,66.76 C1.73,68.13 1.86,69.49 2,70.83 L79.31,26.2 C79.12,24.87 78.94,23.54 78.76,22.21 Z"
                        id="Path"></path>
                    <path
                        d="M76.33,0.6 L0.1,44.6 C0.16,46.01 0.23,47.4 0.3,48.79 L76.72,4.67 C76.58,3.31666667 76.45,1.96 76.33,0.6 Z"
                        id="Path"></path>
                    <path
                        d="M77.44,11.47 L0.73,55.75 C0.816666667,57.1366667 0.916666667,58.5166667 1.03,59.89 L77.91,15.5 C77.75,14.15 77.59,12.81 77.44,11.47 Z"
                        id="Path"></path>
                    <path
                        d="M95,93.4 L15.29,139.4 C15.68,140.65 16.06,141.86 16.45,143.03 L96.3,97 C95.85,95.78 95.42,94.59 95,93.4 Z"
                        id="Path"></path>
                    <path
                        d="M86.34,63.87 L7.68,109.28 C7.94,110.59 8.2,111.87 8.47,113.13 L87.26,67.64 C87,66.39 86.64,65.13 86.34,63.87 Z"
                        id="Path"></path>
                    <path
                        d="M91.76,83.75 L12.41,129.57 C12.75,130.83 13.1,132.07 13.41,133.28 L92.89,87.39 C92.53,86.18 92.14,85 91.76,83.75 Z"
                        id="Path"></path>
                    <path
                        d="M88.89,73.9 L9.89,119.51 C10.19,120.8 10.49,122.06 10.8,123.29 L89.93,77.61 C89.58,76.38 89.23,75.15 88.89,73.9 Z"
                        id="Path"></path>
                </g>
            </g>
            <g fill-rule="nonzero" id="freepik--Character--inject-3"
                transform="translate(199.000000, 121.000000)">
                <path
                    d="M76.39,240.76 C75.7,242.2 73.53,243.53 71.15,243.92 C68.77,244.31 66.35,243.8 63.96,243.46 C60.405001,242.965145 56.8053883,242.874568 53.23,243.19 C51.0176974,243.476232 48.790581,243.633165 46.56,243.66 C44.3071158,243.678987 42.1069931,242.978311 40.28,241.66 C39.0247187,240.666845 38.1864342,239.239978 37.93,237.66 C37.7153185,239.74707 38.6064078,241.794679 40.28,243.06 C42.1073107,244.37768 44.3072213,245.078289 46.56,245.06 C48.7909847,245.034798 51.0183954,244.874504 53.23,244.58 C56.8057656,244.267881 60.4053794,244.361813 63.96,244.86 C66.35,245.19 68.96,245.86 71.32,245.48 C73.68,245.1 75.87,243.76 76.56,242.33 L76.39,240.76 Z"
                    fill="#263238" id="Path"></path>
                <path
                    d="M50.35,236.52 C52.35,236.52 51.61,233.52 53.52,231.57 C52.74,231.57 51.97,231.63 51.19,231.62 C49.48,234.09 49,236.52 50.35,236.52 Z"
                    fill="#FFFFFF" id="Path"></path>
                <path
                    d="M54.51,236.36 C56.51,236.36 55.99,232.83 57.97,230.77 C57.5207747,230.927611 57.0634576,231.061135 56.6,231.17 C56.21,231.25 55.81,231.32 55.41,231.38 C53.65,233.88 53.14,236.36 54.51,236.36 Z"
                    fill="#FFFFFF" id="Path"></path>
                <path
                    d="M74.32,229.59 C74.189908,228.945508 73.8355988,228.367984 73.32,227.96 L62.5,227.69 C61.3466645,229.144343 59.7820524,230.217618 58.01,230.77 C56.01,232.83 56.56,236.36 54.55,236.36 C53.18,236.36 53.69,233.88 55.45,231.36 C54.82,231.45 54.19,231.51 53.56,231.55 C51.65,233.55 52.39,236.5 50.39,236.5 C49.04,236.5 49.52,234.07 51.23,231.6 L49.71,231.6 C49.25,231.6 48.79,231.6 48.33,231.52 C44.33,234.67 44.01,238.08 44.53,243.44 C45.2140241,243.559891 45.9058344,243.630075 46.6,243.65 C48.830581,243.623165 51.0576974,243.466232 53.27,243.18 C56.8453883,242.864568 60.445001,242.955145 64,243.45 C66.39,243.79 68.81,244.3 71.19,243.91 C73.57,243.52 75.74,242.19 76.43,240.75 L74.32,229.59 Z"
                    fill="#455A64" id="Path"></path>
                <path
                    d="M48.29,231.53 C46.4975436,231.249895 44.6724564,231.249895 42.88,231.53 C40.6170182,231.974382 38.761654,233.58973 38.01,235.77 C37.858736,236.391923 37.8315511,237.037563 37.93,237.67 C38.1864342,239.249978 39.0247187,240.676845 40.28,241.67 C41.5164922,242.597114 42.9625006,243.205056 44.49,243.44 C44,238.09 44.31,234.68 48.29,231.53 Z"
                    fill="#FFFFFF" id="Path"></path>
                <path
                    d="M62.15,224.61 L62.15,229.82 C62.15,231.001889 63.1081106,231.96 64.29,231.96 L69.75,231.96 C71.6463618,231.960931 73.2005701,230.455431 73.26,228.56 L73.39,224.61 L62.15,224.61 Z"
                    fill="#FFA8A7" id="Path"></path>
                <path
                    d="M98.2,222.29 C97.5970115,223.588369 96.3461339,224.465508 94.92,224.59 C93.4629513,224.698997 92.0083173,224.349326 90.76,223.59 C88.89,222.4 88.16,220.52 86.88,218.83 C85.5399478,217.194964 84.0204147,215.715684 82.35,214.42 C80.5562408,213.095168 79.080437,211.387062 78.03,209.42 C77.7696256,208.83887 77.5977203,208.222034 77.52,207.59 C77.3578204,208.787937 77.5344969,210.007352 78.03,211.11 C79.0781962,213.078599 80.5543948,214.787162 82.35,216.11 C84.018279,217.411883 85.537508,218.894222 86.88,220.53 C88.16,222.22 88.88,224.1 90.76,225.29 C92.0083173,226.049326 93.4629513,226.398997 94.92,226.29 C96.3461339,226.165508 97.5970115,225.288369 98.2,223.99 C98.4184281,223.039817 98.4859208,222.061173 98.4,221.09 C98.3987371,221.49819 98.3311912,221.903465 98.2,222.29 L98.2,222.29 Z"
                    fill="#263238" id="Path"></path>
                <path
                    d="M85.91,210.85 C85.7160279,211.104192 85.623371,211.421363 85.65,211.74 C85.7147545,212.053982 85.9382875,212.311614 86.24,212.42 C86.6715173,212.527288 87.1279362,212.406583 87.45,212.1 C87.7676435,211.797422 88.0525473,211.462241 88.3,211.1 C89.0223806,210.187502 89.9851958,209.494829 91.08,209.1 C91.6141701,208.902555 92.172542,208.778099 92.74,208.73 L91.39,207.5 C90.539458,207.54279 89.7047303,207.746382 88.93,208.1 C87.6681689,208.689828 86.615084,209.648763 85.91,210.85 L85.91,210.85 Z"
                    fill="#FFFFFF" id="Path"></path>
                <path
                    d="M86.2,206.55 C84.9413093,207.151127 83.8950668,208.120645 83.2,209.33 C83.0102696,209.590128 82.9182178,209.908769 82.94,210.23 C83.0060793,210.541087 83.2297687,210.795107 83.53,210.9 C83.9615382,211.011244 84.4198733,210.890031 84.74,210.58 C85.0600078,210.279664 85.3451412,209.944213 85.59,209.58 C86.9027966,207.895112 88.9830213,206.994435 91.11,207.19 L89.75,206 C88.5388196,205.864742 87.3134705,206.054585 86.2,206.55 L86.2,206.55 Z"
                    fill="#FFFFFF" id="Path"></path>
                <path
                    d="M88.89,205.2 C87.6625987,204.00156 86.2253928,203.038903 84.65,202.36 C82.705293,201.514735 80.4512487,201.827368 78.81,203.17 C77.6995455,204.336956 77.2193343,205.96744 77.52,207.55 C77.5977203,208.182034 77.7696256,208.79887 78.03,209.38 C78.3832749,210.144636 78.8336536,210.860536 79.37,211.51 C79.89,206.85 83.94,204.67 88.89,205.2 Z"
                    fill="#FFFFFF" id="Path"></path>
                <path
                    d="M98.31,217.72 C98.3334483,216.139537 97.9695163,214.577376 97.25,213.17 L94.62,210.41 L92.74,208.7 C92.172542,208.748099 91.6141701,208.872555 91.08,209.07 C89.9851958,209.464829 89.0223806,210.157502 88.3,211.07 C88.0525473,211.432241 87.7676435,211.767422 87.45,212.07 C87.1279362,212.376583 86.6715173,212.497288 86.24,212.39 C85.9382875,212.281614 85.7147545,212.023982 85.65,211.71 C85.623371,211.391363 85.7160279,211.074192 85.91,210.82 C86.6050668,209.610645 87.6513093,208.641127 88.91,208.04 C89.6847303,207.686382 90.519458,207.48279 91.37,207.44 L91.07,207.16 C88.9430213,206.964435 86.8627966,207.865112 85.55,209.55 C85.3051412,209.914213 85.0200078,210.249664 84.7,210.55 C84.3798733,210.860031 83.9215382,210.981244 83.49,210.87 C83.1897687,210.765107 82.9660793,210.511087 82.9,210.2 C82.8782178,209.878769 82.9702696,209.560128 83.16,209.3 C84.4822523,206.968211 87.0654527,205.647123 89.73,205.94 L89.68,205.89 L88.87,205.17 C83.92,204.64 79.87,206.82 79.35,211.48 C80.2615921,212.531082 81.2656139,213.498289 82.35,214.37 C84.0204147,215.665684 85.5399478,217.144964 86.88,218.78 C88.16,220.47 88.88,222.35 90.76,223.54 C92.0083173,224.299326 93.4629513,224.648997 94.92,224.54 C96.3461339,224.415508 97.5970115,223.538369 98.2,222.24 C98.3322637,221.850287 98.3998241,221.441546 98.4,221.03 C98.45,219.86 98.34,218.2 98.31,217.72 Z"
                    fill="#455A64" id="Path"></path>
                <path
                    d="M88.82,209.49 L89.13,215.08 C92.66,217.08 96.37,216.01 97.6,214.72 L97.84,209.49 L88.82,209.49 Z"
                    fill="#FFA8A7" id="Path"></path>
                <path
                    d="M95.77,88.59 C95.4663554,87.9920215 95.286113,87.3390679 95.24,86.67 L94.93,81.87 L60.73,84.07 C60.28,86.46 59.82,89.4 59.37,92.73 C71.5960748,95.9233661 84.5733235,94.4473823 95.77,88.59 L95.77,88.59 Z"
                    fill="#FFA8A7" id="Path"></path>
                <path
                    d="M95.1,69.23 L102.39,83.3 L95.77,94.38 L103.09,106 L114.14,88.84 C115.644796,86.4878276 116.056943,83.5991502 115.27,80.92 C113.379745,74.2326819 110.979372,67.700191 108.09,61.38 L95.1,69.23 Z"
                    fill="#FFA8A7" id="Path"></path>
                <path
                    d="M89.31,42 C97.7,40.44 102.49,43.23 109.57,62.2 C106.68,68.69 94.4,71.08 94.4,71.08 L89.31,42 Z"
                    fill="#455A64" id="Path"></path>
                <path
                    d="M89.31,42 C97.7,40.44 102.49,43.23 109.57,62.2 C106.68,68.69 94.4,71.08 94.4,71.08 L89.31,42 Z"
                    fill="#FFFFFF" id="Path" opacity="0.2"></path>
                <polygon fill="#FF9192" id="Path"
                    points="61.01 22.33 58.19 27.25 61.28 28.39"></polygon>
                <path
                    d="M60.7,20.14 C61.15,15.83 62.41,11.77 65.22,9.71 C64.4667495,15.0693523 65.6092167,20.5234836 68.45,25.13 C68.7287569,23.7061505 69.4621764,22.4112615 70.54,21.44 C71.5992547,20.4121608 73.1519033,20.0783414 74.54,20.58 C75.4683965,21.0239979 76.1862298,21.8136145 76.54,22.78 C77.3076921,24.6779255 76.8973846,26.8492727 75.4900755,28.3362002 C74.0827664,29.8231278 71.9372605,30.3521888 70,29.69 C70.7922277,33.6039472 73.8265585,36.677532 77.73,37.52 C80.2420737,38.0267547 82.8478879,37.7797416 85.22,36.81 L86.39,42.61 C81.66,47.61 73.58,44.27 73.58,44.27 L72.52,38.55 C63.22,39.11 62.35,38.95 61.33,33.83 C60.48832,29.3177124 60.2763016,24.7105191 60.7,20.14 L60.7,20.14 Z"
                    fill="#FFA8A7" id="Path"></path>
                <path
                    d="M59.59,9.82 C61.2809848,5.99416068 64.4983895,3.05242994 68.46,1.71 C72.3919572,0.402437052 76.5853639,0.0830375248 80.67,0.78 C83.2063302,1.06830939 85.6731347,1.7958306 87.96,2.93 C90.2755052,4.10555694 92.1615377,5.98109202 93.35,8.29 L93.83,4.29 C94.8346173,4.50271349 95.649976,5.23425021 95.97,6.21 C96.2396133,7.24101498 95.9643424,8.33832784 95.24,9.12 L95.61,9.12 C98.9189819,9.11734645 102.093345,10.4299747 104.434087,12.768841 C106.774829,15.1077073 108.09,18.281017 108.09,21.59 L108.09,42.7700041 C104.840284,42.7726561 101.722906,41.4828877 99.4250089,39.1849911 C97.1271123,36.8870944 95.8373439,33.7697155 95.84,30.52 L95.84,25.7 C94.3235926,29.3017129 91.9144775,32.4576536 88.84,34.87 C87.7490004,35.6672531 86.5590404,36.3193781 85.3,36.81 C82.9278879,37.7797416 80.3220737,38.0267547 77.81,37.52 C73.9065585,36.677532 70.8722277,33.6039472 70.08,29.69 C72.0172605,30.3521888 74.1627664,29.8231278 75.5700755,28.3362002 C76.9773846,26.8492727 77.3876921,24.6779255 76.62,22.78 C76.2662298,21.8136145 75.5483965,21.0239979 74.62,20.58 C73.2319033,20.0783414 71.6792547,20.4121608 70.62,21.44 C69.5421764,22.4112615 68.8087569,23.7061505 68.53,25.13 C65.6892167,20.5234836 64.5467495,15.0693523 65.3,9.71 C62.49,11.77 61.23,15.83 60.78,20.14 C58.6711966,17.1197241 58.2239364,13.2409631 59.59,9.82 L59.59,9.82 Z"
                    fill="#04A635" id="Path"></path>
                <path
                    d="M59.59,9.82 C61.2809848,5.99416068 64.4983895,3.05242994 68.46,1.71 C72.3919572,0.402437052 76.5853639,0.0830375248 80.67,0.78 C83.2063302,1.06830939 85.6731347,1.7958306 87.96,2.93 C90.2755052,4.10555694 92.1615377,5.98109202 93.35,8.29 L93.83,4.29 C94.8346173,4.50271349 95.649976,5.23425021 95.97,6.21 C96.2396133,7.24101498 95.9643424,8.33832784 95.24,9.12 L95.61,9.12 C98.9189819,9.11734645 102.093345,10.4299747 104.434087,12.768841 C106.774829,15.1077073 108.09,18.281017 108.09,21.59 L108.09,42.7700041 C104.840284,42.7726561 101.722906,41.4828877 99.4250089,39.1849911 C97.1271123,36.8870944 95.8373439,33.7697155 95.84,30.52 L95.84,25.7 C94.3235926,29.3017129 91.9144775,32.4576536 88.84,34.87 C87.7490004,35.6672531 86.5590404,36.3193781 85.3,36.81 C82.9278879,37.7797416 80.3220737,38.0267547 77.81,37.52 C73.9065585,36.677532 70.8722277,33.6039472 70.08,29.69 C72.0172605,30.3521888 74.1627664,29.8231278 75.5700755,28.3362002 C76.9773846,26.8492727 77.3876921,24.6779255 76.62,22.78 C76.2662298,21.8136145 75.5483965,21.0239979 74.62,20.58 C73.2319033,20.0783414 71.6792547,20.4121608 70.62,21.44 C69.5421764,22.4112615 68.8087569,23.7061505 68.53,25.13 C65.6892167,20.5234836 64.5467495,15.0693523 65.3,9.71 C62.49,11.77 61.23,15.83 60.78,20.14 C58.6711966,17.1197241 58.2239364,13.2409631 59.59,9.82 L59.59,9.82 Z"
                    fill="#000000" id="Path" opacity="0.4"></path>
                <path
                    d="M73.61,44.27 L64.46,46.07 C62.46,49.77 60.37,53.25 58.35,56.95 C56.83,59.74 55.26,62.7 55.35,65.88 C55.5298031,69.3379101 57.658531,72.3933521 60.84,73.76 L59.78,86.26 C74.15,90.65 91.72,86.79 95.58,83.47 C96.72,78.23 97.72,72.66 98.85,67.42 C99.698919,64.0415561 100.218018,60.5887108 100.4,57.11 C100.574375,53.6143282 99.7376556,50.1424623 97.99,47.11 L98,47 C95.5445444,43.3068669 91.139723,41.4123623 86.77,42.17 L73.61,44.27 Z"
                    fill="#455A64" id="Path"></path>
                <path
                    d="M73.61,44.27 L64.46,46.07 C62.46,49.77 60.37,53.25 58.35,56.95 C56.83,59.74 55.26,62.7 55.35,65.88 C55.5298031,69.3379101 57.658531,72.3933521 60.84,73.76 L59.78,86.26 C74.15,90.65 91.72,86.79 95.58,83.47 C96.72,78.23 97.72,72.66 98.85,67.42 C99.698919,64.0415561 100.218018,60.5887108 100.4,57.11 C100.574375,53.6143282 99.7376556,50.1424623 97.99,47.11 L98,47 C95.5445444,43.3068669 91.139723,41.4123623 86.77,42.17 L73.61,44.27 Z"
                    fill="#FFFFFF" id="Path" opacity="0.3"></path>
                <path
                    d="M96.3,89.47 C96.0929879,89.196047 95.9153453,88.9010932 95.77,88.59 C84.5733235,94.4473823 71.5960748,95.9233661 59.37,92.73 C56.79,111.92 54.58,144.41 55.94,165.85 C57.07,190.8 61.66,226.14 61.66,226.14 C67.66,227.93 72.14,226.84 73.84,225.54 C75.84,200.78 80.23,183.82 76.84,167.45 C79.11,156 80.57,141.63 80.57,141.63 L82.3,166.91 L88.16,211.36 C91.5049767,213.08044 95.5150698,212.878218 98.67,210.83 C102.93,185.41 104.53,168.19 100.8,155.57 C106.48,113.86 106.77,103.19 96.3,89.47 Z"
                    fill="#455A64" id="Path"></path>
                <path
                    d="M83.08,136.63 L86.22,123.46 C89.88,122.86 95.6,120.46 98.61,115.46 C94.2705046,118.862352 88.9337707,120.745492 83.42,120.82 L80.56,141.65 L81.17,150.55 L81.42,147.31 C81.6862836,143.711273 82.2414045,140.139772 83.08,136.63 L83.08,136.63 Z"
                    fill="#000000" id="Path" opacity="0.3"></path>
                <path
                    d="M40.51,46.94 C35.7444357,46.8728202 30.9961922,46.3504465 26.33,45.38 C26.33,45.38 17.17,34.82 13.01,28.57 C12.5044721,27.8087231 12.2015822,26.9310307 12.13,26.02 L12.13,26.02 C12.0750979,25.5817126 12.0750979,25.1382874 12.13,24.7 L13.51,16.01 C13.7613029,14.4713656 13.2592078,12.9055728 12.16,11.8 L7.6,7.19 C7.14564285,6.77175968 6.44685368,6.77057879 5.99108556,7.18728108 C5.53531743,7.60398336 5.47404068,8.30008168 5.85,8.79 L9.21,12.79 L2.76,14.35 C2.00260059,14.5332804 1.40263921,15.1103133 1.19,15.86 L0.45,18.52 C0.127771413,19.6605384 0.713060785,20.8612423 1.81,21.31 L2.68,21.68 L2.68,22.29 C2.64155541,23.8066184 3.19785374,25.2781172 4.23,26.39 C4.49,27.17 5.45,29.19 5.45,29.19 L14.74,53 C15.9301701,56.142068 18.6900034,58.4229221 22,59 L37.75,61.75 C41.4977842,57.796674 42.5887067,52.0175215 40.54,46.97 L40.51,46.94 Z"
                    fill="#FFA8A7" id="Path"></path>
                <path
                    d="M63,45.9 C57.33,46.17 48.83,47.1 40.48,46.9 C42.5287067,51.9475215 41.4377842,57.726674 37.69,61.68 L57.35,65.12 C61.648474,65.799466 65.7600459,63.1031405 66.85,58.89 C67.46,56.4 68.12,54.31 68.5,51.89 C68.7134764,50.3321888 68.2215486,48.7602858 67.1580967,47.6020899 C66.0946447,46.443894 64.5703299,45.8199256 63,45.9 Z"
                    fill="#455A64" id="Path"></path>
                <path
                    d="M63,45.9 C57.33,46.17 48.83,47.1 40.48,46.9 C42.5287067,51.9475215 41.4377842,57.726674 37.69,61.68 L57.35,65.12 C61.648474,65.799466 65.7600459,63.1031405 66.85,58.89 C67.46,56.4 68.12,54.31 68.5,51.89 C68.7134764,50.3321888 68.2215486,48.7602858 67.1580967,47.6020899 C66.0946447,46.443894 64.5703299,45.8199256 63,45.9 Z"
                    fill="#FFFFFF" id="Path" opacity="0.2"></path>
            </g>
        </g>
    </g>
</svg>