<svg height="24" viewBox="0 0 24 24" width="24" xmlns="http://www.w3.org/2000/svg">
    <g id="add_box" transform="translate(-848 -1482)">
        <path d="M867,1501H853v-14h14v14Zm-8-6v4h2v-4h4v-2h-4v-4h-2v4h-4v2Z" fill="#d0d0d0"
            id="Icon" />
        <path
            d="M867,1503H853a2,2,0,0,1-2-2v-14a2,2,0,0,1,2-2h14a2,2,0,0,1,2,2v14A2,2,0,0,1,867,1503Zm-14-16v14h14v-14Zm8,12h-2v-4h-4v-2h4v-4h2v4h4v2h-4v4Z"
            data-name="Icon" fill="#1d1d1d" id="Icon-2" />
    </g>
</svg>
