<svg height="24" viewBox="0 0 24 24" width="24" xmlns="http://www.w3.org/2000/svg">
    <g id="assignment" transform="translate(-304 -154)">
        <path d="M323,173H309V159h14v14Zm-12-4h0v2h7v-2Zm0-4v2h10v-2H311Zm0-4v2h10v-2Z"
            fill="#d0d0d0" id="Icon" />
        <path
            d="M323,175H309a2.621,2.621,0,0,1-.4-.03,2,2,0,0,1-1.01-.55,2.107,2.107,0,0,1-.43-.64A2.054,2.054,0,0,1,307,173V159a1.976,1.976,0,0,1,.16-.77,2.022,2.022,0,0,1,1.44-1.19A1.711,1.711,0,0,1,309,157h4.181a2.988,2.988,0,0,1,5.639,0H323a2,2,0,0,1,2,2v14A2,2,0,0,1,323,175Zm-14-16h0v14h14V159H309Zm7-2.25a.75.75,0,1,0,.75.75A.751.751,0,0,0,316,156.75ZM318,171h-7v-2h7v2Zm3-4H311v-2h10v2Zm0-4H311v-2h10v2Z"
            data-name="Icon" fill="#1d1d1d" id="Icon-2" />
    </g>
</svg>
