<?xml version="1.0" encoding="UTF-8"?>
<svg height="363px" version="1.1" viewBox="0 0 500 363" width="500px"
    xmlns="http://www.w3.org/2000/svg">
    <!-- Generator: Sketch 64 (93537) - https://sketch.com -->
    <title>Bookmarks-rafiki</title>
    <desc>Created with Sketch.</desc>
    <g fill="none" fill-rule="evenodd" id="Page-1" stroke="none" stroke-width="1">
        <g id="Bookmarks-rafiki">
            <g fill-rule="nonzero" id="freepik--background-complete--inject-15">
                <rect fill="#EBEBEB" height="1" id="Rectangle" width="500" x="0" y="327.4"></rect>
                <rect fill="#EBEBEB" height="1" id="Rectangle" width="33.12" x="416.78"
                    y="343.49"></rect>
                <rect fill="#EBEBEB" height="1" id="Rectangle" width="8.69" x="322.53"
                    y="346.21"></rect>
                <rect fill="#EBEBEB" height="1" id="Rectangle" width="19.19" x="396.59"
                    y="334.21"></rect>
                <rect fill="#EBEBEB" height="1" id="Rectangle" width="43.19" x="52.46"
                    y="335.89"></rect>
                <rect fill="#EBEBEB" height="1" id="Rectangle" width="6.33" x="104.56"
                    y="335.89"></rect>
                <rect fill="#EBEBEB" height="1" id="Rectangle" width="93.68" x="131.47"
                    y="340.11"></rect>
                <path
                    d="M237,282.8 L43.91,282.8 C40.76036,282.794484 38.21,280.239645 38.21,277.09 L38.21,5.66 C38.2374055,2.5298918 40.7797764,0.00536203973 43.91,1.42108547e-14 L237,1.42108547e-14 C240.153546,1.42108547e-14 242.71,2.55645408 242.71,5.71 L242.71,277.09 C242.71,280.243546 240.153546,282.8 237,282.8 Z M43.91,0.2 C40.8984312,0.205515703 38.46,2.6484262 38.46,5.66 L38.46,277.09 C38.46,280.101574 40.8984312,282.544484 43.91,282.55 L237,282.55 C240.013192,282.544496 242.454496,280.103192 242.46,277.09 L242.46,5.66 C242.454496,2.64680786 240.013192,0.205503561 237,0.2 L43.91,0.2 Z"
                    fill="#EBEBEB" id="Shape"></path>
                <path
                    d="M453.31,282.8 L260.21,282.8 C257.058737,282.794496 254.505504,280.241263 254.5,277.09 L254.5,5.66 C254.532848,2.52828036 257.078113,0.00530307708 260.21,-7.10542736e-15 L453.31,-7.10542736e-15 C456.436323,0.0108307119 458.972643,2.53377766 459,5.66 L459,277.09 C459,280.235752 456.455733,282.788982 453.31,282.8 Z M260.21,0.2 C257.196808,0.205503561 254.755504,2.64680786 254.75,5.66 L254.75,277.09 C254.755504,280.103192 257.196808,282.544496 260.21,282.55 L453.31,282.55 C456.323192,282.544496 458.764496,280.103192 458.77,277.09 L458.77,5.66 C458.764496,2.64680786 456.323192,0.205503561 453.31,0.2 L260.21,0.2 Z"
                    fill="#EBEBEB" id="Shape"></path>
                <rect fill="#E0E0E0" height="253.14" id="Rectangle" width="381.94" x="59.03"
                    y="76.89"></rect>
                <path
                    d="M250,328.89 L250,70.89 C250,70.89 298.67,55.1 428.8,55.1 L428.8,328.89 L250,328.89 Z"
                    fill="#F0F0F0" id="Path"></path>
                <path
                    d="M250,328.89 L250,70.89 C250,70.89 201.33,55.1 71.2,55.1 L71.2,328.89 L250,328.89 Z"
                    fill="#E6E6E6" id="Path"></path>
                <path
                    d="M263.92,97.56 C262.580319,97.5984549 261.446764,96.5776236 261.345199,95.2412449 C261.243634,93.9048661 262.209895,92.7244489 263.54,92.56 C312.324312,85.8441771 361.505704,82.4230953 410.75,82.32 C412.130712,82.32 413.25,83.4392881 413.25,84.82 C413.25,86.2007119 412.130712,87.32 410.75,87.32 C361.759153,87.4226383 312.831162,90.8337328 264.3,97.53 C264.174314,97.5499347 264.047257,97.5599655 263.92,97.56 Z"
                    fill="#E0E0E0" id="Path"></path>
                <path
                    d="M263.92,116.09 C262.539288,116.175604 261.350604,115.125712 261.265,113.745 C261.179396,112.364288 262.229288,111.175604 263.61,111.09 C264.35,110.99 338.48,101.78 410.75,101.78 C412.130712,101.78 413.25,102.899288 413.25,104.28 C413.25,105.660712 412.130712,106.78 410.75,106.78 C338.8,106.78 264.97,115.95 264.23,116.05 L263.92,116.09 Z"
                    fill="#E0E0E0" id="Path"></path>
                <path
                    d="M263.92,134.62 C262.539288,134.689036 261.364036,133.625712 261.295,132.245 C261.225964,130.864288 262.289288,129.689036 263.67,129.62 C264.48,129.54 345.72,121.25 410.75,121.25 C412.130712,121.25 413.25,122.369288 413.25,123.75 C413.25,125.130712 412.130712,126.25 410.75,126.25 C345.98,126.25 264.99,134.51 264.18,134.6 L263.92,134.62 Z"
                    fill="#E0E0E0" id="Path"></path>
                <path
                    d="M263.92,153.15 C262.539288,153.20799 261.37299,152.135712 261.315,150.755 C261.25701,149.374288 262.329288,148.20799 263.71,148.15 C264.6,148.08 352.96,140.71 410.71,140.71 C412.090712,140.71 413.21,141.829288 413.21,143.21 C413.21,144.590712 412.090712,145.71 410.71,145.71 C353.13,145.71 264.98,153.06 264.09,153.13 L263.92,153.15 Z"
                    fill="#E0E0E0" id="Path"></path>
                <path
                    d="M263.92,171.68 C262.539288,171.726944 261.381944,170.645712 261.333527,169.265 C261.288056,167.884288 262.369288,166.726944 263.75,166.68 C264.75,166.61 360.19,160.17 410.75,160.17 C412.130712,160.17 413.25,161.289288 413.25,162.67 C413.25,164.050712 412.130712,165.17 410.75,165.17 C360.36,165.17 265.05,171.6 264.09,171.67 L263.92,171.68 Z"
                    fill="#E0E0E0" id="Path"></path>
                <path
                    d="M263.92,190.22 C262.539288,190.255898 261.390899,189.165712 261.354138,187.785 C261.319102,186.404288 262.409288,185.255899 263.79,185.22 C264.79,185.16 367.42,179.64 410.79,179.64 C412.170712,179.64 413.29,180.759288 413.29,182.14 C413.29,183.520712 412.170712,184.64 410.79,184.64 C367.59,184.64 265.13,190.16 264.1,190.21 L263.92,190.22 Z"
                    fill="#E0E0E0" id="Path"></path>
                <path
                    d="M263.92,208.75 C262.539288,208.777614 261.397614,207.680712 261.36949,206.3 C261.342386,204.919288 262.439288,203.777614 263.82,203.75 C264.92,203.7 374.64,199.11 410.75,199.11 C412.130712,199.11 413.25,200.229288 413.25,201.61 C413.25,202.990712 412.130712,204.11 410.75,204.11 C374.75,204.11 265.13,208.7 264.03,208.75 L263.92,208.75 Z"
                    fill="#E0E0E0" id="Path"></path>
                <path
                    d="M263.92,227.28 C262.539288,227.302091 261.402092,226.200712 261.379674,224.82 C261.357909,223.439288 262.459288,222.302091 263.84,222.28 C265.02,222.28 381.84,218.57 410.75,218.57 C412.130712,218.57 413.25,219.689288 413.25,221.07 C413.25,222.450712 412.130712,223.57 410.75,223.57 C381.95,223.57 265.18,227.24 264,227.28 L263.92,227.28 Z"
                    fill="#E0E0E0" id="Path"></path>
                <path
                    d="M263.92,245.81 C262.539288,245.823807 261.408807,244.715712 261.394872,243.335 C261.381193,241.954288 262.489288,240.823807 263.87,240.81 C265.12,240.81 389.09,238.03 410.75,238.03 C412.130712,238.03 413.25,239.149288 413.25,240.53 C413.25,241.910712 412.130712,243.03 410.75,243.03 C389.15,243.03 265.23,245.78 263.98,245.81 L263.92,245.81 Z"
                    fill="#E0E0E0" id="Path"></path>
                <path
                    d="M263.92,264.34 C262.539288,264.34 261.42,263.220712 261.42,261.84 C261.42,260.459288 262.539288,259.34 263.92,259.34 C265.24,259.34 396.34,257.49 410.78,257.49 C412.160712,257.49 413.28,258.609288 413.28,259.99 C413.28,261.370712 412.160712,262.49 410.78,262.49 C396.38,262.49 265.31,264.33 263.99,264.34 L263.92,264.34 Z"
                    fill="#E0E0E0" id="Path"></path>
                <path
                    d="M263.92,282.88 C262.539288,282.88 261.42,281.760712 261.42,280.38 C261.42,278.999288 262.539288,277.88 263.92,277.88 C265.31,277.88 403.54,276.95 410.76,276.95 C412.140712,276.95 413.26,278.069288 413.26,279.45 C413.26,280.830712 412.140712,281.95 410.76,281.95 C403.56,281.95 265.35,282.87 263.95,282.88 L263.92,282.88 Z"
                    fill="#E0E0E0" id="Path"></path>
                <path
                    d="M410.75,301.41 L263.92,301.41 C262.539288,301.41 261.42,300.290712 261.42,298.91 C261.42,297.529288 262.539288,296.41 263.92,296.41 L410.75,296.41 C412.130712,296.41 413.25,297.529288 413.25,298.91 C413.25,300.290712 412.130712,301.41 410.75,301.41 L410.75,301.41 Z"
                    fill="#E0E0E0" id="Path"></path>
                <path
                    d="M236.08,97.56 C237.419681,97.5984549 238.553236,96.5776236 238.654801,95.2412449 C238.756366,93.9048661 237.790105,92.7244489 236.46,92.56 C187.675236,85.8508673 138.493846,82.4364674 89.25,82.34 C87.8692881,82.34 86.75,83.4592881 86.75,84.84 C86.75,86.2207119 87.8692881,87.34 89.25,87.34 C138.240396,87.4360106 187.168385,90.8404231 235.7,97.53 C235.825686,97.5499347 235.952743,97.5599655 236.08,97.56 Z"
                    fill="#F0F0F0" id="Path"></path>
                <path
                    d="M236.08,116.09 C237.460712,116.175604 238.649396,115.125712 238.735,113.745 C238.820604,112.364288 237.770712,111.175604 236.39,111.09 C235.65,110.99 161.52,101.78 89.25,101.78 C87.8692881,101.78 86.75,102.899288 86.75,104.28 C86.75,105.660712 87.8692881,106.78 89.25,106.78 C161.2,106.78 235.03,115.95 235.77,116.05 L236.08,116.09 Z"
                    fill="#F0F0F0" id="Path"></path>
                <path
                    d="M236.08,134.62 C237.460712,134.689036 238.635964,133.625712 238.705,132.245 C238.774036,130.864288 237.710712,129.689036 236.33,129.62 C235.52,129.54 154.28,121.25 89.25,121.25 C87.8692881,121.25 86.75,122.369288 86.75,123.75 C86.75,125.130712 87.8692881,126.25 89.25,126.25 C154.02,126.25 235.01,134.51 235.82,134.6 L236.08,134.62 Z"
                    fill="#F0F0F0" id="Path"></path>
                <path
                    d="M236.08,153.15 C237.460712,153.20799 238.62701,152.135712 238.685,150.755 C238.74299,149.374288 237.670712,148.20799 236.29,148.15 C235.4,148.08 147.04,140.71 89.29,140.71 C87.9092881,140.71 86.79,141.829288 86.79,143.21 C86.79,144.590712 87.9092881,145.71 89.29,145.71 C146.87,145.71 235.02,153.06 235.91,153.13 L236.08,153.15 Z"
                    fill="#F0F0F0" id="Path"></path>
                <path
                    d="M236.08,171.68 C236.973164,171.710368 237.814682,171.261931 238.287564,170.503612 C238.760445,169.745293 238.792846,168.792299 238.372564,168.003612 C237.952281,167.214926 237.143164,166.710368 236.25,166.68 C235.25,166.61 139.81,160.17 89.25,160.17 C87.8692881,160.17 86.75,161.289288 86.75,162.67 C86.75,164.050712 87.8692881,165.17 89.25,165.17 C139.64,165.17 234.95,171.6 235.91,171.67 L236.08,171.68 Z"
                    fill="#F0F0F0" id="Path"></path>
                <path
                    d="M236.08,190.22 C237.460712,190.255898 238.609101,189.165712 238.645862,187.785 C238.680898,186.404288 237.590712,185.255899 236.21,185.22 C235.21,185.16 132.58,179.64 89.21,179.64 C87.8292881,179.64 86.71,180.759288 86.71,182.14 C86.71,183.520712 87.8292881,184.64 89.21,184.64 C132.41,184.64 234.87,190.16 235.9,190.21 L236.08,190.22 Z"
                    fill="#F0F0F0" id="Path"></path>
                <path
                    d="M236.08,208.75 C237.460712,208.777614 238.602386,207.680712 238.63051,206.3 C238.657614,204.919288 237.560712,203.777614 236.18,203.75 C235.08,203.7 125.36,199.11 89.25,199.11 C87.8692881,199.11 86.75,200.229288 86.75,201.61 C86.75,202.990712 87.8692881,204.11 89.25,204.11 C125.25,204.11 234.87,208.7 235.97,208.75 L236.08,208.75 Z"
                    fill="#F0F0F0" id="Path"></path>
                <path
                    d="M236.08,227.28 C237.460712,227.302091 238.597908,226.200712 238.620326,224.82 C238.642091,223.439288 237.540712,222.302091 236.16,222.28 C234.98,222.28 118.16,218.57 89.25,218.57 C87.8692881,218.57 86.75,219.689288 86.75,221.07 C86.75,222.450712 87.8692881,223.57 89.25,223.57 C118.05,223.57 234.82,227.24 236,227.28 L236.08,227.28 Z"
                    fill="#F0F0F0" id="Path"></path>
                <path
                    d="M236.08,245.81 C237.460712,245.81 238.58,244.690712 238.58,243.31 C238.58,241.929288 237.460712,240.81 236.08,240.81 C234.83,240.81 110.86,238.03 89.2,238.03 C87.8192881,238.03 86.7,239.149288 86.7,240.53 C86.7,241.910712 87.8192881,243.03 89.2,243.03 C110.8,243.03 234.72,245.78 235.97,245.81 L236.08,245.81 Z"
                    fill="#F0F0F0" id="Path"></path>
                <path
                    d="M236.08,264.34 C237.460712,264.34 238.58,263.220712 238.58,261.84 C238.58,260.459288 237.460712,259.34 236.08,259.34 C234.76,259.34 103.66,257.49 89.22,257.49 C87.8392881,257.49 86.72,258.609288 86.72,259.99 C86.72,261.370712 87.8392881,262.49 89.22,262.49 C103.62,262.49 234.69,264.33 236.01,264.34 L236.08,264.34 Z"
                    fill="#F0F0F0" id="Path"></path>
                <path
                    d="M236.08,282.88 C237.460712,282.88 238.58,281.760712 238.58,280.38 C238.58,278.999288 237.460712,277.88 236.08,277.88 C234.69,277.88 96.46,276.95 89.24,276.95 C87.8592881,276.95 86.74,278.069288 86.74,279.45 C86.74,280.830712 87.8592881,281.95 89.24,281.95 C96.44,281.95 234.65,282.87 236.05,282.88 L236.08,282.88 Z"
                    fill="#F0F0F0" id="Path"></path>
                <path
                    d="M89.25,301.41 L236.08,301.41 C237.460712,301.41 238.58,300.290712 238.58,298.91 C238.58,297.529288 237.460712,296.41 236.08,296.41 L89.25,296.41 C87.8692881,296.41 86.75,297.529288 86.75,298.91 C86.75,300.290712 87.8692881,301.41 89.25,301.41 L89.25,301.41 Z"
                    fill="#F0F0F0" id="Path"></path>
                <polygon fill="#E0E0E0" id="Path"
                    points="266.11 159.56 257.88 151.56 249.66 159.56 249.66 68.41 266.11 65.41"></polygon>
            </g>
            <g fill-rule="nonzero" id="freepik--Screen--inject-15"
                transform="translate(82.000000, 31.000000)">
                <path
                    d="M146.660013,4.19 L146.660013,300.67 C146.662837,301.8297 146.199281,302.941842 145.373624,303.756214 C144.547967,304.570587 143.429551,305.018795 142.27,305.000568 L4.27,305.000568 C3.23822869,305.015866 2.24348966,304.615808 1.51,303.89 C0.75248235,303.121258 0.337754104,302.079028 0.36,301 L0.36,3.83 C0.324874125,2.90156989 0.660337568,1.99727028 1.29246889,1.31636919 C1.92460021,0.635468092 2.80152231,0.233844987 3.73,0.2 L42.91,0.2 C44.0410472,0.22925753 45.0415305,0.941063801 45.44,2 L47.06,6 C47.4707463,7.03773603 48.4641564,7.72760414 49.58,7.75 L97.53,7.75 C98.6512466,7.73702957 99.6523217,7.0445863 100.06,6 L101.68,2 C102.082187,0.952662433 103.078331,0.25298979 104.2,0.23 L142.82,0.23 C144.951013,0.315218365 146.640376,2.05737404 146.660013,4.19 Z"
                    fill="#08C641" id="Path"></path>
                <rect fill="#FFFFFF" height="2.72" id="Rectangle" opacity="0.6"
                    transform="translate(19.570000, 10.790000) rotate(180.000000) translate(-19.570000, -10.790000) "
                    width="2.04" x="18.55" y="9.43"></rect>
                <rect fill="#FFFFFF" height="3.62" id="Rectangle" opacity="0.6"
                    transform="translate(16.250000, 10.330000) rotate(180.000000) translate(-16.250000, -10.330000) "
                    width="2.04" x="15.23" y="8.52"></rect>
                <rect fill="#FFFFFF" height="4.53" id="Rectangle" opacity="0.6"
                    transform="translate(12.920000, 9.875000) rotate(180.000000) translate(-12.920000, -9.875000) "
                    width="2.04" x="11.9" y="7.61"></rect>
                <rect fill="#FFFFFF" height="5.44" id="Rectangle" opacity="0.6"
                    transform="translate(9.610000, 9.430000) rotate(180.000000) translate(-9.610000, -9.430000) "
                    width="2.04" x="8.59" y="6.71"></rect>
                <rect fill="#FFFFFF" height="2.72" id="Rectangle" opacity="0.6" width="1.21"
                    x="126.78" y="8.43"></rect>
                <rect fill="#FFFFFF" height="4.7" id="Rectangle" opacity="0.6"
                    transform="translate(133.625000, 9.790000) rotate(180.000000) translate(-133.625000, -9.790000) "
                    width="9.63" x="128.81" y="7.44"></rect>
                <g fill="#FFFFFF" id="Group" opacity="0.1">
                    <path
                        d="M66.18,7.7 L24.06,165.47 L24.06,165.47 L23.59,167.24 L23.59,167.24 L22.83,170.08 L22.83,170.08 L22.36,171.85 L0.36,254.23 L0.36,154.53 L41.57,0.2 L42.91,0.2 C44.041957,0.226526087 45.0438127,0.939308791 45.44,2 L47.06,6 C47.4672443,7.03909126 48.4640258,7.72734516 49.58,7.74 L66.18,7.7 Z"
                        id="Path"></path>
                    <polygon id="Path"
                        points="146.67 88.27 146.67 187.97 120.4 286.37 119.76 288.76 115.43 305 88.81 305 93.14 288.77 93.84 286.17 97.32 273.13 98.01 270.52 99.41 265.31 100.1 262.7 101.49 257.49 102.19 254.88 124.08 172.87 124.08 172.86 125.1 169.07 125.1 169.06"></polygon>
                    <path
                        d="M80.61,7.7 L38.75,164.48 L38.5,165.42 L36.21,174 L36,175 L1.54,303.89 C0.764537229,303.130894 0.337465842,302.084931 0.36,301 L0.36,285.86 L30,175 L30.25,174.06 L32.54,165.47 L32.8,164.53 L74.62,7.7 L80.61,7.7 Z"
                        id="Path"></path>
                </g>
                <rect fill="#FFFFFF" height="272.35" id="Rectangle" opacity="0.3" width="146.3"
                    x="0.36" y="19.53"></rect>
                <rect fill="#FFFFFF" height="56.51" id="Rectangle" opacity="0.4" width="130.03"
                    x="8.58" y="161.46"></rect>
                <rect fill="#000000" height="2.66" id="Rectangle" opacity="0.5" width="130.03"
                    x="8.58" y="125.51"></rect>
                <rect fill="#FFFFFF" height="4.99" id="Rectangle" opacity="0.6" rx="2.42"
                    width="69.01" x="8.58" y="142.75"></rect>
                <rect fill="#FFFFFF" height="4.99" id="Rectangle" opacity="0.6" rx="2.42"
                    width="83.43" x="8.58" y="135.02"></rect>
                <polygon fill="#FFFFFF" id="Path" opacity="0.4"
                    points="125.81 135.02 131 140.21 136.18 135.02"></polygon>
                <rect fill="#FFFFFF" height="73" id="Rectangle" opacity="0.4" width="130.03" x="8"
                    y="47"></rect>
                <rect fill="#FFFFFF" height="4.51" id="Rectangle" opacity="0.5" rx="2.19"
                    width="14.71" x="83.16" y="166.78"></rect>
                <rect fill="#FFFFFF" height="4.51" id="Rectangle-Copy-5" opacity="0.5" rx="2.19"
                    width="14.71" x="83.16" y="58"></rect>
                <rect fill="#FFFFFF" height="4.51" id="Rectangle" opacity="0.5" rx="2.19"
                    width="43.54" x="83.16" y="174.04"></rect>
                <rect fill="#FFFFFF" height="4.51" id="Rectangle-Copy-2" opacity="0.5" rx="2.19"
                    width="43.54" x="83.16" y="71"></rect>
                <rect fill="#FFFFFF" height="4.51" id="Rectangle-Copy-3" opacity="0.5" rx="2.19"
                    width="43.54" x="83" y="83"></rect>
                <rect fill="#FFFFFF" height="4.51" id="Rectangle-Copy-4" opacity="0.5" rx="2.19"
                    width="43.54" x="83" y="96"></rect>
                <rect fill="#000000" height="45.87" id="Rectangle" opacity="0.3" width="59.09"
                    x="14.72" y="166.78"></rect>
                <rect fill="#000000" height="60" id="Rectangle-Copy" opacity="0.3" width="59" x="14"
                    y="54"></rect>
                <rect fill="#FFFFFF" height="56.51" id="Rectangle" opacity="0.4" width="130.03"
                    x="8.58" y="225.29"></rect>
                <rect fill="#FFFFFF" height="4.51" id="Rectangle" opacity="0.5" rx="2.19"
                    width="14.71" x="83.16" y="230.61"></rect>
                <rect fill="#FFFFFF" height="4.51" id="Rectangle" opacity="0.5" rx="2.19"
                    width="43.54" x="83.16" y="237.88"></rect>
                <rect fill="#000000" height="45.87" id="Rectangle" opacity="0.3" width="59.09"
                    x="14.72" y="230.61"></rect>
                <polygon fill="#08C641" id="Path"
                    points="137.45 39.99 132.83 36 128.2 39.99 128.2 29.02 137.45 29.02"></polygon>
                <path
                    d="M120.76,29 L113.76,29 C112.806819,29.0054625 112.035462,29.7768192 112.03,30.73 L112.03,35.49 C112.035462,36.4431808 112.806819,37.2145375 113.76,37.22 L116.13,37.22 L116.13,40 L117.92,37.25 L120.72,37.25 C121.675453,37.25 122.45,36.4754526 122.45,35.52 L122.45,30.76 C122.466757,29.808316 121.71158,29.0218602 120.76,29 L120.76,29 Z"
                    fill="#08C641" id="Path"></path>
                <path
                    d="M106.81,30.33 C105.52,28.22 103.04,29.02 101.75,30.64 C100.48,29 98.01,28.18 96.7,30.28 C94.49,33.81 98.98,37.13 101.1,38.43 L101.7,38.8 L102.31,38.44 C104.45,37.16 109,33.9 106.81,30.33 Z"
                    fill="#08C641" id="Path"></path>
                <rect fill="#08C641" height="4.99" id="Rectangle" rx="2.42" width="49.01" x="8.58"
                    y="36.75"></rect>
                <rect fill="#08C641" height="4.99" id="Rectangle" rx="2.42" width="63.43" x="8.58"
                    y="29.02"></rect>
            </g>
            <g fill-rule="nonzero" id="freepik--Plant--inject-15"
                transform="translate(55.000000, 247.000000)">
                <path
                    d="M26,87 C26,87 20.35,74.67 26.8,62.52 C33.25,50.37 35.13,47.52 31.02,45.02 C26.91,42.52 25.02,54.74 25.02,54.74 C25.02,54.74 21.55,46.34 24.42,37.55 C27.29,28.76 29.08,14.44 25.17,12.91 C21.26,11.38 24.42,30.77 21.03,37.38 C19.3014763,32.7380077 18.1854076,27.8905045 17.71,22.96 C17.24,15.9 17.97,4.62 14.88,1.73 C11.79,-1.16 9.82,0.84 12.88,16.42 C14.7040078,25.7308467 15.7078542,35.1837343 15.88,44.67 C15.88,44.67 9.18,24.23 4.68,23.67 C0.18,23.11 0.19,29.67 4.04,35.44 C7.89,41.21 15.32,51.44 16.54,56.76 C16.54,56.76 9.18,41.38 2.54,46.09 C-4.1,50.8 8.3,60.09 13.82,63.45 C19.34,66.81 23.17,87.85 23.17,87.85 L26,87 Z"
                    fill="#08C641" id="Path"></path>
                <path
                    d="M26,87 C26,87 20.35,74.67 26.8,62.52 C33.25,50.37 35.13,47.52 31.02,45.02 C26.91,42.52 25.02,54.74 25.02,54.74 C25.02,54.74 21.55,46.34 24.42,37.55 C27.29,28.76 29.08,14.44 25.17,12.91 C21.26,11.38 24.42,30.77 21.03,37.38 C19.3014763,32.7380077 18.1854076,27.8905045 17.71,22.96 C17.24,15.9 17.97,4.62 14.88,1.73 C11.79,-1.16 9.82,0.84 12.88,16.42 C14.7040078,25.7308467 15.7078542,35.1837343 15.88,44.67 C15.88,44.67 9.18,24.23 4.68,23.67 C0.18,23.11 0.19,29.67 4.04,35.44 C7.89,41.21 15.32,51.44 16.54,56.76 C16.54,56.76 9.18,41.38 2.54,46.09 C-4.1,50.8 8.3,60.09 13.82,63.45 C19.34,66.81 23.17,87.85 23.17,87.85 L26,87 Z"
                    fill="#000000" id="Path" opacity="0.2"></path>
                <path
                    d="M21.57,92 C21.57,92 27.07,79.6 20.47,67.54 C13.87,55.48 11.97,52.65 16.05,50.1 C20.13,47.55 22.17,59.73 22.17,59.73 C22.17,59.73 25.54,51.28 22.57,42.54 C19.6,33.8 17.63,19.54 21.57,17.91 C25.51,16.28 22.57,35.75 26.01,42.31 C27.6812738,37.6471267 28.7368545,32.7860768 29.15,27.85 C29.54,20.78 28.67,9.52 31.72,6.58 C34.77,3.64 36.78,5.58 33.93,21.24 C32.2161913,30.5740217 31.3227811,40.0401549 31.26,49.53 C31.26,49.53 37.71,28.99 42.26,28.33 C46.81,27.67 46.82,34.28 43.04,40.08 C39.26,45.88 31.85,56.3 30.7,61.61 C30.7,61.61 37.87,46.12 44.55,50.74 C51.23,55.36 39,64.83 33.48,68.27 C27.96,71.71 24.42,92.81 24.42,92.81 L21.57,92 Z"
                    fill="#08C641" id="Path"></path>
                <polygon fill="#263238" id="Path"
                    points="46.94 83.19 1.5 83.19 5.18 115.71 43.26 115.71"></polygon>
            </g>
            <g fill-rule="nonzero" id="freepik--Books--inject-15"
                transform="translate(231.000000, 213.000000)">
                <rect fill="#08C641" height="27.1" id="Rectangle" width="62.48" x="141.68"
                    y="61.45"></rect>
                <rect fill="#FFFFFF" height="27.1" id="Rectangle" opacity="0.8" width="62.48"
                    x="141.68" y="61.45"></rect>
                <polygon fill="#000000" id="Path" opacity="0.2"
                    points="146.69 64.1 204.16 64.1 204.16 61.45 146.75 61.45"></polygon>
                <polygon fill="#000000" id="Path" opacity="0.2"
                    points="146.69 66.41 198.54 67.52 146.69 68.62"></polygon>
                <polygon fill="#000000" id="Path" opacity="0.2"
                    points="146.69 76.43 201.6 77.36 146.69 78.14"></polygon>
                <polygon fill="#000000" id="Path" opacity="0.2"
                    points="146.69 82.29 201.11 83.39 146.69 84.5"></polygon>
                <polygon fill="#000000" id="Path" opacity="0.2"
                    points="204.16 70.27 151.52 71.86 204.16 72.96"></polygon>
                <path
                    d="M64.71,74.86 C64.721033,81.6397678 70.2202232,87.130009 77,87.13 L207.05,87.13 C207.547056,87.13 207.950056,87.5329437 207.950056,88.03 L207.950056,89.03 C207.952672,89.2704228 207.859031,89.5019187 207.689958,89.6728704 C207.520885,89.8438222 207.290438,89.94 207.05,89.94 L76.32,89.94 C72.3049611,89.94 68.4560927,88.3369915 65.6283199,85.4866866 C62.8005471,82.6363817 61.2280077,78.7749114 61.2595212,74.76 C61.4295287,66.3710753 68.3197292,59.6815603 76.71,59.76 L207.05,59.76 C207.547056,59.76 207.950056,60.1629437 207.950056,60.66 L207.950056,61.66 C207.952672,61.9004228 207.859031,62.1319187 207.689958,62.3028704 C207.520885,62.4738222 207.290438,62.5700148 207.05,62.57 L77.36,62.57 C70.59,62.56 64.7,68.09 64.71,74.86 Z"
                    fill="#263238" id="Path"></path>
                <path
                    d="M64.71,74.86 C64.721033,81.6397678 70.2202232,87.130009 77,87.13 L207.05,87.13 C207.547056,87.13 207.950056,87.5329437 207.950056,88.03 L207.950056,89.03 C207.952672,89.2704228 207.859031,89.5019187 207.689958,89.6728704 C207.520885,89.8438222 207.290438,89.94 207.05,89.94 L76.32,89.94 C72.3049611,89.94 68.4560927,88.3369915 65.6283199,85.4866866 C62.8005471,82.6363817 61.2280077,78.7749114 61.2595212,74.76 C61.4295287,66.3710753 68.3197292,59.6815603 76.71,59.76 L207.05,59.76 C207.547056,59.76 207.950056,60.1629437 207.950056,60.66 L207.950056,61.66 C207.952672,61.9004228 207.859031,62.1319187 207.689958,62.3028704 C207.520885,62.4738222 207.290438,62.5700148 207.05,62.57 L77.36,62.57 C70.59,62.56 64.7,68.09 64.71,74.86 Z"
                    fill="#FFFFFF" id="Path" opacity="0.4"></path>
                <path
                    d="M17.28,75 L17.28,75 C17.2855151,82.4922184 23.3577816,88.5644849 30.85,88.57 L146.69,88.57 L146.69,61.45 L30.85,61.45 C23.365577,61.4554931 17.2965321,67.5155932 17.28,75 Z"
                    fill="#08C641" id="Path"></path>
                <path
                    d="M146.69,61.45 L146.69,88.59 L30.85,88.59 C23.3554959,88.59 17.28,82.5145041 17.28,75.02 C17.28,67.5254959 23.3554959,61.45 30.85,61.45 L146.69,61.45 Z"
                    fill="#FFFFFF" id="Path" opacity="0.7"></path>
                <polygon fill="#000000" id="Path" opacity="0.2"
                    points="146.69 68.62 146.69 66.41 31.23 67.34"></polygon>
                <polygon fill="#000000" id="Path" opacity="0.2"
                    points="146.69 78.14 146.69 76.43 94.86 78.29"></polygon>
                <polygon fill="#000000" id="Path" opacity="0.2"
                    points="146.69 84.5 146.69 82.29 63.12 83.57"></polygon>
                <path
                    d="M30.66,64.1 C28.4424827,64.1077479 26.3058871,64.9338982 24.66,66.42 C25.3817344,67.8219448 25.9516347,69.2969808 26.36,70.82 L142.2,71.73 L26.6,72 C27.007412,74.0406507 26.9698923,76.1451684 26.49,78.17 L104.49,79.88 L25.74,80.79 C25.0634093,82.6708832 24.1884778,84.4743818 23.13,86.17 C18.2413578,82.7975897 16.1137018,76.6380326 17.8786365,70.9673202 C19.6435713,65.2966077 24.8909792,61.4324425 30.83,61.43 L146.69,61.43 L146.69,64.08 L30.66,64.1 Z"
                    fill="#000000" id="Path" opacity="0.2"></path>
                <path
                    d="M18.36,74.86 C18.3599989,78.1159397 19.6541,81.2383786 21.9573346,83.5397377 C24.2605692,85.8410967 27.3840614,87.1326536 30.64,87.13 L148.64,87.13 C149.137056,87.13 149.540056,87.5329437 149.540056,88.03 L149.540056,89.03 C149.542672,89.2704228 149.449031,89.5019187 149.279958,89.6728704 C149.110885,89.8438222 148.880438,89.94 148.64,89.94 L30,89.94 C25.9849611,89.94 22.1360927,88.3369915 19.3083199,85.4866866 C16.4805471,82.6363817 14.9080077,78.7749114 14.9395212,74.76 C15.1095287,66.3710753 21.9997292,59.6815603 30.39,59.76 L148.64,59.76 C149.137056,59.76 149.540056,60.1629437 149.540056,60.66 L149.540056,61.66 C149.542672,61.9004228 149.449031,62.1319187 149.279958,62.3028704 C149.110885,62.4738222 148.880438,62.5700148 148.64,62.57 L31,62.57 C24.24,62.56 18.35,68.09 18.36,74.86 Z"
                    fill="#263238" id="Path"></path>
                <polygon fill="#08C641" id="Path"
                    points="31.23 71.41 31.23 82.29 35.17 78.36 38.98 82.17 38.98 71.41"></polygon>
                <rect fill="#08C641" height="27.14" id="Rectangle" width="168.64" x="28.12"
                    y="121.25"></rect>
                <rect fill="#FFFFFF" height="27.14" id="Rectangle" opacity="0.7" width="168.64"
                    x="28.12" y="121.25"></rect>
                <polygon fill="#000000" id="Path" opacity="0.2"
                    points="196.76 128.42 196.76 126.21 81.29 127.14"></polygon>
                <polygon fill="#000000" id="Path" opacity="0.2"
                    points="196.76 137.94 196.76 136.23 144.92 138.08"></polygon>
                <polygon fill="#000000" id="Path" opacity="0.2"
                    points="196.76 144.29 196.76 142.09 113.18 143.37"></polygon>
                <path
                    d="M65.82,121.25 L63.37,141.48 L66.26,138.4 C67.2339785,142.096622 69.0476793,145.518699 71.56,148.4 C73.3631981,146.032033 74.7993176,143.40589 75.82,140.61 L154.58,139.71 L76.58,138.01 C76.8220999,136.906085 76.9494432,135.780101 76.96,134.65 C76.9563255,133.703726 76.8659477,132.75978 76.69,131.83 L192.25,131.54 L76.42,130.63 C76.0089217,129.107867 75.4391302,127.633113 74.72,126.23 C76.3658871,124.743898 78.5024827,123.917748 80.72,123.91 L196.72,123.91 L196.72,121.26 L65.82,121.25 Z"
                    fill="#000000" id="Path" opacity="0.2"></path>
                <path
                    d="M68.42,134.66 C68.431033,141.439768 73.9302232,146.930009 80.71,146.93 L198.71,146.93 C198.950423,146.927328 199.181919,147.020969 199.35287,147.190042 C199.523822,147.359115 199.62,147.589562 199.62,147.83 L199.62,148.83 C199.62,149.071347 199.524125,149.302809 199.353467,149.473467 C199.182809,149.644125 198.951347,149.74 198.71,149.74 L15.13,149.74 C11.1157891,149.737443 7.26848774,148.13345 4.44129745,145.283733 C1.61410715,142.434015 0.0406983701,138.574105 0.0695979517,134.56 C0.26647841,126.19072 7.1487854,119.531141 15.52,119.61 L198.7,119.61 C198.940423,119.607328 199.171919,119.700969 199.34287,119.870042 C199.513822,120.039115 199.610015,120.269562 199.61,120.51 L199.61,121.51 C199.61,121.751347 199.514125,121.982809 199.343467,122.153467 C199.172809,122.324125 198.941347,122.42 198.7,122.42 L81.07,122.42 C74.3,122.36 68.41,127.89 68.42,134.66 Z"
                    fill="#08C641" id="Path"></path>
                <path
                    d="M68.42,134.66 C68.431033,141.439768 73.9302232,146.930009 80.71,146.93 L198.71,146.93 C198.950423,146.927328 199.181919,147.020969 199.35287,147.190042 C199.523822,147.359115 199.62,147.589562 199.62,147.83 L199.62,148.83 C199.62,149.071347 199.524125,149.302809 199.353467,149.473467 C199.182809,149.644125 198.951347,149.74 198.71,149.74 L15.13,149.74 C11.1157891,149.737443 7.26848774,148.13345 4.44129745,145.283733 C1.61410715,142.434015 0.0406983701,138.574105 0.0695979517,134.56 C0.26647841,126.19072 7.1487854,119.531141 15.52,119.61 L198.7,119.61 C198.940423,119.607328 199.171919,119.700969 199.34287,119.870042 C199.513822,120.039115 199.610015,120.269562 199.61,120.51 L199.61,121.51 C199.61,121.751347 199.514125,121.982809 199.343467,122.153467 C199.172809,122.324125 198.941347,122.42 198.7,122.42 L81.07,122.42 C74.3,122.36 68.41,127.89 68.42,134.66 Z"
                    fill="#000000" id="Path" opacity="0.2"></path>
                <path
                    d="M68.42,134.66 C68.431033,141.439768 73.9302232,146.930009 80.71,146.93 L198.71,146.93 C198.950423,146.927328 199.181919,147.020969 199.35287,147.190042 C199.523822,147.359115 199.62,147.589562 199.62,147.83 L199.62,148.83 C199.62,149.071347 199.524125,149.302809 199.353467,149.473467 C199.182809,149.644125 198.951347,149.74 198.71,149.74 L80,149.74 C75.9926264,149.716226 72.1592915,148.099398 69.3453665,145.246078 C66.5314415,142.392758 64.9680611,138.537317 64.9995201,134.53 C65.2071797,126.161462 72.0892213,119.506448 80.46,119.58 L198.7,119.58 C198.940423,119.577328 199.171919,119.670969 199.34287,119.840042 C199.513822,120.009115 199.610015,120.239562 199.61,120.48 L199.61,121.48 C199.61,121.721347 199.514125,121.952809 199.343467,122.123467 C199.172809,122.294125 198.941347,122.39 198.7,122.39 L81.07,122.39 C74.3,122.36 68.41,127.89 68.42,134.66 Z"
                    fill="#08C641" id="Path"></path>
                <polygon fill="#08C641" id="Path"
                    points="81.29 131.21 81.29 142.09 85.23 138.15 89.05 141.97 89.05 131.21"></polygon>
                <path
                    d="M68.42,134.66 C68.431033,141.439768 73.9302232,146.930009 80.71,146.93 L198.71,146.93 C198.950423,146.927328 199.181919,147.020969 199.35287,147.190042 C199.523822,147.359115 199.62,147.589562 199.62,147.83 L199.62,148.83 C199.62,149.071347 199.524125,149.302809 199.353467,149.473467 C199.182809,149.644125 198.951347,149.74 198.71,149.74 L80,149.74 C75.9926264,149.716226 72.1592915,148.099398 69.3453665,145.246078 C66.5314415,142.392758 64.9680611,138.537317 64.9995201,134.53 C65.2071797,126.161462 72.0892213,119.506448 80.46,119.58 L198.7,119.58 C198.940423,119.577328 199.171919,119.670969 199.34287,119.840042 C199.513822,120.009115 199.610015,120.239562 199.61,120.48 L199.61,121.48 C199.61,121.721347 199.514125,121.952809 199.343467,122.123467 C199.172809,122.294125 198.941347,122.39 198.7,122.39 L81.07,122.39 C74.3,122.36 68.41,127.89 68.42,134.66 Z"
                    fill="#FFFFFF" id="Path" opacity="0.2"></path>
                <rect fill="#08C641" height="27.14" id="Rectangle" width="168.64" x="41.33"
                    y="91.35"></rect>
                <rect fill="#FFFFFF" height="27.14" id="Rectangle" opacity="0.8" width="168.64"
                    x="41.33" y="91.35"></rect>
                <polygon fill="#000000" id="Path" opacity="0.2"
                    points="209.97 98.52 209.97 96.31 94.51 97.24"></polygon>
                <polygon fill="#000000" id="Path" opacity="0.2"
                    points="209.97 108.04 209.97 106.33 158.14 108.19"></polygon>
                <polygon fill="#000000" id="Path" opacity="0.2"
                    points="209.97 114.39 209.97 112.19 126.4 113.47"></polygon>
                <path
                    d="M79,91.35 L76.55,111.58 L79.43,108.5 C80.4069203,112.197527 82.2240833,115.61968 84.74,118.5 C86.5440758,116.128962 87.9802276,113.499388 89,110.7 L167.75,109.8 L89.75,108.1 C89.9920999,106.996085 90.1194432,105.870101 90.13,104.74 C90.123029,103.793419 90.0293035,102.84947 89.85,101.92 L205.42,101.63 L89.59,100.72 C89.1757186,99.1974772 88.6025705,97.7227104 87.88,96.32 C89.5258871,94.8338982 91.6624827,94.0077479 93.88,94 L210,94 L210,91.35 L79,91.35 Z"
                    fill="#000000" id="Path" opacity="0.2"></path>
                <path
                    d="M81.64,104.76 C81.6675169,111.524145 87.1558011,116.994552 93.92,117 L211.92,117 C212.160423,116.997328 212.391919,117.090969 212.56287,117.260042 C212.733822,117.429115 212.83,117.659562 212.83,117.9 L212.83,118.9 C212.83,119.402579 212.422579,119.81 211.92,119.81 L37.62,119.81 C33.6040556,119.81 29.7541772,118.207288 26.9248206,115.35728 C24.095464,112.507271 22.5206865,108.645837 22.549598,104.63 C22.7571288,96.2653867 29.6330994,89.6119394 38,89.68 L211.92,89.68 C212.160423,89.6773285 212.391919,89.7709689 212.56287,89.9400421 C212.733822,90.1091153 212.83,90.3395624 212.83,90.58 L212.83,91.58 C212.83,92.0825791 212.422579,92.49 211.92,92.49 L94.28,92.49 C87.52,92.46 81.63,98 81.64,104.76 Z"
                    fill="#08C641" id="Path"></path>
                <path
                    d="M81.64,104.76 C81.6675169,111.524145 87.1558011,116.994552 93.92,117 L211.92,117 C212.160423,116.997328 212.391919,117.090969 212.56287,117.260042 C212.733822,117.429115 212.83,117.659562 212.83,117.9 L212.83,118.9 C212.83,119.402579 212.422579,119.81 211.92,119.81 L37.62,119.81 C33.6040556,119.81 29.7541772,118.207288 26.9248206,115.35728 C24.095464,112.507271 22.5206865,108.645837 22.549598,104.63 C22.7571288,96.2653867 29.6330994,89.6119394 38,89.68 L211.92,89.68 C212.160423,89.6773285 212.391919,89.7709689 212.56287,89.9400421 C212.733822,90.1091153 212.83,90.3395624 212.83,90.58 L212.83,91.58 C212.83,92.0825791 212.422579,92.49 211.92,92.49 L94.28,92.49 C87.52,92.46 81.63,98 81.64,104.76 Z"
                    fill="#FFFFFF" id="Path" opacity="0.4"></path>
                <path
                    d="M81.64,104.76 C81.6675169,111.524145 87.1558011,116.994552 93.92,117 L211.92,117 C212.160423,116.997328 212.391919,117.090969 212.56287,117.260042 C212.733822,117.429115 212.83,117.659562 212.83,117.9 L212.83,118.9 C212.83,119.402579 212.422579,119.810004 211.92,119.810004 L93.25,119.810004 C89.2332281,119.812795 85.381781,118.210835 82.5518407,115.360238 C79.7219004,112.509641 78.1479929,108.646645 78.1795212,104.63 C78.3764784,96.2607199 85.2587854,89.6011413 93.63,89.68 L211.92,89.68 C212.160423,89.6773285 212.391919,89.7709689 212.56287,89.9400421 C212.733822,90.1091153 212.83,90.3395624 212.83,90.58 L212.83,91.58 C212.83,92.0825791 212.422579,92.49 211.92,92.49 L94.28,92.49 C87.52,92.46 81.63,98 81.64,104.76 Z"
                    fill="#08C641" id="Path"></path>
                <polygon fill="#263238" id="Path"
                    points="103.86 97.45 103.86 108.33 107.8 104.39 111.62 108.21 111.62 97.45"></polygon>
                <path
                    d="M81.64,104.76 C81.6675169,111.524145 87.1558011,116.994552 93.92,117 L211.92,117 C212.160423,116.997328 212.391919,117.090969 212.56287,117.260042 C212.733822,117.429115 212.83,117.659562 212.83,117.9 L212.83,118.9 C212.83,119.402579 212.422579,119.810004 211.92,119.810004 L93.25,119.810004 C89.2332281,119.812795 85.381781,118.210835 82.5518407,115.360238 C79.7219004,112.509641 78.1479929,108.646645 78.1795212,104.63 C78.3764784,96.2607199 85.2587854,89.6011413 93.63,89.68 L211.92,89.68 C212.160423,89.6773285 212.391919,89.7709689 212.56287,89.9400421 C212.733822,90.1091153 212.83,90.3395624 212.83,90.58 L212.83,91.58 C212.83,92.0825791 212.422579,92.49 211.92,92.49 L94.28,92.49 C87.52,92.46 81.63,98 81.64,104.76 Z"
                    fill="#FFFFFF" id="Path" opacity="0.6"></path>
                <rect fill="#08C641" height="27.1" id="Rectangle" width="62.48" x="132.41"
                    y="1.65"></rect>
                <rect fill="#FFFFFF" height="27.1" id="Rectangle" opacity="0.7" width="62.48"
                    x="132.41" y="1.65"></rect>
                <polygon fill="#000000" id="Path" opacity="0.2"
                    points="137.42 4.3 194.89 4.3 194.89 1.65 137.48 1.65"></polygon>
                <polygon fill="#000000" id="Path" opacity="0.2"
                    points="137.42 6.61 189.27 7.72 137.42 8.82"></polygon>
                <polygon fill="#000000" id="Path" opacity="0.2"
                    points="137.42 16.63 192.33 17.56 137.42 18.34"></polygon>
                <polygon fill="#000000" id="Path" opacity="0.2"
                    points="137.42 22.5 191.84 23.6 137.42 24.7"></polygon>
                <polygon fill="#000000" id="Path" opacity="0.2"
                    points="194.89 10.47 142.25 12.06 194.89 13.16"></polygon>
                <path
                    d="M55.44,15.06 C55.451033,21.8397678 60.9502232,27.330009 67.73,27.33 L197.73,27.33 C198.227056,27.33 198.63,27.7329437 198.63,28.23 L198.63,29.23 C198.632672,29.4704228 198.539031,29.7019187 198.369958,29.8728704 C198.200885,30.0438222 197.970438,30.14 197.73,30.14 L67.05,30.14 C63.0322801,30.1348413 59.1829541,28.5255602 56.3570559,25.6696192 C53.5311577,22.8136782 51.9626721,18.9475498 51.9993487,14.93 C52.2177855,6.57716765 59.0845649,-0.0627945962 67.44,0 L197.78,0 C198.277056,0 198.680056,0.402943725 198.680056,0.9 L198.680056,1.9 C198.682672,2.14042276 198.589031,2.37191869 198.419958,2.54287045 C198.250885,2.7138222 198.020438,2.81001484 197.78,2.81 L68.09,2.81 C61.32,2.76 55.43,8.29 55.44,15.06 Z"
                    fill="#08C641" id="Path"></path>
                <path
                    d="M55.44,15.06 C55.451033,21.8397678 60.9502232,27.330009 67.73,27.33 L197.73,27.33 C198.227056,27.33 198.63,27.7329437 198.63,28.23 L198.63,29.23 C198.632672,29.4704228 198.539031,29.7019187 198.369958,29.8728704 C198.200885,30.0438222 197.970438,30.14 197.73,30.14 L67.05,30.14 C63.0322801,30.1348413 59.1829541,28.5255602 56.3570559,25.6696192 C53.5311577,22.8136782 51.9626721,18.9475498 51.9993487,14.93 C52.2177855,6.57716765 59.0845649,-0.0627945962 67.44,0 L197.78,0 C198.277056,0 198.680056,0.402943725 198.680056,0.9 L198.680056,1.9 C198.682672,2.14042276 198.589031,2.37191869 198.419958,2.54287045 C198.250885,2.7138222 198.020438,2.81001484 197.78,2.81 L68.09,2.81 C61.32,2.76 55.43,8.29 55.44,15.06 Z"
                    fill="#FFFFFF" id="Path" opacity="0.4"></path>
                <path
                    d="M8,15.22 L8,15.22 C8,22.7145041 14.0754959,28.79 21.57,28.79 L137.42,28.79 L137.42,1.65 L21.58,1.65 C14.0838766,1.65 8.00551997,7.72387864 8,15.22 L8,15.22 Z"
                    fill="#08C641" id="Path"></path>
                <path
                    d="M137.42,1.65 L137.42,28.8 L21.58,28.8 C14.2261973,28.6003901 8.36847659,22.5815113 8.36847659,15.225 C8.36847659,7.86848872 14.2261973,1.84960988 21.58,1.65 L137.42,1.65 Z"
                    fill="#FFFFFF" id="Path" opacity="0.5"></path>
                <polygon fill="#000000" id="Path" opacity="0.2"
                    points="137.42 8.82 137.42 6.61 21.96 7.54"></polygon>
                <polygon fill="#000000" id="Path" opacity="0.2"
                    points="137.42 18.34 137.42 16.63 85.59 18.49"></polygon>
                <polygon fill="#000000" id="Path" opacity="0.2"
                    points="137.42 24.7 137.42 22.5 53.85 23.77"></polygon>
                <path
                    d="M21.39,4.3 C19.1724827,4.30774791 17.0358871,5.13389822 15.39,6.62 C16.1117344,8.02194479 16.6816347,9.49698079 17.09,11.02 L132.93,11.93 L17.36,12.22 C17.767412,14.2606507 17.7298923,16.3651684 17.25,18.39 L95.25,20.1 L16.5,21.01 C15.8245237,22.8931114 14.9460132,24.6970757 13.88,26.39 C9.00391463,23.0092638 6.88721706,16.8542673 8.65257743,11.1895441 C10.4179378,5.52482099 15.6565827,1.66205123 21.59,1.65 L137.42,1.65 L137.42,4.3 L21.39,4.3 Z"
                    fill="#000000" id="Path" opacity="0.2"></path>
                <path
                    d="M9.09,15.06 C9.08999892,18.3159397 10.3841,21.4383786 12.6873346,23.7397377 C14.9905692,26.0410967 18.1140614,27.3326536 21.37,27.33 L139.37,27.33 C139.867056,27.33 140.270056,27.7329437 140.270056,28.23 L140.270056,29.23 C140.272672,29.4704228 140.179031,29.7019187 140.009958,29.8728704 C139.840885,30.0438222 139.610438,30.14 139.37,30.14 L20.69,30.14 C16.6749611,30.14 12.8260927,28.5369915 9.99831991,25.6866866 C7.17054707,22.8363817 5.59800766,18.9749114 5.62952124,14.96 C5.82109835,6.58679011 12.7049801,-0.0787678969 21.08,5.68434189e-14 L139.37,5.68434189e-14 C139.867056,5.68434189e-14 140.270056,0.402943725 140.270056,0.9 L140.270056,1.9 C140.272672,2.14042276 140.179031,2.37191869 140.009958,2.54287045 C139.840885,2.7138222 139.610438,2.81001484 139.37,2.81 L21.73,2.81 C15,2.76 9.08,8.29 9.09,15.06 Z"
                    fill="#08C641" id="Path"></path>
                <polygon fill="#08C641" id="Path"
                    points="21.96 11.61 21.96 22.5 25.89 18.56 29.71 22.37 29.71 11.61"></polygon>
                <rect fill="#08C641" height="27.14" id="Rectangle" width="168.64" x="55.93"
                    y="31.55"></rect>
                <rect fill="#FFFFFF" height="27.14" id="Rectangle" opacity="0.7" width="168.64"
                    x="55.93" y="31.55"></rect>
                <polygon fill="#000000" id="Path" opacity="0.2"
                    points="224.57 38.72 224.57 36.51 109.11 37.44"></polygon>
                <polygon fill="#000000" id="Path" opacity="0.2"
                    points="224.57 48.24 224.57 46.53 172.74 48.39"></polygon>
                <polygon fill="#000000" id="Path" opacity="0.2"
                    points="224.57 54.6 224.57 52.39 141 53.67"></polygon>
                <path
                    d="M93.63,31.55 L91.19,51.78 L94.07,48.7 C95.0421665,52.399387 96.85988,55.8225763 99.38,58.7 C101.180727,56.335718 102.613591,53.7127338 103.63,50.92 L182.39,50.01 L104.39,48.31 C104.640856,47.207353 104.771618,46.0807912 104.78,44.95 C104.773029,44.0034191 104.679304,43.0594699 104.5,42.13 L220.07,41.84 L104.23,40.93 C103.821635,39.4069808 103.251734,37.9319448 102.53,36.53 C104.175887,35.0438982 106.312483,34.2177479 108.53,34.21 L224.53,34.21 L224.53,31.56 L93.63,31.55 Z"
                    fill="#000000" id="Path" opacity="0.2"></path>
                <path
                    d="M96.24,45 C96.2399989,48.2559397 97.5341,51.3783786 99.8373346,53.6797377 C102.140569,55.9810967 105.264061,57.2726536 108.52,57.27 L226.52,57.27 C227.017056,57.27 227.420056,57.6729437 227.420056,58.17 L227.420056,59.17 C227.422672,59.4104228 227.329031,59.6419187 227.159958,59.8128704 C226.990885,59.9838222 226.760438,60.08 226.52,60.08 L42.94,60.08 C38.9249611,60.08 35.0760927,58.4769915 32.2483199,55.6266866 C29.4205471,52.7763817 27.8480077,48.9149114 27.8795212,44.9 C28.0764784,36.5307199 34.9587854,29.8711413 43.33,29.95 L226.52,29.95 C227.017056,29.95 227.420056,30.3529437 227.420056,30.85 L227.420056,31.85 C227.422672,32.0904228 227.329031,32.3219187 227.159958,32.4928704 C226.990885,32.6638222 226.760438,32.7600148 226.52,32.76 L108.88,32.76 C102.11,32.66 96.23,38.19 96.24,45 Z"
                    fill="#263238" id="Path"></path>
                <path
                    d="M96.24,45 C96.2399989,48.2559397 97.5341,51.3783786 99.8373346,53.6797377 C102.140569,55.9810967 105.264061,57.2726536 108.52,57.27 L226.52,57.27 C227.017056,57.27 227.420056,57.6729437 227.420056,58.17 L227.420056,59.17 C227.422672,59.4104228 227.329031,59.6419187 227.159958,59.8128704 C226.990885,59.9838222 226.760438,60.08 226.52,60.08 L42.94,60.08 C38.9249611,60.08 35.0760927,58.4769915 32.2483199,55.6266866 C29.4205471,52.7763817 27.8480077,48.9149114 27.8795212,44.9 C28.0764784,36.5307199 34.9587854,29.8711413 43.33,29.95 L226.52,29.95 C227.017056,29.95 227.420056,30.3529437 227.420056,30.85 L227.420056,31.85 C227.422672,32.0904228 227.329031,32.3219187 227.159958,32.4928704 C226.990885,32.6638222 226.760438,32.7600148 226.52,32.76 L108.88,32.76 C102.11,32.66 96.23,38.19 96.24,45 Z"
                    fill="#FFFFFF" id="Path" opacity="0.2"></path>
                <path
                    d="M96.24,45 C96.2399989,48.2559397 97.5341,51.3783786 99.8373346,53.6797377 C102.140569,55.9810967 105.264061,57.2726536 108.52,57.27 L226.52,57.27 C227.017056,57.27 227.420056,57.6729437 227.420056,58.17 L227.420056,59.17 C227.422672,59.4104228 227.329031,59.6419187 227.159958,59.8128704 C226.990885,59.9838222 226.760438,60.08 226.52,60.08 L107.84,60.08 C103.824961,60.08 99.9760927,58.4769915 97.1483199,55.6266866 C94.3205471,52.7763817 92.7480077,48.9149114 92.7795212,44.9 C92.9764784,36.5307199 99.8587854,29.8711413 108.23,29.95 L226.52,29.95 C227.017056,29.95 227.420056,30.3529437 227.420056,30.85 L227.420056,31.85 C227.422672,32.0904228 227.329031,32.3219187 227.159958,32.4928704 C226.990885,32.6638222 226.760438,32.7600148 226.52,32.76 L108.88,32.76 C102.11,32.66 96.23,38.19 96.24,45 Z"
                    fill="#263238" id="Path"></path>
                <polygon fill="#263238" id="Path"
                    points="109.11 41.51 109.11 52.39 113.04 48.46 116.86 52.27 116.86 41.51"></polygon>
                <path
                    d="M96.24,45 C96.2399989,48.2559397 97.5341,51.3783786 99.8373346,53.6797377 C102.140569,55.9810967 105.264061,57.2726536 108.52,57.27 L226.52,57.27 C227.017056,57.27 227.420056,57.6729437 227.420056,58.17 L227.420056,59.17 C227.422672,59.4104228 227.329031,59.6419187 227.159958,59.8128704 C226.990885,59.9838222 226.760438,60.08 226.52,60.08 L107.84,60.08 C103.824961,60.08 99.9760927,58.4769915 97.1483199,55.6266866 C94.3205471,52.7763817 92.7480077,48.9149114 92.7795212,44.9 C92.9764784,36.5307199 99.8587854,29.8711413 108.23,29.95 L226.52,29.95 C227.017056,29.95 227.420056,30.3529437 227.420056,30.85 L227.420056,31.85 C227.422672,32.0904228 227.329031,32.3219187 227.159958,32.4928704 C226.990885,32.6638222 226.760438,32.7600148 226.52,32.76 L108.88,32.76 C102.11,32.66 96.23,38.19 96.24,45 Z"
                    fill="#FFFFFF" id="Path" opacity="0.4"></path>
            </g>
            <g id="freepik--Character--inject-15" transform="translate(216.000000, 68.000000)">
                <polygon fill="#B97964" fill-rule="nonzero" id="Path"
                    points="22.49 203.52 29.06 205.11 32.39 196.03 35.41 187.77 27.92 184.58 25.04 194.6"></polygon>
                <polygon fill="#000000" fill-rule="nonzero" id="Path" opacity="0.2"
                    points="25.04 194.6 32.39 196.03 35.41 187.77 27.92 184.58"></polygon>
                <path
                    d="M25.71,189.81 L34.83,193.2 C34.83,193.2 59.16,132.37 64.16,132.2 C69.16,132.03 120.07,155.39 132.83,142.41 C145.59,129.43 127.14,98.17 127.14,98.17 C127.14,98.17 96.45,93.79 94.14,100.72 C93.5714702,102.762761 93.1372093,104.840532 92.84,106.94 C92.49,109.06 92.25,110.84 92.25,110.84 L92.25,110.84 C91.25,110.6 60.49,102.65 48.35,110.84 C36,119.14 25.71,189.81 25.71,189.81 Z"
                    fill="#08C641" fill-rule="nonzero" id="Path"></path>
                <polygon fill="#B97964" fill-rule="nonzero" id="Path"
                    points="78.16 229.47 84.71 227.79 83.45 218.39 82.28 209.77 74.18 210.5 76.29 220.55"></polygon>
                <polygon fill="#000000" fill-rule="nonzero" id="Path" opacity="0.2"
                    points="76.34 220.75 83.5 218.57 82.31 209.86 74.19 210.54"></polygon>
                <polygon fill="#263238" fill-rule="nonzero" id="Path"
                    points="38.59 189.82 25.31 185.31 24.74 190.75 34.82 194.31"></polygon>
                <path
                    d="M110.79,145.49 C110.79,145.49 108.71,145.54 76.52,144.04 C76.52,144.04 81.33,184.28 83.95,214.41 L74.33,216.05 C74.33,216.05 51.33,151.54 51.58,141.29 C51.83,131.04 63.58,128.04 63.58,128.04 C63.58,128.04 86.51,141.29 110.79,145.49 Z"
                    fill="#08C641" fill-rule="nonzero" id="Path"></path>
                <path
                    d="M110.79,145.49 C110.79,145.49 108.71,145.54 76.52,144.04 C76.52,144.04 81.33,184.28 83.95,214.41 L74.33,216.05 C74.33,216.05 51.33,151.54 51.58,141.29 C51.83,131.04 63.58,128.04 63.58,128.04 C63.58,128.04 86.51,141.29 110.79,145.49 Z"
                    fill="#000000" fill-rule="nonzero" id="Path" opacity="0.2"></path>
                <polygon fill="#263238" fill-rule="nonzero" id="Path"
                    points="85.36 211.49 72.13 212.99 74.68 218.18 85.39 216.81"></polygon>
                <path
                    d="M92.25,110.8 L110.2,114.54 C110.2,114.54 100.28,109.06 92.84,106.9 C92.49,109 92.25,110.8 92.25,110.8 Z"
                    fill="#000000" fill-rule="nonzero" id="Path" opacity="0.2"></path>
                <polygon fill="#263238" fill-rule="nonzero" id="Path"
                    points="126.39 93.35 127.13 98.13 94.13 100.67 93.26 95.03"></polygon>
                <rect fill="#08C641" fill-rule="nonzero" height="8.35" id="Rectangle"
                    transform="translate(116.371299, 97.102239) rotate(174.130000) translate(-116.371299, -97.102239) "
                    width="1.64" x="115.551299" y="92.9272392"></rect>
                <rect fill="#FFFFFF" fill-rule="nonzero" height="5.49987312" id="Rectangle"
                    transform="translate(105.027900, 95.751200) rotate(176.566370) translate(-105.027900, -95.751200) "
                    width="7.25302029" x="101.40139" y="93.0012634"></rect>
                <rect fill="#08C641" fill-rule="nonzero" height="8.35" id="Rectangle"
                    transform="translate(96.124044, 97.984881) rotate(174.130000) translate(-96.124044, -97.984881) "
                    width="1.64" x="95.3040438" y="93.8098813"></rect>
                <path
                    d="M11.6,216.3 C12.5983014,215.838585 13.6727187,215.564049 14.77,215.49 L14.77,215.49 C14.77,215.49 18.57,213.25 22.34,204.57 L26.57,204.57 C28.0333822,204.583047 29.3322447,205.510235 29.82,206.89 C29.8895427,207.079485 29.930001,207.278405 29.94,207.48 C29.8982469,208.502433 29.7913636,209.521165 29.62,210.53 C28.9993198,213.911066 28.1710867,217.250715 27.14,220.53 L26.42,220.35 L27.73,214.03 C28.16,211.88 25.91,213.96 24.86,216.12 C23.81,218.28 22.21,220.46 17.54,219.39 C12.09,218.06 9.89,217.28 11.6,216.3 Z"
                    fill="#263238" fill-rule="nonzero" id="Path"></path>
                <path
                    d="M23.1,202.29 C23.1,202.29 17.82,213.35 14.77,215.49 C14.77,215.49 18.85,217.92 23.1,212.49 C28.6,205.49 29.94,207.44 29.94,207.44 C29.8308656,206.232152 29.609919,205.037031 29.28,203.87 C28.45,201.63 23.1,202.29 23.1,202.29 Z"
                    fill="#B97964" fill-rule="nonzero" id="Path"></path>
                <path
                    d="M69.82,242.65 C70.6792753,241.961553 71.6593456,241.439301 72.71,241.11 L72.71,241.11 C72.71,241.11 75.87,238.04 77.47,228.71 L81.58,227.71 C83.0065714,227.381988 84.4865873,227.976388 85.29,229.2 C85.4032294,229.368216 85.4877138,229.554082 85.54,229.75 C85.7399909,230.74032 85.8769327,231.742334 85.95,232.75 C86.1571814,236.166862 86.1571814,239.593138 85.95,243.01 L85.21,243.01 L84.98,236.57 C84.89,234.38 83.19,236.93 82.69,239.28 C82.19,241.63 81.14,244.12 76.35,244.19 C70.71,244.25 68.4,244 69.82,242.65 Z"
                    fill="#263238" fill-rule="nonzero" id="Path"></path>
                <path
                    d="M77.68,226.32 C77.68,226.32 75.16,238.32 72.68,241.11 C72.68,241.11 77.22,242.51 80.07,236.24 C83.74,228.13 85.51,229.72 85.51,229.72 C85.1182336,228.569179 84.6193819,227.457644 84.02,226.4 C82.72,224.41 77.68,226.32 77.68,226.32 Z"
                    fill="#B97964" fill-rule="nonzero" id="Path"></path>
                <path
                    d="M155.92,127.45 L160.67,138.11 C160.67,138.11 170.3,141.87 170.3,143.16 C170.3,144.45 166.21,146.65 165.81,146.65 C165.41,146.65 156.81,145.78 155.92,144.98 C155.03,144.18 155.27,140.48 155.27,140.48 L149.73,129.27 L155.92,127.45 Z"
                    fill="#B97964" fill-rule="nonzero" id="Path"></path>
                <path
                    d="M25.18,20.21 L15.8,13.51 C15.8,13.51 14.3,8.07 13.31,7.98 C12.32,7.89 3.22,4.33 1.84,4.33 C0.46,4.33 0.45,12.39 1.84,14.1 C3.23,15.81 9.53,18.65 11.12,18.41 L21.62,27.03 L25.18,20.21 Z"
                    fill="#B97964" fill-rule="nonzero" id="Path"></path>
                <path
                    d="M88.68,41.46 C88.68,41.46 55.92,35.82 49.68,31.91 C43.44,28 17.62,13.25 17.62,13.25 L14.72,23.52 C14.72,23.52 41.2,45.78 51.21,50 C61.22,54.22 88,63.68 88,63.68 L88.68,41.46 Z"
                    fill="#263238" fill-rule="nonzero" id="Path"></path>
                <path
                    d="M88.68,41.46 L88.46,50.11 L88,63.68 L80.13,60.82 C70.65,57.35 55.45,51.76 51.26,50 C41.26,45.78 14.8,23.52 14.8,23.52 L17.7,13.25 C17.7,13.25 43.5,28 49.71,31.91 C55.92,35.82 88.68,41.46 88.68,41.46 Z"
                    fill="#FFFFFF" fill-rule="nonzero" id="Path" opacity="0.1"></path>
                <path
                    d="M88.46,50.11 L88,63.68 L80.13,60.82 C81.7565713,55.8974671 84.4430229,51.3916016 88,47.62 L88.46,50.11 Z"
                    fill="#000000" fill-rule="nonzero" id="Path" opacity="0.2"></path>
                <path
                    d="M124.48,21.54 C124.48,21.54 125.95,35.37 120.82,38.77 C115.69,42.17 90.5,38.19 87.64,32.62 C84.78,27.05 95.54,11.95 95.54,11.95 L124.48,21.54 Z"
                    fill="#263238" fill-rule="nonzero" id="Path"></path>
                <path
                    d="M88.68,41.46 C94.859624,43.1749632 101.275013,43.8840325 107.68,43.56 C118.27,43.02 130.93,48.16 130.93,48.16 L126.38,93.36 L93.26,95 C93.26,95 82.13,57.29 88.68,41.46 Z"
                    fill="#08C641" fill-rule="nonzero" id="Path"></path>
                <path
                    d="M88.68,41.46 C94.859624,43.1749632 101.275013,43.8840325 107.68,43.56 C118.27,43.02 130.93,48.16 130.93,48.16 L126.38,93.36 L93.26,95 C93.26,95 82.13,57.29 88.68,41.46 Z"
                    fill="#FFFFFF" fill-rule="nonzero" id="Path" opacity="0.6"></path>
                <path
                    d="M94,15.94 C94,15.94 95.86,-6.06 114.21,1.94 C137.21,11.94 118.93,38.68 107.68,33.19 C96.43,27.7 94,15.94 94,15.94 Z"
                    fill="#263238" fill-rule="nonzero" id="Path"></path>
                <path
                    d="M99.15,44.79 L99.67,57.19 L103.79,51.35 C103.79,51.35 102.32,65.07 103.18,72.54 C103.18,72.54 103.96,59.15 105.83,51.35 L110.2,57.19 L116.47,44.86 C116.47,44.86 106.32,41.22 99.15,44.79 Z"
                    fill="#000000" fill-rule="nonzero" id="Path" opacity="0.2"></path>
                <path
                    d="M104.83,47.1 L114.31,44.42 C108.47,40.42 111.42,31.42 111.42,31.42 L102.02,34.72 C102.447815,36.0279185 102.781993,37.3646294 103.02,38.72 C104.02,44.58 101.35,45.05 101.35,45.05 L104.83,47.1 Z"
                    fill="#B97964" fill-rule="nonzero" id="Path"></path>
                <path
                    d="M102,34.7 C102.427815,36.0079185 102.761993,37.3446294 103,38.7 C107.49,36.89 111.39,31.38 111.39,31.38 L102,34.7 Z"
                    fill="#000000" fill-rule="nonzero" id="Path" opacity="0.2"></path>
                <path
                    d="M108.15,6.58 C99.83,4.74 96.15,8.58 93.66,17.04 C90.52,27.59 91.21,35.73 102.13,35.7500029 C117,35.76 122,9.64 108.15,6.58 Z"
                    fill="#B97964" fill-rule="nonzero" id="Path"></path>
                <path
                    d="M99.14,17.77 C98.1948271,18.8620958 97.124091,19.8388488 95.95,20.68 C96.2979585,21.4922339 97.0688818,22.043444 97.95,22.11 L99.14,17.77 Z"
                    fill="#A24E3F" fill-rule="nonzero" id="Path"></path>
                <path
                    d="M104.38,18.21 C104.22,18.89 104.45,19.53 104.9,19.65 C105.35,19.77 105.9,19.3 106.03,18.65 C106.16,18 105.96,17.32 105.51,17.21 C105.06,17.1 104.55,17.53 104.38,18.21 Z"
                    fill="#263238" fill-rule="nonzero" id="Path"></path>
                <path d="M105.69,17.26 L104.35,16.32 C104.35,16.32 104.78,17.74 105.69,17.26 Z"
                    fill="#263238" fill-rule="nonzero" id="Path"></path>
                <path
                    d="M96,16 C95.84,16.68 96.07,17.32 96.52,17.43 C96.97,17.54 97.52,17.09 97.65,16.43 C97.78,15.77 97.58,15.1 97.13,14.99 C96.68,14.88 96.13,15.31 96,16 Z"
                    fill="#263238" fill-rule="nonzero" id="Path"></path>
                <path d="M97.27,15 L95.93,14.06 C95.93,14.06 96.36,15.52 97.27,15 Z" fill="#263238"
                    fill-rule="nonzero" id="Path"></path>
                <path d="M105.74,12.48 C107.108698,12.6151708 108.337984,13.3756295 109.07,14.54"
                    id="Path" stroke="#263238" stroke-linecap="round" stroke-linejoin="round"
                    stroke-width="0.72468"></path>
                <path d="M99.77,10.79 C98.6735488,10.2621774 97.3964512,10.2621774 96.3,10.79"
                    id="Path" stroke="#263238" stroke-linecap="round" stroke-linejoin="round"
                    stroke-width="0.72468"></path>
                <path
                    d="M114.14,22.62 C114.14,22.62 111.77,14.92 113.52,9.77 C113.52,9.77 98.52,-0.62 94,15.94 C94,15.94 95.68,0.72 110.06,3.56 C124.44,6.4 119.75,27.31 110.98,31.91 C111,31.91 115.6,27.43 114.14,22.62 Z"
                    fill="#263238" fill-rule="nonzero" id="Path"></path>
                <path
                    d="M112.4,24.07 C113.009318,22.1053635 115.094085,21.0048212 117.06,21.61 C119.58,22.46 119.64,28.03 112.94,27.88 C112,27.86 111.66,26.84 112.4,24.07 Z"
                    fill="#B97964" fill-rule="nonzero" id="Path"></path>
                <path
                    d="M96.45,25.27 C96.6656513,26.288636 96.8093396,27.3211873 96.88,28.36 L97.43,28.36 C99.91,28.58 101.14,27.85 101.74,26.99 C102.022694,26.5605158 102.200791,26.0707515 102.26,25.56 C102.296601,25.2678084 102.296601,24.9721916 102.26,24.68 C100.656426,25.2396234 98.9504499,25.4443405 97.26,25.28 C96.78,25.31 96.45,25.27 96.45,25.27 Z"
                    fill="#263238" fill-rule="nonzero" id="Path"></path>
                <path
                    d="M97.3,25.33 L97.45,26.24 C99.79,26.43 101.45,26.24 102.26,25.61 C102.296601,25.3178084 102.296601,25.0221916 102.26,24.73 C100.668938,25.283867 98.9772366,25.4885082 97.3,25.33 L97.3,25.33 Z"
                    fill="#FFFFFF" fill-rule="nonzero" id="Path"></path>
                <path
                    d="M97.43,28.41 C99.91,28.63 101.14,27.9 101.74,27.04 C100.792426,26.9788498 99.8414559,27.0837612 98.93,27.35 C98.3314736,27.5378175 97.8068793,27.9085309 97.43,28.41 L97.43,28.41 Z"
                    fill="#DE5753" fill-rule="nonzero" id="Path"></path>
                <path
                    d="M108.18,7.24 C108.18,7.24 108.51,21.68 117.18,23.41 C125.85,25.14 116.37,4.86 116.37,4.86 C116.37,4.86 103.47,-3.56 94.88,2.37 C86.29,8.3 94.01,15.94 94.01,15.94 C94.01,15.94 95.82,5.22 108.18,7.24 Z"
                    fill="#263238" fill-rule="nonzero" id="Path"></path>
                <path d="M108.48,6.29 C108.48,6.29 105.4,15.41 111.48,20.21" id="Path"
                    stroke="#263238" stroke-linecap="round" stroke-linejoin="round"
                    stroke-width="0.5"></path>
                <path
                    d="M94.52,12.7299855 C93.1156073,12.7299855 91.8496913,13.5765303 91.3131924,14.8744085 C90.7766936,16.1722868 91.0754095,17.665577 92.0698971,18.6571986 C93.0643846,19.6488202 94.5585307,19.9432253 95.8548552,19.402983 C97.1511798,18.8627407 97.9940472,17.5943869 97.9900145,16.19 C97.9900145,15.2706157 97.6240968,14.3890323 96.9730565,13.7398682 C96.3220162,13.0907041 95.4393805,12.7273428 94.52,12.7299855 Z"
                    id="Path"></path>
                <path
                    d="M103.51,15.2 C101.599095,15.2 100.05,16.7490948 100.05,18.66 C100.05,20.5709052 101.599095,22.12 103.51,22.12 C105.420905,22.12 106.97,20.5709052 106.97,18.66 C106.964508,16.7513745 105.418626,15.2054925 103.51,15.2 L103.51,15.2 Z"
                    id="Path"></path>
                <path
                    d="M115.37,21.44 L107.37,19.44 C107.430064,19.1708081 107.460247,18.8958114 107.46,18.62 C107.353496,16.7570921 105.973109,15.2152972 104.133264,14.90427 C102.293418,14.5932428 100.482938,15.5956193 99.77,17.32 C99.57712,17.0067055 99.2613873,16.7889588 98.9,16.72 C98.7342191,16.6987367 98.5657526,16.7193652 98.41,16.78 C98.4541262,16.5728342 98.4775745,16.3617992 98.48,16.15 C98.5128712,14.0727442 96.9500355,12.3161046 94.8830678,12.1070197 C92.8161,11.8979349 90.9331362,13.3060135 90.549347,15.347772 C90.1655578,17.3895305 91.4087145,19.3852257 93.4105247,19.9409488 C95.4123349,20.4966718 97.5063548,19.427411 98.23,17.48 C98.3861521,17.3091774 98.6086303,17.2143506 98.84,17.22 C99.1,17.22 99.36,17.52 99.6,17.99 C99.5564438,18.1972575 99.5330017,18.4082365 99.53,18.62 C99.6365039,20.4829079 101.016891,22.0247028 102.856736,22.33573 C104.696582,22.6467572 106.507062,21.6443807 107.22,19.92 L115.22,21.92 L115.28,21.92 C115.369316,21.930718 115.457566,21.892972 115.511506,21.8209808 C115.565447,21.7489895 115.576883,21.65369 115.541506,21.5709808 C115.50613,21.4882715 115.429316,21.430718 115.34,21.42 L115.37,21.44 Z M94.52,19.66 C92.6035719,19.66 91.05,18.1064281 91.05,16.19 C91.05,14.2735719 92.6035719,12.72 94.52,12.72 C96.4364281,12.72 97.99,14.2735719 97.99,16.19 C97.99,18.1064281 96.4364281,19.66 94.52,19.66 L94.52,19.66 Z M103.52,22.12 C101.609095,22.12 100.06,20.5709052 100.06,18.66 C100.06,16.7490948 101.609095,15.2 103.52,15.2 C105.430905,15.2 106.98,16.7490948 106.98,18.66 C106.974488,20.5725217 105.42253,22.12 103.51,22.12 L103.52,22.12 Z"
                    fill="#263238" fill-rule="nonzero" id="Shape"></path>
                <g fill="#FFFFFF" fill-rule="nonzero" id="Group" opacity="0.8"
                    transform="translate(90.000000, 12.000000)">
                    <path
                        d="M25.37,9.44 L17.37,7.44 C17.4300641,7.17080812 17.4602467,6.89581135 17.46,6.62 C17.3534961,4.75709211 15.9731092,3.21529717 14.1332639,2.90426999 C12.2934185,2.59324282 10.4829376,3.59561928 9.77,5.32 C9.57712005,5.00670551 9.26138732,4.78895881 8.9,4.72 C8.73421907,4.69873667 8.56575259,4.71936522 8.41,4.78 C8.45412618,4.57283425 8.47757452,4.36179916 8.48,4.15 C8.51287115,2.07274423 6.95003549,0.316104598 4.88306777,0.107019748 C2.81610004,-0.102065103 0.933136192,1.30601346 0.549346995,3.34777199 C0.165557797,5.38953052 1.40871455,7.38522574 3.41052472,7.94094876 C5.41233489,8.49667179 7.50635483,7.42741103 8.23,5.48 C8.38615211,5.30917741 8.60863033,5.21435063 8.84,5.22 C9.1,5.22 9.36,5.52 9.6,5.99 C9.55644378,6.19725748 9.53300168,6.40823646 9.53,6.62 C9.6365039,8.48290789 11.0168908,10.0247028 12.8567361,10.33573 C14.6965815,10.6467572 16.5070624,9.64438072 17.22,7.92 L25.22,9.92 L25.28,9.92 C25.3693164,9.93071797 25.4575661,9.89297205 25.5115064,9.82098076 C25.5654466,9.74898948 25.5768825,9.65369002 25.5415064,9.57098076 C25.5061302,9.48827151 25.4293164,9.43071797 25.34,9.42 L25.37,9.44 Z M4.52,7.66 C2.60357192,7.66 1.05,6.10642808 1.05,4.19 C1.05,2.27357192 2.60357192,0.72 4.52,0.72 C6.43642808,0.72 7.99,2.27357192 7.99,4.19 C7.99,6.10642808 6.43642808,7.66 4.52,7.66 L4.52,7.66 Z M13.52,10.12 C11.6090948,10.12 10.06,8.57090523 10.06,6.66 C10.06,4.74909477 11.6090948,3.2 13.52,3.2 C15.4309052,3.2 16.98,4.74909477 16.98,6.66 C16.9744884,8.57252168 15.4225296,10.12 13.51,10.12 L13.52,10.12 Z"
                        id="Shape"></path>
                </g>
                <polygon fill="#08C641" fill-rule="nonzero" id="Path"
                    points="111.77 40.98 105.83 46.81 108.2 53.96 116.47 44.86"></polygon>
                <polygon fill="#08C641" fill-rule="nonzero" id="Path"
                    points="103.18 42.2 104.14 46.69 101.06 53.04 99.14 44.79"></polygon>
                <path
                    d="M97.43,43.19 C97.43,43.19 95.1,53.8 103.36,56.19 C111.62,58.58 119.25,44.09 119.25,44.09 C119.25,44.09 128.25,46.2 131.92,48.57 C131.92,48.57 129.83,84.21 126.39,93.36 L93.44,96.17 C93.44,96.17 78.01,58.62 88.68,41.46 L97.43,43.19 Z"
                    fill="#263238" fill-rule="nonzero" id="Path"></path>
                <path
                    d="M131.92,48.57 C131.92,48.57 131.26,59.79 130.07,71.25 C129.512973,77.4043604 128.638475,83.5258465 127.45,89.59 C127.180791,90.8688146 126.826673,92.1282708 126.39,93.36 L93.44,96.17 C93.44,96.17 78.01,58.62 88.68,41.46 L97.43,43.19 C97.43,43.19 95.1,53.8 103.36,56.19 C111.62,58.58 119.25,44.09 119.25,44.09 C119.25,44.09 128.23,46.2 131.92,48.57 Z"
                    fill="#FFFFFF" fill-rule="nonzero" id="Path" opacity="0.1"></path>
                <path
                    d="M130.07,71.25 C129.512973,77.4043604 128.638475,83.5258465 127.45,89.59 C123.69,79.59 127.38,67.69 127.38,67.69 L130.07,71.25 Z"
                    fill="#000000" fill-rule="nonzero" id="Path" opacity="0.2"></path>
                <path
                    d="M131.92,48.57 C140.63,53.57 146.82,91.25 147.79,94.17 C148.4,96 159.62,131.67 159.62,131.67 L150.62,135.84 C150.62,135.84 134.53,106.84 131.89,99.21 C130.235458,94.3051327 128.915758,89.2936139 127.94,84.21 C127.94,84.21 125.62,68.73 126.94,62.21 C128.062741,57.4847877 129.734087,52.9070451 131.92,48.57 L131.92,48.57 Z"
                    fill="#263238" fill-rule="nonzero" id="Path"></path>
                <path
                    d="M131.92,48.57 C140.63,53.57 146.82,91.25 147.79,94.17 C148.4,96 159.62,131.67 159.62,131.67 L150.62,135.84 C150.62,135.84 134.53,106.84 131.89,99.21 C130.235458,94.3051327 128.915758,89.2936139 127.94,84.21 C127.94,84.21 125.62,68.73 126.94,62.21 C128.062741,57.4847877 129.734087,52.9070451 131.92,48.57 L131.92,48.57 Z"
                    fill="#FFFFFF" fill-rule="nonzero" id="Path" opacity="0.1"></path>
                <polygon fill="#FFFFFF" fill-rule="nonzero" id="Path" opacity="0.6"
                    points="111.77 40.98 105.83 46.81 108.2 53.96 116.47 44.86"></polygon>
                <polygon fill="#FFFFFF" fill-rule="nonzero" id="Path" opacity="0.6"
                    points="103.18 42.2 104.14 46.69 101.06 53.04 99.14 44.79"></polygon>
            </g>
        </g>
    </g>
</svg>