<svg height="24" viewBox="0 0 24 24" width="24" xmlns="http://www.w3.org/2000/svg">
    <g id="check_circle" transform="translate(-508 -198)">
        <path
            d="M520,218a8,8,0,1,1,8-8A8.009,8.009,0,0,1,520,218Zm-4.59-8.41h0L514,211l4,4,8-8-1.409-1.42L518,212.17l-2.589-2.579Z"
            fill="#d0d0d0" id="Icon" />
        <path
            d="M520,220a10,10,0,1,1,10-10A10.011,10.011,0,0,1,520,220Zm0-18a8,8,0,1,0,8,8A8.009,8.009,0,0,0,520,202Zm-2,13h0l-4-4,1.41-1.409L518,212.17l6.591-6.59L526,207l-8,8Z"
            fill="#4CAF50" id="Icon-2" />
    </g>
</svg>