<svg height="24" viewBox="0 0 24 24" width="24" xmlns="http://www.w3.org/2000/svg">
    <g id="directions" transform="translate(-678 -3122)">
        <path
            d="M690.01,3143h0l-9-9,8.99-9,9,9-8.989,9ZM687,3132a1,1,0,0,0-1,1v4h2v-3h4v2.5l3.5-3.5-3.5-3.5v2.5Z"
            fill="#d0d0d0" id="Icon" />
        <path
            d="M690,3144.98a1.977,1.977,0,0,1-1.41-.581l-9-9a1.991,1.991,0,0,1,0-2.82l9-9a2.051,2.051,0,0,1,2.83,0l9,9.01a2,2,0,0,1,.572,1.421,1.957,1.957,0,0,1-.591,1.4l-8.99,8.989A1.976,1.976,0,0,1,690,3144.98Zm.01-19.991h0l-9,9,9,9,9-9-9-9ZM688,3137h-2v-4a1,1,0,0,1,1-1h5v-2.5l3.5,3.5-3.5,3.5V3134h-4v3Z"
            data-name="Icon" fill="#1d1d1d" id="Icon-2" />
    </g>
</svg>
