<?xml version="1.0" encoding="UTF-8"?>
<svg height="63px" version="1.1" viewBox="0 0 63 63" width="63px"
    xmlns="http://www.w3.org/2000/svg">
    <title>Shape</title>
    <desc>Created with Sketch.</desc>
    <g id="Page-1" stroke="none" stroke-width="1" fill="none" fill-rule="evenodd">
        <path
            d="M63,31.5 C63,29.86 61.71,28.5 60.5,27.2 C59.5872781,26.4067936 58.8688273,25.4146473 58.4,24.3 C58.2434512,23.0578367 58.3699415,21.7963518 58.77,20.61 C59.18,18.89 59.61,17.1 58.77,15.75 C57.93,14.4 56.21,13.84 54.5,13.34 C53.290925,13.0980191 52.152411,12.5851749 51.17,11.84 C50.4198892,10.8555845 49.9035298,9.71343859 49.66,8.5 C49.16,6.78 48.66,5.01 47.25,4.21 C45.84,3.41 44.12,3.85 42.39,4.26 C41.2036482,4.66005847 39.9421633,4.78654883 38.7,4.63 C37.5823597,4.15252488 36.5899544,3.42362029 35.8,2.5 C34.5,1.29 33.14,0 31.5,0 C29.86,0 28.5,1.29 27.2,2.5 C26.4067936,3.41272193 25.4146473,4.1311727 24.3,4.6 C23.0578367,4.75654883 21.7963518,4.63005847 20.61,4.23 C18.89,3.82 17.1,3.39 15.75,4.18 C14.4,4.97 13.84,6.79 13.34,8.5 C13.0980191,9.70907499 12.5851749,10.847589 11.84,11.83 C10.8555845,12.5801108 9.71343859,13.0964702 8.5,13.34 C6.78,13.84 5.01,14.34 4.21,15.75 C3.41,17.16 3.85,18.89 4.26,20.61 C4.66005847,21.7963518 4.78654883,23.0578367 4.63,24.3 C4.15252488,25.4176403 3.42362029,26.4100456 2.5,27.2 C1.29,28.5 0,29.86 0,31.5 C0,33.14 1.29,34.5 2.54,35.8 C3.45272193,36.5932064 4.1711727,37.5853527 4.64,38.7 C4.79654883,39.9421633 4.67005847,41.2036482 4.27,42.39 C3.86,44.11 3.43,45.9 4.22,47.25 C5.01,48.6 6.79,49.16 8.51,49.66 C9.71907499,49.9019809 10.857589,50.4148251 11.84,51.16 C12.5865441,52.1453378 13.0994542,53.2874175 13.34,54.5 C13.84,56.22 14.34,57.99 15.75,58.79 C17.16,59.59 18.88,59.15 20.61,58.79 C21.7963518,58.3899415 23.0578367,58.2634512 24.3,58.42 C25.4126682,58.8830538 26.404644,59.5945398 27.2,60.5 C28.5,61.71 29.86,63 31.5,63 C33.14,63 34.5,61.71 35.8,60.46 C36.5932064,59.5472781 37.5853527,58.8288273 38.7,58.36 C39.9421633,58.2034512 41.2036482,58.3299415 42.39,58.73 C44.11,59.14 45.9,59.57 47.25,58.73 C48.6,57.89 49.16,56.16 49.66,54.44 C49.9019809,53.230925 50.4148251,52.092411 51.16,51.11 C52.1499091,50.3812688 53.2916643,49.8855967 54.5,49.66 C56.22,49.16 57.99,48.66 58.79,47.25 C59.59,45.84 59.15,44.11 58.79,42.39 C58.3899415,41.2036482 58.2634512,39.9421633 58.42,38.7 C58.8830538,37.5873318 59.5945398,36.595356 60.5,35.8 C61.71,34.5 63,33.14 63,31.5 Z"
            id="Shape" fill="#FF5252" fill-rule="nonzero"></path>
    </g>
</svg>