<?xml version="1.0" encoding="UTF-8"?>
<svg height="393px" version="1.1" viewBox="0 0 459 393" width="459px"
    xmlns="http://www.w3.org/2000/svg">
    <!-- Generator: Sketch 64 (93537) - https://sketch.com -->
    <title>Empty-amico</title>
    <desc>Created with Sketch.</desc>
    <g fill="none" fill-rule="evenodd" id="Page-1" stroke="none" stroke-width="1">
        <g fill-rule="nonzero" id="Empty-amico">
            <g id="freepik--Shelf--inject-162" transform="translate(11.000000, 43.000000)">
                <g id="freepik--shelf--inject-162">
                    <g id="Path" transform="translate(0.000000, 9.000000)">
                        <path
                            d="M136.52,27.63 L136.52,22.11 L136.52,22.11 C136.435671,21.4613362 136.018532,20.903886 135.42,20.64 L102.09,1.52 C100.479353,0.710372269 98.5806466,0.710372269 96.97,1.52 L1.18,56.52 C0.58146824,56.783886 0.164328618,57.3413362 0.08,57.99 L0.08,57.99 L0.08,63.51 L0.08,63.51 C0.162427193,64.1594345 0.580192473,64.7177208 1.18,64.98 L34.5,84.07 C36.1106466,84.8796277 38.0093534,84.8796277 39.62,84.07 L135.41,29.07 C136.009808,28.8077208 136.427573,28.2494345 136.51,27.6 L136.52,27.63 Z"
                            fill="#F0F0F0"></path>
                        <path
                            d="M1.18,59.43 L34.5,78.55 C36.1083418,79.3692869 38.0116582,79.3692869 39.62,78.55 L135.41,23.55 C136.82,22.74 136.82,21.43 135.41,20.61 L102.09,1.52 C100.479353,0.710372269 98.5806466,0.710372269 96.97,1.52 L1.18,56.52 C-0.23,57.31 -0.23,58.62 1.18,59.43 Z"
                            fill="#FAFAFA"></path>
                        <path
                            d="M37.06,79.17 L37.06,84.68 C36.1691873,84.69299 35.2892326,84.4833133 34.5,84.07 L1.18,65 C0.580192473,64.7377208 0.162427193,64.1794345 0.08,63.53 L0.08,63.53 L0.08,58 L0.08,58 C0.0995936041,57.7764306 0.171533266,57.5606117 0.29,57.37 C-0.1,58.08 0.19,58.9 1.18,59.47 L34.5,78.56 C35.2870735,78.9790517 36.1685266,79.1890855 37.06,79.17 Z"
                            fill="#E0E0E0"></path>
                    </g>
                    <g id="freepik--Book--inject-162" transform="translate(54.000000, 4.000000)">
                        <polygon fill="#E0E0E0" id="Path"
                            points="0.96 37.53 29.19 53.62 75.82 26.86 47.6 10.76"></polygon>
                        <path
                            d="M29.51,52.4 L2.28,36.77 C2.98760836,34.4613642 2.93502621,31.9864977 2.13,29.71 L29.19,45.17 C29.19,45.17 29.71,46.88 29.51,52.4 Z"
                            fill="#FFFFFF" id="Path"></path>
                        <path
                            d="M27.8,43 C29.3414028,43.9959536 30.3148166,45.6678475 30.42,47.5 L30.42,52.76 C30.42,54.42 29.24,55.09 27.8,54.27 L1,38.83 L1,37.53 L27.48,52.63 C28.35,53.13 29.05,52.72 29.05,51.73 L29.05,46.85 C28.9889419,45.7506007 28.4052885,44.7468654 27.48,44.15 L1,29 L1,27.52 L27.8,43 Z"
                            fill="#EBEBEB" id="Path"></path>
                        <path
                            d="M1,27.57 L47.6,0.8 L74.43,16.2 C75.9753659,17.1968386 76.949546,18.873767 77.05,20.71 L77.05,26 C77.1223381,26.6590753 76.8264929,27.3045556 76.28,27.68 L29.65,54.45 C30.1858951,54.0664979 30.4757842,53.4256903 30.41,52.77 L30.41,47.5 C30.3112567,45.6659158 29.336262,43.9913066 27.79,43 L1,27.57 Z"
                            fill="#FAFAFA" id="Path"></path>
                        <path
                            d="M29.65,44.91 C30.1253762,45.6816489 30.3908145,46.5641453 30.42,47.47 L30.42,52.74 C30.4857842,53.3956903 30.1958951,54.0364979 29.66,54.42 L76.29,27.65 C76.8364929,27.2745556 77.1323381,26.6290753 77.06,25.97 L77.06,20.71 C77.0308145,19.8041453 76.7653762,18.9216489 76.29,18.15 L29.65,44.91 Z"
                            fill="#F0F0F0" id="Path"></path>
                    </g>
                    <g id="freepik--book--inject-162" transform="translate(21.000000, 0.000000)">
                        <polygon fill="#EBEBEB" id="Path"
                            points="5.26 1.48 4.99 5.04 36.51 21.95 37.22 19.87"></polygon>
                        <polygon fill="#FFFFFF" id="Path"
                            points="36.8 20.7 6.27 3.08 0.96 6.14 32.09 24.35"></polygon>
                        <path
                            d="M26.36,22.46 L23.36,57.84 C23.3899477,58.6504957 23.8112132,59.3960984 24.49,59.84 L42.2,70.09 C42.4825978,70.246248 42.7974221,70.3352201 43.12,70.35 L32.12,25.54 C31.7991426,25.5224292 31.485623,25.4372336 31.2,25.29 L29.93,24.55 L26.36,22.46 Z"
                            fill="#E0E0E0" id="Path"></path>
                        <path
                            d="M33.44,25.25 L36.6,22.54 L38.91,20.54 C39.15,20.16 39.43,19.88 39.28,19.54 L50.14,64.02 L50.14,64.02 C50.29,64.33 50.33,65.02 49.9,65.28 L44.43,69.96 C44.015979,70.1793026 43.5458567,70.2698447 43.08,70.22 L32.08,25.41 C32.5392677,25.4892916 33.0116742,25.4337144 33.44,25.25 L33.44,25.25 Z"
                            fill="#F0F0F0" id="Path"></path>
                        <path
                            d="M38.92,19.25 C39.54,19.61 39.39,20.01 38.92,20.55 L33.44,25.24 C32.7320758,25.6099094 31.8879242,25.6099094 31.18,25.24 L26.36,22.46 C25.73,22.1 25.62,21.58 26.11,21.3 C26.7625173,21.0353236 27.5007202,21.0869978 28.11,21.44 L31.91,23.64 C32.1457455,23.7593921 32.4242545,23.7593921 32.66,23.64 L36.66,20.16 C36.87,20.04 36.87,19.85 36.66,19.73 L5.26,1.48 L6.76,0.61 L38.92,19.25 Z"
                            fill="#FAFAFA" id="Path"></path>
                    </g>
                    <g id="freepik--book--inject-162" transform="translate(7.000000, 2.000000)">
                        <polygon fill="#EBEBEB" id="Path"
                            points="10.16 1.19 40.19 18.53 40.19 75.67 10.16 58.32"></polygon>
                        <path
                            d="M39.22,19.48 L10.16,2.8 C8.38270797,4.68431889 6.05508769,5.95838473 3.51,6.44 L32.33,23.05 C32.33,23.05 34.19,22.61 39.22,19.48 Z"
                            fill="#FFFFFF" id="Path"></path>
                        <path
                            d="M29.54,23 C31.2960244,23.8795332 33.3639756,23.8795332 35.12,23 L40,20.14 C41.54,19.25 41.54,17.82 40,16.93 L11.37,0.49 L10.16,1.19 L38.33,17.46 C38.7566667,17.5844444 39.05,17.9755556 39.05,18.42 C39.05,18.8644444 38.7566667,19.2555556 38.33,19.38 L33.78,22 C32.7261398,22.5296562 31.4838602,22.5296562 30.43,22 L2.27,5.72 L0.89,6.51 L29.54,23 Z"
                            fill="#FAFAFA" id="Path"></path>
                        <path
                            d="M0.9,6.51 L0.9,63.64 L29.54,80.08 C31.2960244,80.9595332 33.3639756,80.9595332 35.12,80.08 L40.02,77.27 C40.6687555,76.9838235 41.1096997,76.3665017 41.17,75.66 L41.17,18.53 C41.1067313,19.2389768 40.6564305,19.8547728 40,20.13 L35.12,23 C33.3639756,23.8795332 31.2960244,23.8795332 29.54,23 L0.9,6.51 Z"
                            fill="#EBEBEB" id="Path"></path>
                        <path
                            d="M32.33,23.61 C33.300809,23.6291012 34.2606446,23.4020433 35.12,22.95 L40,20.13 C40.6486394,19.8490265 41.0904272,19.2343651 41.15,18.53 L41.15,75.66 C41.0896997,76.3665017 40.6487555,76.9838235 40,77.27 L35.1,80.08 C34.2406446,80.5320433 33.280809,80.7591012 32.31,80.74 L32.33,23.61 Z"
                            fill="#F0F0F0" id="Path"></path>
                    </g>
                </g>
            </g>
            <g fill="#1EC808" id="freepik--Plants--inject-162"
                transform="translate(288.000000, 190.000000)">
                <g id="freepik--plants--inject-162">
                    <path
                        d="M3.57,86 C3.42,83.47 3.08,80.44 2.67,76.92 C1.14,63.56 -0.95,45.26 4.59,27.73 C7.96,17.06 16.08,4.41 28.76,0.9 C31.58,0.12 38.4,-1.03 41.02,5.02 C41.3882284,5.89409566 41.607916,6.82354293 41.67,7.77 C41.94,11.61 40.21,15 38.29,18.09 C36.08,21.68 33.52,25.09 31.04,28.41 C28.7,31.55 26.27,34.79 24.15,38.15 C21.8603153,41.8007671 19.854416,45.6220053 18.15,49.58 L17.34,49.23 C19.0412243,45.2320079 21.0471283,41.3706428 23.34,37.68 C25.47,34.29 27.91,31.03 30.27,27.88 C32.73,24.58 35.27,21.18 37.47,17.63 C39.31,14.63 40.97,11.42 40.72,7.83 C40.6657015,6.98331922 40.4696433,6.15176209 40.14,5.37 C37.8,-0.04 31.52,1.04 28.93,1.75 C16.59,5.17 8.66,17.55 5.36,27.99 C-0.12,45.35 1.96,63.54 3.48,76.82 C3.88,80.35 4.23,83.4 4.38,85.95 L3.57,86 Z"
                        id="Path"></path>
                    <path
                        d="M4.47,100.54 C4.40366728,100.549437 4.33633272,100.549437 4.27,100.54 C3.88066249,100.464231 3.55039128,100.208178 3.38,99.85 C3.20539911,99.3549439 3.20539911,98.8150561 3.38,98.32 C3.52093303,97.3618212 3.52093303,96.3881788 3.38,95.43 C3.38,94.89 3.29,94.32 3.29,93.81 L3.29,87.6 C4.08860925,76.4447188 7.35748092,65.6065476 12.86,55.87 C17.74,47.38 23.14,41.73 29.86,38.07 C33.4826696,36.0794921 37.4551953,34.8062467 41.56,34.32 C45.1837496,33.919702 48.826798,34.8821512 51.78,37.02 C54.83,39.43 56.2,43.56 55.05,46.83 C54.24,49.12 52.39,50.83 50.5,52.38 C47.13,55.13 43.45,57.59 39.9,59.97 C36.95,61.97 33.9,63.97 31.05,66.17 C22.3306639,72.8999293 15.0159367,81.2746634 9.52,90.82 C8.62,92.37 7.77,93.97 6.99,95.57 L6.67,96.2 C6.35801326,96.7713119 6.08408426,97.3625977 5.85,97.97 C5.8,98.1 5.75,98.37 5.68,98.68 C5.62922644,99.250228 5.44787793,99.8011169 5.15,100.29 C4.96255009,100.4554 4.71994727,100.544593 4.47,100.54 Z M43,35.15 C42.55,35.15 42.1,35.15 41.64,35.21 C37.6561782,35.6747245 33.8010419,36.9110854 30.29,38.85 C23.73,42.42 18.44,47.97 13.64,56.31 C8.2112778,65.9257395 4.98371692,76.6262139 4.19,87.64 L4.19,93.79 C4.19,94.27 4.19,94.79 4.28,95.34 C4.44080339,96.3871962 4.44080339,97.4528038 4.28,98.5 C4.17245014,98.8246581 4.17245014,99.1753419 4.28,99.5 C4.33194836,99.6025663 4.42754025,99.6760985 4.54,99.7 C4.71844277,99.330436 4.83982212,98.9359532 4.9,98.53 C4.94771642,98.2523897 5.01454197,97.978405 5.1,97.71 C5.34382902,97.0678438 5.63116215,96.4430613 5.96,95.84 L6.27,95.22 C7.07,93.6 7.93,91.99 8.83,90.42 C10.6993902,87.1842436 12.7736155,84.0712356 15.04,81.1 C19.5202127,75.2465071 24.7480363,70.0052358 30.59,65.51 C33.47,63.31 36.53,61.26 39.49,59.28 C43.03,56.91 46.68,54.46 50.03,51.74 C51.81,50.29 53.56,48.66 54.3,46.58 C55.3,43.65 54.07,39.94 51.3,37.75 C48.9083373,35.9669678 45.9814894,35.0501239 43,35.15 Z"
                        id="Shape"></path>
                    <path
                        d="M3.72,92 L3.61,92 C3.49614996,91.9740681 3.39774118,91.9029511 3.33738845,91.8029919 C3.27703572,91.7030327 3.25992918,91.5828275 3.29,91.47 C11.54,58.57 34.35,43.89 46.53,40.4 C46.7617411,40.3355972 47.0022523,40.4692145 47.07,40.7 C47.1349924,40.9342724 47.0021549,41.1778079 46.77,41.25 C34.77,44.68 12.3,59.17 4.15,91.68 C4.09275543,91.8697067 3.91815508,92 3.72,92 L3.72,92 Z"
                        id="Path"></path>
                    <path
                        d="M3.67,65.0005675 L3.67,65.0005675 C3.42520676,64.9787687 3.2427002,64.7651025 3.26,64.52 C5.89,28.99 29.13,9.52 31.77,7.43 C31.8602846,7.35405479 31.9778074,7.31854107 32.0950413,7.33177715 C32.2122752,7.34501324 32.3189213,7.40583635 32.39,7.5 C32.4632434,7.59137765 32.4970374,7.70818367 32.4838989,7.8245531 C32.4707604,7.94092254 32.4117735,8.0472533 32.32,8.12 C29.71,10.19 6.74,29.43 4.15,64.59 C4.12381517,64.8322113 3.91332672,65.0120036 3.67,65.0005675 Z"
                        id="Path"></path>
                </g>
            </g>
            <g id="freepik--Bookshelf--inject-162" transform="translate(139.000000, 93.000000)">
                <g id="freepik--bookshelf--inject-162">
                    <path
                        d="M149.9,38.09 L94.29,6 C93.4146553,5.37156255 92.26951,5.26086518 91.29,5.71 L87.29,8.02 C86.394332,8.64359116 85.9079703,9.7043958 86.02,10.79 L86.02,163 C86.1856586,166.007849 87.7754195,168.756501 90.3,170.4 L145.9,202.45 C146.773474,203.081726 147.918728,203.196251 148.9,202.75 L152.9,200.43 C153.784766,199.803449 154.26265,198.74828 154.15,197.67 L154.15,45.49 C153.992725,42.4872411 152.414359,39.7390282 149.9,38.09 L149.9,38.09 Z"
                        fill="#263238" id="Path"></path>
                    <path
                        d="M98,165.61 L94,167.92 L94,180.58 C94.0410159,181.332081 94.438553,182.019412 95.07,182.43 L96.94,183.51 C97.6127272,183.850386 98.4072728,183.850386 99.08,183.51 L100.95,182.43 C101.614337,182.000848 102.128216,181.375104 102.42,180.64 L106.03,170.24 L98,165.61 Z"
                        fill="#263238" id="Path"></path>
                    <path
                        d="M94,180.58 C94.0410159,181.332081 94.438553,182.019412 95.07,182.43 L96.94,183.51 C97.2017632,183.668437 97.5216562,183.698316 97.8082322,183.591093 C98.0948082,183.483871 98.3165246,183.25135 98.41,182.96 L102,172.55 L94,167.92 L94,180.58 Z"
                        fill="#37474F" id="Path"></path>
                    <path
                        d="M138.12,188.7 L134.12,191.02 L134.12,203.67 C134.157222,204.423353 134.550818,205.114001 135.18,205.53 L137.06,206.61 C137.729239,206.950239 138.520761,206.950239 139.19,206.61 L141.07,205.53 C141.734337,205.100848 142.248216,204.475104 142.54,203.74 L146.14,193.33 L138.12,188.7 Z"
                        fill="#263238" id="Path"></path>
                    <path
                        d="M134.12,203.67 C134.157222,204.423353 134.550818,205.114001 135.18,205.53 L137.06,206.61 C137.321763,206.768437 137.641656,206.798316 137.928232,206.691093 C138.214808,206.583871 138.436525,206.35135 138.53,206.06 L142.14,195.65 L134.14,191.02 L134.12,203.67 Z"
                        fill="#37474F" id="Path"></path>
                    <path
                        d="M90.56,8.43 L146.16,40.43 C148.684918,42.0778326 150.274276,44.8295023 150.44,47.84 L150.44,200.05 C150.656876,201.146101 150.151976,202.25867 149.184217,202.817166 C148.216459,203.375662 147.00054,203.256183 146.16,202.52 L90.56,170.46 C88.0380224,168.815418 86.451803,166.066466 86.29,163.06 L86.29,10.89 C86.0707188,9.79565849 86.5743323,8.6834499 87.5414167,8.12630058 C88.5085011,7.56915126 89.7232838,7.69137045 90.56,8.43 L90.56,8.43 Z"
                        fill="#37474F" id="Path"></path>
                    <g id="freepik--Bottom--inject-162" transform="translate(9.000000, 165.000000)">
                        <polygon fill="#455A64" id="Path"
                            points="0.82 51.48 60.96 86.2 145.16 37.59 141.15 35.27 81.01 0.55 0.82 46.85"></polygon>
                        <polygon fill="#263238" id="Path"
                            points="60.96 86.2 60.96 81.57 145.16 32.96 145.16 37.59"></polygon>
                    </g>
                    <path
                        d="M70.34,244.46 L69.73,244.05 C80.4,227.9 80.33,200 79.46,193 C79.39,192.53 79.34,192.24 79.33,192.13 L80.06,192.01 C80.06,192.23 80.14,192.49 80.18,192.8 C80.96,197.75 85.37,224.64 90.59,232.8 L89.97,233.2 C85.84,226.79 82.31,209.49 80.54,199.51 C80.65,210.84 79,231.43 70.34,244.46 Z"
                        fill="#FAFAFA" id="Path"></path>
                    <path
                        d="M105.46,219.8 C104.55,219.53 83.29,213.09 81.33,203.71 L82.06,203.56 C83.92,212.51 105.45,219.03 105.67,219.1 L105.46,219.8 Z"
                        fill="#FAFAFA" id="Path"></path>
                    <path
                        d="M84,216 L83.46,213.71 C83.3077176,212.843861 82.578156,212.197204 81.7,212.15 C80.9788264,212.044592 80.2683781,212.399817 79.92,213.04 L79.23,212.75 C79.7043416,211.812505 80.7179602,211.275647 81.76,211.41 C82.504257,211.456864 83.1925626,211.821047 83.65,212.41 C83.7699816,211.461843 84.2541267,210.597554 85,210 C85.5751919,209.699368 86.2658574,209.722138 86.82,210.06 L86.49,210.72 C86.1510672,210.501956 85.7232525,210.475455 85.36,210.65 C84.51,211.13 84.18,212.98 84.13,213.65 L84,216 Z"
                        fill="#FAFAFA" id="Path"></path>
                    <path
                        d="M86.09,223.63 L85.43,221.55 C84.68,219.2 83.43,217.85 81.95,217.76 C80.686411,217.735671 79.528346,218.461915 79,219.61 L78.33,219.29 C78.9769803,217.854131 80.4258948,216.95004 82,217 C82.89,217.05 84.42,217.53 85.56,219.85 C85.81,218.02 86.56,215.08 88.49,213.85 C89.8989151,213.077949 91.6085477,213.096903 93,213.9 L92.69,214.57 C91.5252182,213.881059 90.0860915,213.846975 88.89,214.48 C86.32,216.08 86.15,221.37 86.15,221.43 L86.09,223.63 Z"
                        fill="#FAFAFA" id="Path"></path>
                    <path
                        d="M77.06,228.71 L76.4,228.37 C77.88,225.52 81.13,223.47 83.95,223.61 C85.1617467,223.624086 86.3017778,224.186747 87.05,225.14 C87.5985188,222.232408 89.3107106,219.674957 91.79,218.06 C94.4675233,216.281402 97.8786367,216.027464 100.79,217.39 L100.5,218.06 C97.8188789,216.818766 94.6863743,217.053325 92.22,218.68 C89.5899978,220.384428 87.9212276,223.232462 87.72,226.36 L87.72,228.25 L87.02,226.49 C86.5451966,225.209018 85.3261298,224.356468 83.96,224.35 C81.37,224.22 78.42,226.1 77.06,228.71 Z"
                        fill="#FAFAFA" id="Path"></path>
                    <path
                        d="M73,239.75 L72.35,239.39 C73.25,237.75 78.04,229.51 83.71,228.02 C85.3287131,227.556163 87.068547,227.807311 88.49,228.71 L88.11,229.34 C86.8569293,228.54814 85.3262903,228.326361 83.9,228.73 C79.74,229.83 75.44,235.35 73,239.75 Z"
                        fill="#FAFAFA" id="Path"></path>
                    <polygon fill="#263238" id="Path"
                        points="146.14 151.66 146.14 156.29 69.96 200.27 9.82 165.55 9.82 160.92 86 116.94"></polygon>
                    <polygon fill="#455A64" id="Path"
                        points="146.14 151.66 69.96 195.64 9.82 160.92 86 116.94"></polygon>
                    <polygon fill="#263238" id="Path"
                        points="146.14 100.74 146.14 105.36 69.96 149.35 9.82 114.62 9.82 110 86 66.01"></polygon>
                    <polygon fill="#455A64" id="Path"
                        points="146.14 100.74 69.96 144.72 9.82 110 86 66.01"></polygon>
                    <g id="freepik--Side--inject-162" transform="translate(5.000000, 45.000000)">
                        <path
                            d="M64.7,39.33 L9.1,7.28 C8.22652599,6.64827425 7.0812717,6.53374882 6.1,6.98 C5.38,7.39 2.82,8.88 2.1,9.29 C1.2081154,9.91598998 0.725781013,10.97636 0.84,12.06 L0.84,164.23 C1.00565855,167.237849 2.5954195,169.986501 5.12,171.63 L60.72,203.69 C61.593474,204.321726 62.7387283,204.436251 63.72,203.99 C64.44,203.57 67.02,202.09 67.72,201.66 C68.616117,201.040624 69.1060718,199.984159 69,198.9 L69,46.74 C68.8329465,43.7248339 67.2349526,40.9710816 64.7,39.33 L64.7,39.33 Z"
                            fill="#263238" id="Path"></path>
                        <polygon fill="#000000" id="Path" opacity="0.2"
                            points="64.96 62.69 68.98 60.37 68.98 46.47 64.95 48.79"></polygon>
                        <polygon fill="#000000" id="Path" opacity="0.2"
                            points="145.16 16.39 149.18 14.08 149.18 0.18 145.15 2.5"></polygon>
                        <path
                            d="M12.84,166.85 L8.84,169.16 L8.84,181.82 C8.88101587,182.572081 9.27855304,183.259412 9.91,183.67 L11.78,184.75 C12.4527272,185.090386 13.2472728,185.090386 13.92,184.75 L15.79,183.67 C16.4518477,183.242469 16.9653003,182.620737 17.26,181.89 L20.87,171.48 L12.84,166.85 Z"
                            fill="#263238" id="Path"></path>
                        <path
                            d="M8.83,181.82 C8.87101587,182.572081 9.26855304,183.259412 9.9,183.67 L11.77,184.75 C12.0317632,184.908437 12.3516562,184.938316 12.6382322,184.831093 C12.9248082,184.723871 13.1465246,184.49135 13.24,184.2 L16.85,173.79 L8.85,169.16 L8.83,181.82 Z"
                            fill="#37474F" id="Path"></path>
                        <path
                            d="M52.93,190 L48.93,192.31 L48.93,204.97 C48.9671537,205.720696 49.3611494,206.40833 49.99,206.82 L51.87,207.9 C52.5392386,208.240239 53.3307614,208.240239 54,207.9 L55.88,206.82 C56.5392501,206.389556 57.0519488,205.768737 57.35,205.04 L60.95,194.63 L52.93,190 Z"
                            fill="#263238" id="Path"></path>
                        <path
                            d="M48.93,204.92 C48.9671537,205.670696 49.3611494,206.35833 49.99,206.77 L51.87,207.85 C52.1317632,208.008437 52.4516562,208.038316 52.7382322,207.931093 C53.0248082,207.823871 53.2465246,207.59135 53.34,207.3 L56.94,196.89 L48.94,192.26 L48.93,204.92 Z"
                            fill="#37474F" id="Path"></path>
                        <path
                            d="M5.08,9.6 L60.69,41.65 C63.212313,43.2989152 64.7981301,46.0508834 64.96,49.06 L64.96,206.2 C64.96,206.2 61.87,204.37 60.69,203.69 L5.09,171.63 C2.5654195,169.986501 0.975658555,167.237849 0.81,164.23 L0.81,12.06 C0.590718802,10.9656585 1.09433234,9.8534499 2.06141673,9.29630058 C3.02850112,8.73915126 4.24328382,8.86137045 5.08,9.6 Z"
                            fill="#37474F" id="Path"></path>
                        <path
                            d="M60.69,41.65 L5.08,9.6 C4.24328382,8.86137045 3.02850112,8.73915126 2.06141673,9.29630058 C1.09433234,9.8534499 0.590718802,10.9656585 0.81,12.06 L0.81,25.65 L64.96,62.65 L64.96,49.06 C64.7981301,46.0508834 63.212313,43.2989152 60.69,41.65 Z"
                            fill="#000000" id="Path" opacity="0.2"></path>
                    </g>
                    <path
                        d="M142.13,101.11 C141.92787,101.104747 141.765253,100.94213 141.76,100.74 L141.76,55.08 L98.21,80.22 C98.1275779,80.2735051 98.0264598,80.2898969 97.9313558,80.2651698 C97.8362518,80.2404428 97.7559233,80.1768749 97.71,80.09 C97.6590222,80.0052744 97.6440779,79.9036691 97.6685016,79.8078533 C97.6929252,79.7120376 97.7546844,79.6299841 97.84,79.58 L142,54.12 C142.113253,54.0494815 142.256747,54.0494815 142.37,54.12 C142.482424,54.1872751 142.550887,54.3089878 142.550016,54.44 L142.550016,100.74 C142.550986,100.847441 142.50522,100.950004 142.424597,101.021029 C142.343974,101.092054 142.236459,101.124524 142.13,101.11 Z"
                        fill="#FAFAFA" id="Path"></path>
                    <path
                        d="M134.11,89.53 L134,89.53 C133.801593,89.4852248 133.67653,89.2886966 133.72,89.09 L141.18,56.78 L126.38,82.41 C126.333686,82.496347 126.254176,82.5600852 126.159821,82.5865045 C126.065466,82.6129239 125.964419,82.5997416 125.88,82.55 C125.792992,82.5017061 125.729105,82.4204001 125.702762,82.3244378 C125.67642,82.2284754 125.689842,82.1259472 125.74,82.04 L141.74,54.26 C141.834512,54.1025012 142.028149,54.0351492 142.2,54.1 C142.369679,54.1690981 142.463239,54.351967 142.42,54.53 L134.42,89.26 C134.383265,89.4059522 134.259613,89.5136487 134.11,89.53 L134.11,89.53 Z"
                        fill="#FAFAFA" id="Path"></path>
                    <path
                        d="M118.08,78.0000039 C117.976975,78.0004775 117.878683,77.9567919 117.81,77.88 C117.667665,77.7358866 117.667665,77.5041134 117.81,77.36 L141.87,54.21 C142.014113,54.0676652 142.245887,54.0676652 142.39,54.21 C142.533532,54.3575136 142.533532,54.5924864 142.39,54.74 L118.33,77.88 C118.266034,77.9517788 118.176014,77.9949884 118.08,78.0000039 L118.08,78.0000039 Z"
                        fill="#FAFAFA" id="Path"></path>
                    <path
                        d="M142.13,93.72 L142.13,93.72 C141.92787,93.7147472 141.765253,93.5521296 141.76,93.35 C141.76,87.29 135,86.88 134.71,86.87 C134.59961,86.8619962 134.497821,86.8074659 134.43,86.72 C134.366389,86.6338952 134.3444,86.523947 134.37,86.42 C134.872011,83.9003213 133.991405,81.3042468 132.06,79.61 C131.358163,78.9100152 130.389153,78.5457255 129.4,78.61 C128.872175,78.6994108 128.408962,79.0130829 128.13,79.47 C128.044082,79.6202778 127.865453,79.6908984 127.7,79.64 C127.535477,79.5892539 127.427698,79.4317316 127.44,79.26 C127.44,79.03 127.85,73.64 123.11,73.11 C122.986404,73.0948735 122.87806,73.0201537 122.82,72.91 C122.764845,72.8033772 122.764845,72.6766228 122.82,72.57 C122.82,72.57 124.92,68.64 124.11,66.71 C123.920347,66.2503251 123.52291,65.9086042 123.04,65.79 C122.944229,65.7646441 122.86314,65.7009411 122.815833,65.6138952 C122.768525,65.5268493 122.759181,65.424155 122.79,65.33 C122.852314,65.1374831 123.054561,65.0275662 123.25,65.08 C123.948692,65.2597173 124.520355,65.760851 124.79,66.43 C125.56,68.26 124.26,71.29 123.7,72.43 C127.38,73.14 128.06,76.61 128.16,78.33 C128.488838,78.0964739 128.863942,77.936202 129.26,77.86 C130.477684,77.7420533 131.682389,78.1878312 132.53,79.07 C134.548411,80.8499164 135.536679,83.5253805 135.16,86.19 C136.78,86.4 142.5,87.53 142.490013,93.37 C142.479632,93.5626947 142.32291,93.7150632 142.13,93.72 Z"
                        fill="#FAFAFA" id="Path"></path>
                    <path
                        d="M142.13,83.740002 C141.936819,83.740636 141.775662,83.5925459 141.76,83.4 C141.6,81.28 140.37,78.54 138.82,77.86 C138.192419,77.5796269 137.458385,77.6973864 136.95,78.16 C136.825056,78.2400521 136.664944,78.2400521 136.54,78.16 C136.410416,78.0887515 136.335701,77.9471866 136.35,77.8 C136.35,77.8 136.68,74.05 134.99,72.5 C134.246032,71.8788359 133.247806,71.6553525 132.31,71.9 C132.180131,71.9276011 132.045612,71.8814803 131.96,71.78 C131.872902,71.677712 131.846287,71.537036 131.89,71.41 C132.23,70.48 132.89,67.87 132,66.94 C131.58,66.51 130.81,66.47 129.7,66.83 C129.544445,66.8814783 129.373557,66.8245159 129.28,66.69 C129.186452,66.5582503 129.186452,66.3817497 129.28,66.25 C129.9,65.47 131.43,63.19 131.05,62.1 C130.922444,61.7934869 130.63964,61.5794734 130.31,61.54 C130.214367,61.5163884 130.132097,61.4556172 130.081417,61.37115 C130.030736,61.2866829 130.01583,61.1854935 130.04,61.09 C130.058643,60.9936205 130.116905,60.9095006 130.200574,60.8581582 C130.284244,60.8068157 130.385628,60.7929707 130.48,60.82 C131.051274,60.9032327 131.535088,61.2841885 131.75,61.82 C132.16,63.01 131.16,64.82 130.46,65.82 C131.192054,65.6459113 131.962862,65.8442258 132.52,66.35 C133.62,67.49 133.09,69.9 132.76,71.03 C133.746431,70.9120996 134.736223,71.2214097 135.48,71.88 C136.97,73.24 137.13,75.88 137.11,77.09 C137.7434,76.792156 138.4766,76.792156 139.11,77.09 C141,77.92 142.31,80.87 142.5,83.26 C142.508259,83.3571751 142.476739,83.453543 142.412651,83.527055 C142.348564,83.600567 142.257394,83.6449322 142.16,83.65 L142.13,83.740002 Z"
                        fill="#FAFAFA" id="Path"></path>
                    <g id="freepik--Top--inject-162">
                        <path
                            d="M163.67,38.24 C163.573357,37.1589041 162.900295,36.2143238 161.91,35.77 L102.3,1.35 C99.6121934,-0.00978106722 96.4378066,-0.00978106722 93.75,1.35 L2.07,54.29 C1.07970477,54.7343238 0.406643495,55.6789041 0.31,56.76 L0.31,61.39 C0.406643495,62.4710959 1.07970477,63.4156762 2.07,63.86 L61.68,98.27 C64.3654775,99.6395094 67.5445225,99.6395094 70.23,98.27 L161.91,45.34 C162.900295,44.8956762 163.573357,43.9510959 163.67,42.87 L163.67,38.24 Z"
                            fill="#37474F" id="Path"></path>
                        <path
                            d="M61.68,93.64 L2.07,59.23 C-0.29,57.86 -0.29,55.65 2.07,54.29 L93.75,1.35 C96.4378066,-0.00978106722 99.6121934,-0.00978106722 102.3,1.35 L161.91,35.77 C164.28,37.14 164.28,39.34 161.91,40.71 L70.23,93.64 C67.5445225,95.0095094 64.3654775,95.0095094 61.68,93.64 L61.68,93.64 Z"
                            fill="#455A64" id="Path"></path>
                    </g>
                    <g fill="#000000" id="freepik--Shadows--inject-162" opacity="0.1"
                        transform="translate(73.000000, 52.000000)">
                        <polygon id="Path"
                            points="77.15 0.12 49.09 34.85 0.98 62.63 0.97 44.11"></polygon>
                        <polygon id="Path"
                            points="73.14 53.36 49.09 85.77 0.98 113.56 0.98 95.03"></polygon>
                        <polygon id="Path"
                            points="73.14 104.29 49.09 136.7 0.98 164.49 0.98 145.96"></polygon>
                    </g>
                </g>
            </g>
            <g id="freepik--Box--inject-162" transform="translate(0.000000, 212.000000)">
                <g id="freepik--box--inject-162">
                    <polygon fill="#1EC808" id="Path"
                        points="174.78 138.44 101.02 181.03 17.96 132.96 91.72 90.38"></polygon>
                    <polygon fill="#000000" id="Path" opacity="0.5"
                        points="174.78 138.44 101.02 181.03 17.96 132.96 91.72 90.38"></polygon>
                    <polygon fill="#1EC808" id="Path"
                        points="91.72 32.65 91.72 90.38 17.96 132.96 17.96 75.24"></polygon>
                    <polygon fill="#000000" id="Path" opacity="0.23"
                        points="91.72 32.65 91.72 90.38 17.96 132.96 17.96 75.24"></polygon>
                    <polygon fill="#1EC808" id="Path"
                        points="101.02 123.3 101.02 181.03 17.96 132.96 17.96 75.24"></polygon>
                    <polygon fill="#000000" id="Path" opacity="0.38"
                        points="101.02 123.3 101.02 181.03 17.96 132.96 17.96 75.24"></polygon>
                    <polygon fill="#1EC808" id="Path"
                        points="174.78 80.71 174.78 138.44 91.72 90.38 91.72 32.65"></polygon>
                    <polygon fill="#000000" id="Path" opacity="0.4"
                        points="174.78 80.71 174.78 138.44 91.72 90.38 91.72 32.65"></polygon>
                    <polygon fill="#1EC808" id="Path"
                        points="174.78 138.44 174.78 80.71 101.02 123.3 101.02 181.03"></polygon>
                    <polygon fill="#000000" id="Path" opacity="0.23"
                        points="174.78 138.44 174.78 80.71 101.02 123.3 101.02 181.03"></polygon>
                    <polygon fill="#1EC808" id="Path"
                        points="91.72 32.65 91.82 0.69 174.68 48.81 174.78 80.71"></polygon>
                    <polygon fill="#000000" id="Path" opacity="0.2"
                        points="91.72 32.65 91.82 0.69 174.68 48.81 174.78 80.71"></polygon>
                    <polygon fill="#1EC808" id="Path"
                        points="101.02 123.3 107.94 95.34 181.03 53.14 174.78 80.71"></polygon>
                    <polygon fill="#000000" id="Path" opacity="0.3"
                        points="101.02 123.3 107.94 95.34 181.03 53.14 174.78 80.71"></polygon>
                    <polygon fill="#1EC808" id="Path"
                        points="17.96 75.24 9.16 46.24 82.92 3.66 91.72 32.65"></polygon>
                    <polygon fill="#000000" id="Path" opacity="0.1"
                        points="17.96 75.24 9.16 46.24 82.92 3.66 91.72 32.65"></polygon>
                    <polygon fill="#1EC808" id="Path"
                        points="17.96 75.24 0.6 51.27 83.67 99.33 101.02 123.3"></polygon>
                    <polygon fill="#000000" id="Path" opacity="0.45"
                        points="17.96 75.24 0.6 51.27 83.67 99.33 101.02 123.3"></polygon>
                    <g fill="#FFFFFF" id="Group" opacity="0.7"
                        transform="translate(120.000000, 150.000000)">
                        <path
                            d="M2.74,13.86 C2.48980357,13.86 2.28543905,13.6601373 2.28,13.41 L2.28,3.25 C2.28530326,2.9981784 2.4881784,2.79530326 2.74,2.79 C2.99013731,2.79543905 3.19005913,2.99980357 3.19,3.25 L3.19,13.41 C3.19,13.6585281 2.98852814,13.86 2.74,13.86 L2.74,13.86 Z"
                            id="Path"></path>
                        <path
                            d="M1.41,6.77 C1.35036559,6.77936707 1.28963441,6.77936707 1.23,6.77 C1.0033877,6.66544113 0.898011004,6.40199939 0.99,6.17 L2.61,2.44 L4.41,4.52 C4.5433649,4.71277824 4.51043443,4.9750094 4.33354478,5.12882649 C4.15665512,5.28264358 3.89239173,5.27884188 3.72,5.12 L2.87,4.12 L1.87,6.52 C1.78157197,6.68892581 1.5998488,6.7876884 1.41,6.77 L1.41,6.77 Z"
                            id="Path"></path>
                        <path
                            d="M6.93,11.47 C6.67986269,11.464561 6.47994087,11.2601964 6.48,11.01 L6.48,0.86 C6.48,0.611471863 6.68147186,0.41 6.93,0.41 C7.17852814,0.41 7.38,0.611471863 7.38,0.86 L7.38,11 C7.38268119,11.1220078 7.3367702,11.2400807 7.25237272,11.3282292 C7.16797523,11.4163777 7.05200905,11.4673765 6.93,11.47 Z"
                            id="Path"></path>
                        <path
                            d="M5.6,4.38 C5.54036559,4.38936707 5.47963441,4.38936707 5.42,4.38 C5.30912858,4.33186613 5.22228178,4.24115401 5.17901837,4.12829296 C5.13575497,4.0154319 5.13971261,3.88991141 5.19,3.78 L6.8,0 L8.6,2.07 C8.77272769,2.24837061 8.77272769,2.53162939 8.6,2.71 C8.51546645,2.7954992 8.40023325,2.84361416 8.28,2.84361416 C8.15976675,2.84361416 8.04453355,2.7954992 7.96,2.71 L7.11,1.71 L6.11,4.11 C6.02460809,4.30869878 5.81233336,4.42107952 5.6,4.38 Z"
                            id="Path"></path>
                    </g>
                    <g fill="#FFFFFF" id="Group" opacity="0.7"
                        transform="translate(105.000000, 154.000000)">
                        <path
                            d="M5.65,16.75 C5.47909537,16.7525336 5.31039382,16.7112189 5.16,16.63 C4.79172387,16.3940498 4.58099082,15.9764152 4.61,15.54 L4.61,14.29 C4.61543905,14.0398627 4.81980357,13.8399409 5.07,13.84 C5.31852814,13.84 5.52,14.0414719 5.52,14.29 L5.52,15.54 C5.52,15.72 5.52,15.82 5.61,15.84 C5.7,15.86 5.75,15.84 5.9,15.76 C6.46959556,15.2339243 6.78021702,14.4847785 6.75,13.71 L6.75,8.51 C6.75,8.26147186 6.95147186,8.06 7.2,8.06 C7.44852814,8.06 7.65,8.26147186 7.65,8.51 L7.65,13.71 C7.69533205,14.8049612 7.21623614,15.856001 6.36,16.54 C6.14626595,16.6719977 5.90114806,16.7444973 5.65,16.75 L5.65,16.75 Z"
                            id="Path"></path>
                        <path
                            d="M0.88,12.56 L0.88,11.78 C1.12100868,7.71890072 3.26796225,4.01086345 6.67,1.78 C8.31,0.84 9.87,0.7 11.07,1.4 C12.3736209,2.29389418 13.0865696,3.82711719 12.93,5.4 L12.93,5.66 L0.88,12.56 Z M9.39,1.82 C8.58930172,1.85680445 7.81131943,2.09777241 7.13,2.52 C4.22093868,4.4342173 2.286896,7.51773818 1.83,10.97 L12,5.09 C12.0882938,3.91198873 11.5533224,2.77375166 10.59,2.09 C10.220568,1.89640784 9.80674813,1.80329838 9.39,1.82 L9.39,1.82 Z"
                            id="Shape"></path>
                    </g>
                    <polygon fill="#FFFFFF" id="Path" opacity="0.7"
                        points="0.6 51.27 83.67 99.33 101.02 123.3 82.75 100.18"></polygon>
                    <polygon fill="#FFFFFF" id="Path" opacity="0.7"
                        points="174.78 80.71 101.02 123.3 101.02 181.03 102.4 124.46"></polygon>
                </g>
            </g>
            <g id="freepik--Moth--inject-162" transform="translate(26.000000, 174.000000)">
                <g id="freepik--moth--inject-162">
                    <path
                        d="M40.54,95.62 C48.15,94.52 55.1,89.62 59.54,83.46 C61.6105751,80.5818264 63.1357997,77.3483504 64.04,73.92 C65.0002467,70.7140535 65.158209,67.3212997 64.5,64.04 C63.13,58.55 58.05,55.3 52.68,54.62 C49.9550958,54.261493 47.1842805,54.531733 44.58,55.41 C41.8796438,56.3367076 39.5368822,58.0850372 37.88,60.41 C36.8411386,61.6486406 36.1875972,63.1643005 36,64.77 C35.9668748,66.0742856 36.9423249,67.1847311 38.24,67.32 C39.8502219,67.4556394 41.4594003,67.0471827 42.81,66.16 C44.4569003,65.2364648 45.9074234,63.9999533 47.08,62.52 C49.5952845,59.4157937 51.4774604,55.8484927 52.62,52.02 C53.4216919,48.7348699 53.4216919,45.3051301 52.62,42.02 C52.0109802,38.5835043 50.4402607,35.3900548 48.09,32.81 C45.3956612,30.3597539 41.9765341,28.8537934 38.35,28.52 C34.7407093,28.0241226 31.0656989,28.3663024 27.61,29.52 C26.0921,29.980197 24.6859201,30.7496805 23.48,31.78 C22.62,32.58 21.64,33.9 21.99,35.2 C22.34,36.5 24.24,37.08 25.53,36.91 C27.4392146,36.5522182 29.1880307,35.6043599 30.53,34.2 C32.025584,32.7276859 33.2959114,31.0429016 34.3,29.2 C35.0460134,27.8755453 35.435382,26.3800945 35.43,24.86 C35.3,18.52 28.29,14.42 22.8,13.26 C21.3179827,12.95039 19.7999683,12.8494134 18.29,12.96 C17.78,12.96 18.09,13.8 18.5,13.77 C21.4542828,13.6357458 24.3902607,14.2989314 27,15.69 C29.5747584,16.8734081 31.7372347,18.7990915 33.21,21.22 C34.5467731,23.6508834 34.4548127,26.6166076 32.97,28.96 C31.9908322,30.6654287 30.7717099,32.221325 29.35,33.58 C28.16,34.66 26.35,35.91 24.68,35.79 C24.1174274,35.7887108 23.6049287,35.4664578 23.36,34.96 C23.2578081,34.2941688 23.4766039,33.6192395 23.95,33.14 C24.8330529,32.1890109 25.925144,31.4563855 27.14,31 C30.1400673,29.7528931 33.3885821,29.2188907 36.63,29.44 C39.9704892,29.5004712 43.2191054,30.543924 45.97,32.44 C48.3664288,34.429759 50.0683669,37.1297472 50.83,40.15 C51.7948069,43.2182091 52.0948003,46.4567747 51.71,49.65 C51.1161237,52.8631718 49.8816108,55.9239478 48.08,58.65 C46.23,61.71 43.91,64.65 40.43,65.85 C39.57,66.16 37.77,66.61 37.43,65.36 C37.09,64.11 38.07,62.57 38.7,61.6 C40.0931213,59.4074423 42.1241464,57.6939829 44.52,56.69 C46.831919,55.7633436 49.3275902,55.3867676 51.81,55.59 C56.52,55.94 61.3,58.4 62.94,63.08 C63.7626634,65.8769475 63.8521976,68.8384637 63.2,71.68 C62.6117107,74.7946624 61.4920533,77.7849257 59.89,80.52 C56.4439853,86.3312984 51.225084,90.8842552 45,93.51 C43.52,94.15 42,94.69 40.45,95.19 C40.29,95.25 40.36,95.65 40.54,95.62 L40.54,95.62 Z"
                        fill="#E0E0E0" id="Path"></path>
                    <path
                        d="M8.75,8.8 C4.75,8.51 -0.76,11.66 1.2,13.96 C3.16,16.26 8.36,12.54 8.36,12.54 C8.36,12.54 7.87,17.19 9.57,17.72 C11.27,18.25 13.57,13.81 11.87,10.97 C13.5363018,11.6269153 15.4228788,11.3854335 16.87,10.33 C19.29,8.55 16.73,6.87 13.32,7.17 C13.32,7.17 15.76,-0.83 10.83,0.7 C8.36,1.45 7.49,4.34 8.75,8.8 Z"
                        fill="#1EC808" id="Path"></path>
                    <path
                        d="M8.75,8.8 C4.75,8.51 -0.76,11.66 1.2,13.96 C3.16,16.26 8.36,12.54 8.36,12.54 C8.36,12.54 7.87,17.19 9.57,17.72 C11.27,18.25 13.57,13.81 11.87,10.97 C13.5363018,11.6269153 15.4228788,11.3854335 16.87,10.33 C19.29,8.55 16.73,6.87 13.32,7.17 C13.32,7.17 15.76,-0.83 10.83,0.7 C8.36,1.45 7.49,4.34 8.75,8.8 Z"
                        fill="#FFFFFF" id="Path" opacity="0.65"></path>
                    <path
                        d="M12.47,10.5 C12.248673,10.2832862 12.0149461,10.0796099 11.77,9.89 C11.42,9.62 11.05,9.36 10.7,9.1 C10.3592378,8.85221892 10.0017148,8.62834936 9.63,8.43 C9.4160546,8.31127249 9.19571953,8.20444337 8.97,8.11 C8.65835458,7.96365909 8.31174765,7.90820198 7.97,7.95 C7.78759005,7.95515025 7.62247274,8.05926625 7.53920287,8.2216425 C7.455933,8.38401874 7.46773703,8.57886364 7.57,8.73 C7.84490681,9.02780617 8.18809588,9.25431096 8.57,9.39 L9.11,9.68 C9.48,9.9 9.81,10.15 10.11,10.4 C10.41,10.65 10.81,10.89 11.11,11.14 C11.6258293,11.5583541 12.2024627,11.8955667 12.82,12.14 C12.8761938,12.170224 12.9438062,12.170224 13,12.14 C13.51,11.74 12.76,10.79 12.47,10.5 Z"
                        fill="#455A64" id="Path"></path>
                </g>
            </g>
            <g id="freepik--Character--inject-162" transform="translate(274.000000, 0.000000)">
                <g id="freepik--character--inject-162">
                    <path
                        d="M83.28,72.79 C78.91,78.67 73.06,111 70.85,121.37 C60.22,121.06 46,120.56 40.62,120 C34.62,119.37 21.81,118.14 15.52,119 C-0.09,121 0.52,131.26 0.9,133.94 C1.31,137 3.5,138.4 11.9,136.49 C13.7796248,136.076904 15.69579,135.852458 17.62,135.82 C18.43,135.82 20.14,135.41 20.78,136.1 C21.78,137.1 18.89,138.78 18.17,139.24 C17.06,139.96 15.9,140.87 15.67,142.17 C15.5352824,142.655358 15.695391,143.174735 16.08,143.5 C16.487026,143.666174 16.942974,143.666174 17.35,143.5 C21.1840353,142.590101 24.8822203,141.181429 28.35,139.31 C29.65742,138.521741 31.0329356,137.85239 32.46,137.31 C34.63,136.61 36.87,137.02 39.05,137.02 C43.74,137.02 68.53,139.48 79.55,140.6 C87.18,141.37 87.99,133.84 90.62,126.21 C93.85,116.75 101.5,67 101.5,67 C93.78,65.88 88.48,65.81 83.28,72.79 Z"
                        fill="#FFA8A7" id="Path"></path>
                    <path
                        d="M101.62,66.22 C97.93,65.54 89.62,64.51 85.1,69.56 C80.58,74.61 79.51,79.91 77.52,87.56 C75.53,95.21 72,108.91 72,108.91 C72,108.91 77.83,117.28 96.08,114.91 L101.62,66.22 Z"
                        fill="#37474F" id="Path"></path>
                    <polygon fill="#FFA8A7" id="Path"
                        points="147.45 330.64 134.62 330.65 130.93 302.8 147.12 302.16"></polygon>
                    <path
                        d="M104.85,316.73 C102.67,320.52 95.66,320.21 89.85,318.87 L89.18,291.49 L106.33,290.81 L104.85,316.73 Z"
                        fill="#FFA8A7" id="Path"></path>
                    <path
                        d="M146.58,154.66 C147.04,166.51 145.47,236.58 145.47,236.58 C145.9,239.98 149.42,245.91 150.15,258.18 C151.22,276 147.59,314 147.59,314 C147.59,314 140.24,317.84 132.32,314.9 C132.32,314.9 124.26,259.9 121.32,242.32 C118.78,227.02 115.52,185.98 115.52,185.98 L109.19,238.58 C110.350543,244.806144 110.830033,251.140102 110.62,257.47 C110.36,265.65 105.7,305.37 105.7,305.37 C100.38363,307.109093 94.6729406,307.24473 89.28,305.76 C89.28,305.76 85.46,244.12 85.02,236.65 C84.52,228.13 84.86,152.92 84.86,152.92 L146.58,154.66 Z"
                        fill="#1EC808" id="Path"></path>
                    <path
                        d="M115.54,186 C115.54,186 104.33,182.82 96.69,176 C96.69,176 100.27,182.11 110.41,187.53 L109.83,233.44 L115.54,186 Z"
                        fill="#000000" id="Path" opacity="0.2"></path>
                    <path
                        d="M120,353.87 C119.59,354.29 119.83,357.06 120.33,357.78 C120.83,358.5 123.89,360.94 129.2,361.12 C134.27,361.28 138.75,360.42 141.64,358.42 C144.53,356.42 145.89,354.29 146.06,351.42 C146.23,348.55 145.8,345.76 147.06,343.49 C148.25,341.4 150.18,339.01 150.57,337.88 C151.44,335.43 150.38,332.02 150.38,332.02 L120,353.87 Z"
                        fill="#263238" id="Path"></path>
                    <path
                        d="M132.8,328.2 C132.806452,329.293437 132.651448,330.381837 132.34,331.43 C131.254701,334.840267 129.623527,338.051957 127.51,340.94 C126.05,342.81 124.21,344.38 122.66,346.19 C121.00139,347.906541 119.984389,350.141823 119.78,352.52 C119.72,356.52 124.08,357.67 127.41,358.13 C131.019695,358.606154 134.690262,358.264388 138.15,357.13 C141.872512,356.008178 144.589659,352.805546 145.09,348.95 C145.23,347.84 145.09,346.72 145.21,345.61 C145.548823,343.060606 146.514276,340.634947 148.02,338.55 C148.891303,337.343443 149.635274,336.049873 150.24,334.69 C151.17,332.19 150.24,329.46 149.48,327.05 C148.83,324.96 148.09,322.59 147.36,322.82 C147.36,323.93 147.36,324.03 146.65,324.82 C145.65,325.82 145.7,327.21 144.65,328.08 C144.953547,327.157109 145.161308,326.205429 145.27,325.24 C145.319335,324.846247 145.223334,324.44802 145,324.12 C144.638801,323.826526 144.214277,323.621111 143.76,323.52 C142.178466,323.052608 140.553395,322.747698 138.91,322.61 C137.34559,322.404295 135.75811,322.45496 134.21,322.76 C133.752271,322.866027 133.34362,323.123195 133.05,323.49 C132.792535,323.899433 132.66366,324.37662 132.68,324.86 C132.68,325.51 132.79,327.14 132.8,328.2 Z"
                        fill="#455A64" id="Path"></path>
                    <path
                        d="M129,338.73 C130.44,337.57 133.74,337.42 135.56,337.55 C137.404135,337.633545 139.196841,338.184088 140.77,339.15 C141.24902,339.469875 141.889596,339.393515 142.28,338.97 L142.28,338.97 C142.503577,338.733943 142.612418,338.411732 142.577781,338.088452 C142.543143,337.765173 142.368511,337.473333 142.1,337.29 C140.362188,336.112015 138.328037,335.446671 136.23,335.37 C131.77,335.24 130.5,336.05 130.5,336.05 C130.5,336.05 128.51,337.43 129,338.73 Z"
                        fill="#F5F5F5" id="Path"></path>
                    <path
                        d="M125.76,342.93 C127.57,341.76 131.22,341.77 133.03,341.93 C134.84393,342.04496 136.595785,342.634659 138.11,343.64 C138.585894,343.958447 139.222959,343.881999 139.61,343.46 L139.61,343.46 C139.83794,343.22687 139.950712,342.904633 139.917887,342.580244 C139.885062,342.255854 139.710022,341.962741 139.44,341.78 C137.67314,340.540635 135.594851,339.820161 133.44,339.7 C128.97,339.56 127.85,340.51 127.85,340.51 C126.820963,340.956038 126.051498,341.846997 125.76,342.93 L125.76,342.93 Z"
                        fill="#F5F5F5" id="Path"></path>
                    <path
                        d="M137.83,331.05 C135.942477,330.79232 134.020396,331.026552 132.25,331.73 C131.49,332.2 131.02,333.46 131.53,333.73 C133.079069,333.034321 134.77599,332.732035 136.47,332.85 C138.143432,332.94818 139.787458,333.333816 141.33,333.99 C141.72,334.14 142.18,334.36 142.58,334.56 C142.83869,334.692343 143.140366,334.712686 143.414482,334.616273 C143.688598,334.51986 143.911116,334.315145 144.03,334.05 L144.03,334.05 C144.226053,333.579247 144.036479,333.036376 143.59,332.79 C141.817316,331.802892 139.852715,331.209419 137.83,331.05 Z"
                        fill="#F5F5F5" id="Path"></path>
                    <path
                        d="M60.53,333.81 C60.0757142,334.953189 60.0757142,336.226811 60.53,337.37 C60.97,338.44 66.27,341.76 73.63,341.62 C79.1032445,341.487007 84.4411967,339.891837 89.09,337 C91.98,335.28 94.91,335.07 98.55,335 C102.19,334.93 107.05,333.38 107.93,331.72 C108.81,330.06 108.03,327.09 108.03,327.09 L60.53,333.81 Z"
                        fill="#263238" id="Path"></path>
                    <path
                        d="M91.23,312.31 L90.66,312.16 C90.3363438,312.061853 89.9959796,312.03122 89.66,312.07 C89.2997561,312.15651 88.9749817,312.352073 88.73,312.63 C87.9731117,313.516953 87.3033565,314.474703 86.73,315.49 C85.08,317.92 81.73,319.85 78.13,321.58 C75.67,322.75 73.28,323.64 70.75,324.63 C68.22,325.62 64.75,326.18 62.75,327.42 C59.75,329.23 59.18,334.08 62.36,336.16 C65.12,337.96 72.48,340.11 80.36,338.27 C84.67,337.27 89.61,332.95 95.21,332.78 C98.78,332.67 105.54,331.99 107.95,329.4 C108.86,328.25 107.95,324.4 107.14,321.08 C106.3,317.46 106.68,312.08 105.06,312.08 L104.96,313.89 C104.81,314.43 103.54,314.96 103.14,315.38 L101.7,316.9 C101.110011,317.603816 100.390301,318.187731 99.58,318.62 C98.15,319.26 96.48,318.88 94.95,318.48 C94.89,318.48 95.72,315.7 95.81,315.43 C95.9002003,315.218915 95.9279647,314.986388 95.89,314.76 C95.8132542,314.538374 95.6610508,314.350775 95.46,314.23 C94.1975968,313.304964 92.7573836,312.651251 91.23,312.31 L91.23,312.31 Z"
                        fill="#455A64" id="Path"></path>
                    <path
                        d="M81.55,319.8 C82.118575,318.832366 83.1387438,318.218759 84.26,318.17 C85.89,317.95 88.68,319.27 90.39,320.82 C90.7173916,321.11495 90.8774389,321.552909 90.8173639,321.989454 C90.7572889,322.425999 90.4848919,322.804447 90.09,323 L90.09,323 C89.5899189,323.247658 88.9878436,323.151326 88.59,322.76 C86.7175616,320.895359 84.1923065,319.833604 81.55,319.8 L81.55,319.8 Z"
                        fill="#F5F5F5" id="Path"></path>
                    <path
                        d="M76.41,322.37 C77.1705817,321.3976 78.3571073,320.856574 79.59,320.92 C79.59,320.92 83.81,321.24 86.3,323.8 C86.6120119,324.084845 86.7647719,324.504419 86.7089356,324.923191 C86.6530992,325.341964 86.3957438,325.706856 86.02,325.9 L86.02,325.9 C85.5363616,326.135683 84.9569651,326.043779 84.57,325.67 C82.4941177,323.385253 79.4905159,322.170562 76.41,322.37 Z"
                        fill="#F5F5F5" id="Path"></path>
                    <path
                        d="M70.76,324.63 C71.6197613,323.740111 72.8246596,323.269105 74.06,323.34 C76.4507744,323.603836 78.6973869,324.615162 80.48,326.23 C80.7918724,326.516871 80.9443579,326.93774 80.8886151,327.357802 C80.8328723,327.777864 80.5758974,328.144397 80.2,328.34 L80.2,328.34 C79.7152324,328.579371 79.1317874,328.482801 78.75,328.1 C76.7820807,325.749149 73.821277,324.463293 70.76,324.63 L70.76,324.63 Z"
                        fill="#F5F5F5" id="Path"></path>
                    <path
                        d="M123,66.44 C127.72,66.98 133.3,67.27 137.81,67.86 C143.62,68.62 148.15,74.63 149.57,83.93 C151.13,94.17 144.57,123.53 144.57,123.53 L146.66,158.15 C138.15,164.42 101.91,167.71 83.85,154.67 C83.85,154.67 84.27,95.75 85.68,86.67 C87.62,74.22 90.68,66.49 104.68,65.6 L123,66.44 Z"
                        fill="#455A64" id="Path"></path>
                    <path
                        d="M155.27,141.44 C153.74,144 152.2,146.56 150.62,149.09 C150.04,150.03 149.45,150.96 148.84,151.88 C148.509341,152.330311 148.122927,152.736886 147.69,153.09 C146.93,153.61 145.35,153.28 144.43,153.31 C139.91,153.463333 135.403333,153.796667 130.91,154.31 C130.148844,154.286194 129.416326,154.601177 128.91,155.17 C128.527938,155.971224 128.80232,156.93156 129.55,157.41 C130.285985,157.851848 131.122108,158.099589 131.98,158.13 L135.88,158.59 C136.436316,158.608715 136.976456,158.781837 137.44,159.09 C138.86,160.24 136.15,161.62 135.34,162.18 C133.711008,163.311697 131.972245,164.27656 130.15,165.06 C122.02,168.48 121.03,170.96 122.53,173.78 C123.83,176.23 129.45,185.14 143.73,177.47 C149.48,174.38 158.23,164.62 162.22,159.9 C167.96,153.09 177.67,137.9 177.67,137.9 C183.19,130.32 183.9,127.21 184.03,124.06 C184.16,120.91 167.03,96.68 161.21,88.17 C155.39,79.66 152.62,69.31 137.81,67.89 C137.81,67.89 132.17,85.77 141.51,97.34 L163.08,127.43 C163.08,127.43 157.37,137.93 155.27,141.44 Z"
                        fill="#FFA8A7" id="Path"></path>
                    <path
                        d="M170.92,99.71 C168.15,95.71 165.26,91.59 162.47,87.51 C150.72,70.36 151.71,67.22 134.77,66.98 C133.269802,69.28 132.38,79.18 134.64,89.12 C136.53,97.47 143.64,103.36 143.64,103.36 L152.12,114.85 C152.12,114.85 157.31,114.69 163.53,110.13 C167.122135,107.613692 169.73313,103.932154 170.92,99.71 Z"
                        fill="#37474F" id="Path"></path>
                    <path
                        d="M134.17,21.37 C132.434884,18.7845608 129.418511,17.3628309 126.32,17.67 L125.44,39.14 L124,47.07 L124.25,55.9 C125.94905,55.6597345 127.406203,54.5649821 128.11,53 C129.43,50.46 133.11,38.18 133.11,38.18 L133.11,38.18 C136.41,28.09 135.71,23.53 134.17,21.37 Z"
                        fill="#263238" id="Path"></path>
                    <path
                        d="M124.44,39.24 C124.811084,37.9351114 125.526014,36.7539219 126.51,35.82 C127.74,34.5 132.64,33.07 134.87,37.23 C137.1,41.39 133.34,46.88 130.44,48.56 C126.73,50.72 124.55,47.78 124.55,47.78 L124.64,67.55 L124.64,67.55 C122.91,71.55 115.1,75.11 110.45,74.55 C106.75,74.08 103.34,71.17 106.65,66.93 L106.38,61.29 C106.38,61.29 101.43,62.29 98.98,62.04 C94.91,61.62 92.2,58.55 90.76,54.23 C88.44,47.29 87.41,41.65 88.39,27.73 C89.47,12.48 107.1,11.45 116.93,16.97 C126.76,22.49 124.44,39.24 124.44,39.24 Z"
                        fill="#FFA8A7" id="Path"></path>
                    <path
                        d="M82.78,11.89 C82.33,8.56 83.48,4.99 86.97,3.81 C89.5834995,2.71665812 92.5923681,3.21813623 94.71,5.1 C95.602442,2.70378012 97.7739955,1.0189226 100.316809,0.74980818 C102.859622,0.480693763 105.335747,1.67367204 106.71,3.83 C107.636747,2.42197779 109.06852,1.42331616 110.71,1.04 C112.754609,0.583430506 114.896958,0.972948418 116.65,2.12 C118.07,3.17 119.74,5.12 119.32,7.65 C122.13,6.52 125.06,7.46 127.15,9.94 C128.393765,11.458659 129.097329,13.3477306 129.15,15.31 C129.222371,16.3292266 129.075754,17.352138 128.72,18.31 C128.32,19.22 127.5,19.82 127.26,20.85 C126.910926,21.7562278 126.731278,22.7188666 126.73,23.69 C126.96,25.37 127.33,27.05 127.55,28.69 C127.786677,30.32348 127.923597,31.9698643 127.96,33.62 C127.854401,34.4052661 127.412846,35.1059152 126.75,35.54 C125.81647,36.3565084 125.092821,37.3853935 124.64,38.54 C124.29,39.26 123.95,41.04 123.26,41.54 C121.13,43.03 120.89,38.21 120.79,37.28 C120.653036,35.1455282 120.653036,33.0044718 120.79,30.87 C118.61786,30.8419433 116.558629,29.8976749 115.12,28.27 C114.382168,27.3654657 113.895828,26.2824087 113.71,25.13 C113.594722,24.4697424 113.541158,23.8001872 113.55,23.13 C112.16,25.43 108.93,26.37 106.63,26.13 C102.77,25.78 101.44,24.13 100.82,22.92 C100.575945,24.1126905 100.051491,25.2301555 99.29,26.18 C98.3039544,27.1065686 97.1160287,27.7912521 95.82,28.18 C93.5419318,28.787868 91.1144185,28.0876978 89.51,26.36 C87.94,28.61 83.96,27.61 83.08,26.98 C81.08,25.53 80.43,23.8 80.21,21.33 C79.99,18.86 80.99,16.04 83.73,15.07 C83.2361089,14.0712212 82.9149021,12.9960239 82.78,11.89 Z"
                        fill="#263238" id="Path"></path>
                    <path
                        d="M106.38,61.26 C106.38,61.26 115.32,59 118.38,57.16 C120.189846,56.1002083 121.636591,54.5175036 122.53,52.62 C122.143731,54.4917781 121.385397,56.2668917 120.3,57.84 C118.14,60.91 106.48,63.67 106.48,63.67 L106.38,61.26 Z"
                        fill="#F28F8F" id="Path"></path>
                    <path
                        d="M106.88,38.58 C106.974179,39.6368389 107.899914,40.4219641 108.957949,40.3423291 C110.015983,40.2626941 110.813766,39.3478449 110.74869,38.2888155 C110.683615,37.2297861 109.779824,36.4194959 108.72,36.47 C107.634588,36.5552631 106.816775,37.4930814 106.88,38.58 L106.88,38.58 Z"
                        fill="#263238" id="Path"></path>
                    <path
                        d="M103.89,53.05 C104.017599,54.4111565 105.214906,55.4173788 106.577709,55.3087624 C107.940512,55.2001461 108.963323,54.0169787 108.873711,52.6527946 C108.784098,51.2886105 107.615301,50.2494087 106.25,50.32 C104.849294,50.4318078 103.798064,51.6478492 103.89,53.05 L103.89,53.05 Z"
                        fill="#F28F8F" id="Path"></path>
                    <path
                        d="M108.49,31.92 L112.61,33.92 C113.142953,32.7472464 112.663801,31.3625435 111.52,30.77 C110.967665,30.5059174 110.331309,30.4794144 109.758928,30.6966547 C109.186547,30.913895 108.728025,31.3559456 108.49,31.92 L108.49,31.92 Z"
                        fill="#263238" id="Path"></path>
                    <path
                        d="M90.57,33.65 L94.08,30.65 C93.7100766,30.1663023 93.1569646,29.8566735 92.5512379,29.7942079 C91.9455112,29.7317424 91.340851,29.9219759 90.88,30.32 C89.907777,31.1710515 89.771576,32.6341135 90.57,33.65 L90.57,33.65 Z"
                        fill="#263238" id="Path"></path>
                    <path
                        d="M91.62,38.19 C91.6874045,39.2226511 92.5766919,40.0066627 93.6096482,39.9441092 C94.6426045,39.8815557 95.4307843,38.9959604 95.3730831,37.9627217 C95.3153819,36.9294829 94.4334984,36.1371524 93.4,36.19 C92.3605085,36.2596396 91.5685788,37.1494482 91.62,38.19 Z"
                        fill="#263238" id="Path"></path>
                    <polygon fill="#F28F8F" id="Path"
                        points="100.9 35.97 100.84 47.8 94.58 46"></polygon>
                    <path
                        d="M85.19,52.52 C85.3066123,52.4941049 85.4076845,52.4219105 85.47,52.32 C85.5418251,52.220136 85.5696381,52.0952223 85.5469687,51.9743184 C85.5242992,51.8534145 85.4531236,51.7470611 85.35,51.68 L79.91,48.06 C79.808034,47.9918906 79.6830948,47.9673112 79.5629275,47.9917202 C79.4427603,48.0161292 79.3373122,48.087506 79.27,48.19 C79.199097,48.2911114 79.1728632,48.4169182 79.1974459,48.5379407 C79.2220286,48.6589631 79.2952672,48.7645646 79.4,48.83 L84.83,52.45 C84.9335343,52.5259025 85.0655672,52.5515756 85.19,52.52 Z"
                        fill="#E0E0E0" id="Path"></path>
                    <path
                        d="M84.61,54.86 C84.7824624,54.8171201 84.9171201,54.6824624 84.96,54.51 C85.0162179,54.2590101 84.8602437,54.0094514 84.61,53.95 L78.25,52.48 C78.1306019,52.4499152 78.0041267,52.468954 77.8988767,52.5328557 C77.7936267,52.5967575 77.718389,52.7001874 77.69,52.82 C77.6337821,53.0709899 77.7897563,53.3205486 78.04,53.38 L84.4,54.86 C84.4696441,54.8699829 84.5403559,54.8699829 84.61,54.86 L84.61,54.86 Z"
                        fill="#E0E0E0" id="Path"></path>
                    <path
                        d="M78.7,59.09 L78.76,59.09 L84.89,56.85 C85.0454106,56.7928375 85.15852,56.6571067 85.1867211,56.4939359 C85.2149222,56.3307652 85.1539306,56.1649441 85.0267211,56.0589359 C84.8995117,55.9529277 84.7254105,55.9228375 84.57,55.98 L78.44,58.22 C78.3237258,58.2625861 78.2295314,58.3502516 78.178717,58.4631726 C78.1279025,58.5760936 78.12476,58.7047325 78.17,58.82 C78.2568898,59.0274787 78.4810811,59.1416894 78.7,59.09 Z"
                        fill="#E0E0E0" id="Path"></path>
                    <path
                        d="M26.84,107.06 C27.0984653,107.578606 27.6408684,107.893541 28.2193938,107.860917 C28.7979193,107.828294 29.3014773,107.454376 29.5,106.91 L34.06,95.66 C34.2615696,95.1688693 34.178625,94.6068475 33.8437741,94.1948832 C33.5089233,93.7829188 32.9757081,93.5868838 32.453752,93.6838456 C31.931796,93.7808075 31.5045585,94.1552622 31.34,94.66 L26.77,105.91 C26.6335028,106.286549 26.658839,106.702787 26.84,107.06 L26.84,107.06 Z"
                        fill="#E0E0E0" id="Path"></path>
                    <path
                        d="M19.33,107 C19.6298431,107.607176 20.3100234,107.92596 20.9685021,107.767925 C21.6269807,107.60989 22.0883894,107.017125 22.08,106.34 L21.93,92.34 C21.8674237,91.588432 21.2391685,91.0103121 20.485,91.0103121 C19.7308315,91.0103121 19.1025763,91.588432 19.04,92.34 L19.18,106.34 C19.1772352,106.568753 19.2286354,106.794913 19.33,107 Z"
                        fill="#E0E0E0" id="Path"></path>
                    <path
                        d="M6.6,99.21 L6.69,99.38 L13.58,109.38 C14.0243854,110.038912 14.9163706,110.217309 15.58,109.78 C16.2259205,109.326192 16.3980957,108.443242 15.97,107.78 L9.08,97.78 C8.66315228,97.1357713 7.8143622,96.9315735 7.15011358,97.3157172 C6.48586496,97.699861 6.23951945,98.5373903 6.59,99.22 L6.6,99.21 Z"
                        fill="#E0E0E0" id="Path"></path>
                </g>
            </g>
        </g>
    </g>
</svg>