<svg height="24" viewBox="0 0 24 24" width="24" xmlns="http://www.w3.org/2000/svg">
    <g id="help" transform="translate(-814 -286)">
        <path
            d="M826,306a8,8,0,1,1,8-8A8.009,8.009,0,0,1,826,306Zm-1-4h0v2h2v-2Zm1-8a2,2,0,0,1,2,2c0,.879-.57,1.316-1.229,1.821A3.583,3.583,0,0,0,825,301h2a3.1,3.1,0,0,1,1.441-2.355A3.413,3.413,0,0,0,830,296a4,4,0,1,0-8,0h2A2,2,0,0,1,826,294Z"
            fill="#d0d0d0" id="Icon" />
        <path
            d="M826,308a10,10,0,1,1,10-10A10.011,10.011,0,0,1,826,308Zm0-18a8,8,0,1,0,8,8A8.009,8.009,0,0,0,826,290Zm1,14h-2v-2h2v2Zm0-3h-2a3.583,3.583,0,0,1,1.77-3.178c.66-.506,1.229-.942,1.229-1.821a2,2,0,1,0-4,0h-2a4,4,0,1,1,8,0,3.413,3.413,0,0,1-1.559,2.645A3.1,3.1,0,0,0,827,301Z"
            data-name="Icon" fill="#1d1d1d" id="Icon-2" />
    </g>
</svg>
