<svg height="24" viewBox="0 0 24 24" width="24" xmlns="http://www.w3.org/2000/svg">
    <g id="import_contacts" transform="translate(-882 -1216)">
        <path
            d="M894,1237.5h0a9.208,9.208,0,0,0-5.5-1.5,12.225,12.225,0,0,0-4.75,1.1.365.365,0,0,0-.125.025.367.367,0,0,1-.125.025.542.542,0,0,1-.5-.5V1222a10.836,10.836,0,0,1,11,0,9.214,9.214,0,0,1,5.5-1.5,11.839,11.839,0,0,1,3.5.5,6.745,6.745,0,0,1,2,1v14.6a.533.533,0,0,1-.5.5.456.456,0,0,1-.25-.049,10.124,10.124,0,0,0-4.75-1.05,11.938,11.938,0,0,0-5.5,1.5Zm-5.5-3.5a12.616,12.616,0,0,1,4.5.99v-11.5a12.614,12.614,0,0,0-4.5-.99,11.556,11.556,0,0,0-3.5.5v11.5A11.56,11.56,0,0,1,888.5,1234Zm11-11.5a12.62,12.62,0,0,0-4.5.99v11.5a12.627,12.627,0,0,1,4.5-.99,11.56,11.56,0,0,1,3.5.5V1223A11.558,11.558,0,0,0,899.5,1222.5Z"
            fill="#1d1d1d" id="Icon" />
        <path
            d="M893,1234.99a12.735,12.735,0,0,0-4.5-.99,11.618,11.618,0,0,0-3.5.5V1223a11.625,11.625,0,0,1,3.5-.5,12.732,12.732,0,0,1,4.5.99Z"
            data-name="Icon" fill="#d0d0d0" id="Icon-2" />
    </g>
</svg>
