<svg height="24" viewBox="0 0 24 24" width="24" xmlns="http://www.w3.org/2000/svg">
    <g id="info" transform="translate(-440 -286)">
        <path
            d="M452,306a8,8,0,1,1,8-8A8.009,8.009,0,0,1,452,306Zm-1-9h0v6h2v-6h-2Zm0-4h0v2h2v-2h-2Z"
            fill="#d0d0d0" id="Icon" />
        <path
            d="M452,308a10,10,0,1,1,10-10A10.011,10.011,0,0,1,452,308Zm0-18a8,8,0,1,0,8,8A8.009,8.009,0,0,0,452,290Zm1,13h-2v-6h2v6Zm0-8h-2v-2h2v2Z"
            data-name="Icon" fill="#1d1d1d" id="Icon-2" />
    </g>
</svg>
