<svg height="24" viewBox="0 0 24 24" width="24" xmlns="http://www.w3.org/2000/svg">
    <g id="location_on" transform="translate(-644 -1260)">
        <path
            d="M656,1278.879h0c-1.5-1.929-5-6.754-5-9.878a5,5,0,1,1,10,0c0,3.164-3.5,7.962-5,9.878Zm0-12.379a2.5,2.5,0,1,0,2.5,2.5A2.5,2.5,0,0,0,656,1266.5Z"
            fill="#d0d0d0" id="Icon" />
        <path
            d="M656,1282h0a45.794,45.794,0,0,1-3.5-4.53c-1.6-2.366-3.5-5.757-3.5-8.469a7,7,0,1,1,14,0c0,2.712-1.9,6.1-3.5,8.469A45.794,45.794,0,0,1,656,1282Zm0-18a5.006,5.006,0,0,0-5,5c0,3.124,3.5,7.95,5,9.879,1.5-1.906,5-6.683,5-9.879A5.006,5.006,0,0,0,656,1264Zm0,7.5a2.5,2.5,0,1,1,2.5-2.5A2.5,2.5,0,0,1,656,1271.5Z"
            data-name="Icon" fill="#1d1d1d" id="Icon-2" />
    </g>
</svg>
