<svg height="24" viewBox="0 0 24 24" width="24" xmlns="http://www.w3.org/2000/svg">
    <g id="place" transform="translate(-542 -3210)">
        <path
            d="M554,3228.88h0c-1.5-1.93-5-6.755-5-9.879a5,5,0,1,1,10,0,11.159,11.159,0,0,1-1.705,5.011,38.039,38.039,0,0,1-3.295,4.868Zm0-12.379a2.5,2.5,0,1,0,2.5,2.5A2.5,2.5,0,0,0,554,3216.5Z"
            fill="#d0d0d0" id="Icon" />
        <path
            d="M554,3232h0a45.764,45.764,0,0,1-3.5-4.531c-1.6-2.366-3.5-5.757-3.5-8.469a7,7,0,1,1,14,0c0,2.712-1.9,6.1-3.5,8.469A45.733,45.733,0,0,1,554,3232Zm0-18a5.006,5.006,0,0,0-5,5c0,3.125,3.5,7.95,5,9.88,1.5-1.906,5-6.684,5-9.88A5.006,5.006,0,0,0,554,3214Zm0,7.5a2.5,2.5,0,1,1,2.5-2.5A2.5,2.5,0,0,1,554,3221.5Z"
            data-name="Icon" fill="#1d1d1d" id="Icon-2" />
    </g>
</svg>
