<svg height="24" viewBox="0 0 24 24" width="24" xmlns="http://www.w3.org/2000/svg">
    <g id="redeem" transform="translate(-678 -374)">
        <path
            d="M698,393H682v-2h16v2Zm0-5H682v-6h5.08L685,384.83l1.62,1.17,2.38-3.24,1-1.36,1,1.36,2.38,3.24,1.62-1.17L692.92,382H698v6Z"
            fill="#d0d0d0" id="Icon" />
        <path
            d="M698,395H682a2,2,0,0,1-2-2l.011-11a1.974,1.974,0,0,1,1.99-2h2.18a3,3,0,0,1,5.32-2.66l.5.68.5-.67a2.991,2.991,0,0,1,5.32,2.65H698a2,2,0,0,1,2,2v11A2,2,0,0,1,698,395Zm-16-4h0v2h16v-2Zm0-9h0v6h16v-6h-5.08L695,384.83,693.38,386,691,382.76l-1-1.36-1,1.36L686.62,386,685,384.83,687.08,382Zm11-4a1,1,0,1,0,1,1A1,1,0,0,0,693,378Zm-6,0a1,1,0,1,0,1,1A1,1,0,0,0,687,378Z"
            data-name="Icon" fill="#1d1d1d" id="Icon-2" />
    </g>
</svg>
