<svg height="24" viewBox="0 0 24 24" width="24" xmlns="http://www.w3.org/2000/svg">
    <g id="share" transform="translate(-916 -4098)">
        <path
            d="M934,4118.02a1,1,0,1,1,1-1A1,1,0,0,1,934,4118.02ZM922,4111a1,1,0,1,1,1-1A1,1,0,0,1,922,4111Zm12-7a1,1,0,1,1,1-1A1,1,0,0,1,934,4104Z"
            fill="#d0d0d0" id="Icon" />
        <path
            d="M934,4119.92a2.924,2.924,0,0,1-2.92-2.921,2.836,2.836,0,0,1,.08-.649l-7.12-4.16a3,3,0,1,1,0-4.381l7.05-4.109a3.325,3.325,0,0,1-.09-.7,3.019,3.019,0,1,1,.961,2.19l-7.051,4.111a2.768,2.768,0,0,1,0,1.4l7.13,4.149a2.916,2.916,0,1,1,1.96,5.07Zm0-3.9a1,1,0,1,0,1,1A1,1,0,0,0,934,4116.02ZM922,4109a1,1,0,1,0,1,1A1,1,0,0,0,922,4109Zm12-7a1,1,0,1,0,1,1A1,1,0,0,0,934,4102Z"
            data-name="Icon" fill="#1d1d1d" id="Icon-2" />
    </g>
</svg>
