<?xml version="1.0" encoding="UTF-8"?>
<svg xmlns:xlink="http://www.w3.org/1999/xlink" height="361px" version="1.1" viewBox="0 0 500 361" width="500px" xmlns="http://www.w3.org/2000/svg">
    <!-- Generator: Sketch 64 (93537) - https://sketch.com -->
    <title>Share link-rafiki-2</title>
    <desc>Created with Sketch.</desc>
    <g fill="none" fill-rule="evenodd" id="Page-1" stroke="none" stroke-width="1">
        <g id="Share-link-rafiki-2">
            <g fill-rule="nonzero" id="freepik--background-complete--inject-2">
                <rect fill="#EBEBEB" height="1" id="Rectangle" width="500" x="0" y="327.4"></rect>
                <rect fill="#EBEBEB" height="1" id="Rectangle" width="33.12" x="416.78" y="343.49"></rect>
                <rect fill="#EBEBEB" height="1" id="Rectangle" width="8.69" x="322.53" y="346.21"></rect>
                <rect fill="#EBEBEB" height="1" id="Rectangle" width="19.19" x="396.59" y="334.21"></rect>
                <rect fill="#EBEBEB" height="1" id="Rectangle" width="43.19" x="52.46" y="335.89"></rect>
                <rect fill="#EBEBEB" height="1" id="Rectangle" width="6.33" x="104.56" y="335.89"></rect>
                <rect fill="#EBEBEB" height="1" id="Rectangle" width="93.68" x="131.47" y="340.11"></rect>
                <path d="M237,282.8 L43.91,282.8 C40.76036,282.794484 38.21,280.239645 38.21,277.09 L38.21,5.66 C38.2374055,2.5298918 40.7797764,0.00536203973 43.91,1.42108547e-14 L237,1.42108547e-14 C240.153546,1.42108547e-14 242.71,2.55645408 242.71,5.71 L242.71,277.09 C242.71,280.243546 240.153546,282.8 237,282.8 Z M43.91,0.2 C40.8984312,0.205515703 38.46,2.6484262 38.46,5.66 L38.46,277.09 C38.46,280.101574 40.8984312,282.544484 43.91,282.55 L237,282.55 C240.013192,282.544496 242.454496,280.103192 242.46,277.09 L242.46,5.66 C242.454496,2.64680786 240.013192,0.205503561 237,0.2 L43.91,0.2 Z" fill="#EBEBEB" id="Shape"></path>
                <path d="M453.31,282.8 L260.21,282.8 C257.058737,282.794496 254.505504,280.241263 254.5,277.09 L254.5,5.66 C254.532848,2.52828036 257.078113,0.00530307708 260.21,-7.10542736e-15 L453.31,-7.10542736e-15 C456.436323,0.0108307119 458.972643,2.53377766 459,5.66 L459,277.09 C459,280.235752 456.455733,282.788982 453.31,282.8 Z M260.21,0.2 C257.196808,0.205503561 254.755504,2.64680786 254.75,5.66 L254.75,277.09 C254.755504,280.103192 257.196808,282.544496 260.21,282.55 L453.31,282.55 C456.323192,282.544496 458.764496,280.103192 458.77,277.09 L458.77,5.66 C458.764496,2.64680786 456.323192,0.205503561 453.31,0.2 L260.21,0.2 Z" fill="#EBEBEB" id="Shape"></path>
                <rect fill="#FAFAFA" height="10.83" id="Rectangle" width="25.46" x="329.46" y="165.07"></rect>
                <rect fill="#FAFAFA" height="10.83" id="Rectangle" width="25.46" x="298.66" y="165.07"></rect>
                <rect fill="#FAFAFA" height="10.83" id="Rectangle" width="25.46" x="267.85" y="165.07"></rect>
                <rect fill="#FAFAFA" height="10.83" id="Rectangle" width="25.46" x="344.87" y="180.15"></rect>
                <rect fill="#FAFAFA" height="10.83" id="Rectangle" width="25.46" x="314.06" y="180.15"></rect>
                <rect fill="#FAFAFA" height="10.83" id="Rectangle" width="25.46" x="283.25" y="180.15"></rect>
                <rect fill="#FAFAFA" height="10.83" id="Rectangle" width="25.46" x="252.44" y="180.15"></rect>
                <rect fill="#FAFAFA" height="10.83" id="Rectangle" width="25.46" x="360.27" y="195.23"></rect>
                <rect fill="#FAFAFA" height="10.83" id="Rectangle" width="25.46" x="392.59" y="226.39"></rect>
                <rect fill="#FAFAFA" height="10.83" id="Rectangle" width="25.46" x="329.46" y="195.23"></rect>
                <rect fill="#FAFAFA" height="10.83" id="Rectangle" width="25.46" x="298.66" y="195.23"></rect>
                <rect fill="#FAFAFA" height="10.83" id="Rectangle" width="25.46" x="267.85" y="195.23"></rect>
                <rect fill="#FAFAFA" height="10.83" id="Rectangle" width="25.46" x="237.04" y="195.23"></rect>
                <rect fill="#FAFAFA" height="10.83" id="Rectangle" width="25.46" x="344.87" y="210.31"></rect>
                <rect fill="#FAFAFA" height="10.83" id="Rectangle" width="25.46" x="314.06" y="210.31"></rect>
                <rect fill="#FAFAFA" height="10.83" id="Rectangle" width="25.46" x="283.25" y="210.31"></rect>
                <rect fill="#FAFAFA" height="10.83" id="Rectangle" width="25.46" x="252.44" y="210.31"></rect>
                <rect fill="#FAFAFA" height="10.83" id="Rectangle" width="25.46" x="162.27" y="11.43"></rect>
                <rect fill="#FAFAFA" height="10.83" id="Rectangle" width="25.46" x="131.47" y="11.43"></rect>
                <rect fill="#FAFAFA" height="10.83" id="Rectangle" width="25.46" x="177.68" y="26.51"></rect>
                <rect fill="#FAFAFA" height="10.83" id="Rectangle" width="25.46" x="146.87" y="26.51"></rect>
                <rect fill="#FAFAFA" height="10.83" id="Rectangle" width="25.46" x="85.26" y="26.51"></rect>
                <rect fill="#FAFAFA" height="10.83" id="Rectangle" width="25.46" x="54.45" y="26.51"></rect>
                <rect fill="#FAFAFA" height="10.83" id="Rectangle" width="25.46" x="162.27" y="41.59"></rect>
                <rect fill="#FAFAFA" height="10.83" id="Rectangle" width="25.46" x="131.47" y="41.59"></rect>
                <rect fill="#FAFAFA" height="10.83" id="Rectangle" width="25.46" x="69.85" y="41.59"></rect>
                <rect fill="#FAFAFA" height="10.83" id="Rectangle" width="25.46" x="52.58" y="92.29"></rect>
                <rect fill="#FAFAFA" height="10.83" id="Rectangle" width="25.46" x="83.39" y="92.29"></rect>
                <rect fill="#FAFAFA" height="10.83" id="Rectangle" width="25.46" x="67.99" y="77.21"></rect>
                <rect fill="#FAFAFA" height="10.83" id="Rectangle" width="25.46" x="187.47" y="75"></rect>
                <rect fill="#FAFAFA" height="10.83" id="Rectangle" width="25.46" x="156.67" y="75"></rect>
                <rect fill="#FAFAFA" height="10.83" id="Rectangle" width="25.46" x="172.07" y="90.08"></rect>
                <rect fill="#FAFAFA" height="10.83" id="Rectangle" width="25.46" x="292.56" y="12.08"></rect>
                <rect fill="#FAFAFA" height="10.83" id="Rectangle" width="25.46" x="261.76" y="12.08"></rect>
                <rect fill="#FAFAFA" height="10.83" id="Rectangle" width="25.46" x="307.97" y="27.16"></rect>
                <rect fill="#FAFAFA" height="10.83" id="Rectangle" width="25.46" x="277.16" y="27.16"></rect>
                <rect fill="#FAFAFA" height="10.83" id="Rectangle" width="25.46" x="386.61" y="18.25"></rect>
                <rect fill="#FAFAFA" height="10.83" id="Rectangle" width="25.46" x="402.01" y="33.33"></rect>
                <rect fill="#FAFAFA" height="10.83" id="Rectangle" width="25.46" x="395.94" y="162.96"></rect>
                <rect fill="#FAFAFA" height="10.83" id="Rectangle" width="25.46" x="371.2" y="33.33"></rect>
                <rect fill="#FAFAFA" height="10.83" id="Rectangle" width="25.46" x="246.35" y="27.16"></rect>
                <rect fill="#FAFAFA" height="10.83" id="Rectangle" width="25.46" x="323.37" y="42.24"></rect>
                <rect fill="#FAFAFA" height="10.83" id="Rectangle" width="25.46" x="292.56" y="42.24"></rect>
                <rect fill="#FAFAFA" height="10.83" id="Rectangle" width="25.46" x="261.76" y="42.24"></rect>
                <rect fill="#FAFAFA" height="10.83" id="Rectangle" width="25.46" x="307.97" y="57.32"></rect>
                <rect fill="#FAFAFA" height="10.83" id="Rectangle" width="25.46" x="277.16" y="57.32"></rect>
                <rect fill="#FAFAFA" height="10.83" id="Rectangle" width="25.46" x="82.32" y="147.27"></rect>
                <rect fill="#FAFAFA" height="10.83" id="Rectangle" width="25.46" x="51.51" y="147.27"></rect>
                <rect fill="#FAFAFA" height="10.83" id="Rectangle" width="25.46" x="159.34" y="162.35"></rect>
                <rect fill="#FAFAFA" height="10.83" id="Rectangle" width="25.46" x="97.72" y="162.35"></rect>
                <rect fill="#FAFAFA" height="10.83" id="Rectangle" width="25.46" x="66.92" y="162.35"></rect>
                <rect fill="#FAFAFA" height="10.83" id="Rectangle" width="25.46" x="174.74" y="177.43"></rect>
                <rect fill="#FAFAFA" height="10.83" id="Rectangle" width="25.46" x="143.94" y="177.43"></rect>
                <rect fill="#FAFAFA" height="10.83" id="Rectangle" width="25.46" x="82.32" y="177.43"></rect>
                <rect fill="#FAFAFA" height="10.83" id="Rectangle" width="25.46" x="51.51" y="177.43"></rect>
                <rect fill="#FAFAFA" height="10.83" id="Rectangle" width="25.46" x="97.72" y="192.51"></rect>
                <rect fill="#FAFAFA" height="10.83" id="Rectangle" width="25.46" x="66.92" y="192.51"></rect>
                <rect fill="#FAFAFA" height="10.83" id="Rectangle" width="25.46" x="156.28" y="222.5"></rect>
                <rect fill="#FAFAFA" height="10.83" id="Rectangle" width="25.46" x="125.47" y="222.5"></rect>
                <rect fill="#FAFAFA" height="10.83" id="Rectangle" width="25.46" x="87.63" y="247.92"></rect>
                <rect fill="#FAFAFA" height="10.83" id="Rectangle" width="25.46" x="56.82" y="247.92"></rect>
                <rect fill="#FAFAFA" height="10.83" id="Rectangle" width="25.46" x="164.65" y="263"></rect>
                <rect fill="#FAFAFA" height="10.83" id="Rectangle" width="25.46" x="140.88" y="237.58"></rect>
                <rect fill="#FAFAFA" height="10.83" id="Rectangle" width="25.46" x="72.22" y="263"></rect>
                <rect fill="#FAFAFA" height="10.83" id="Rectangle" width="25.46" x="180.05" y="278.08"></rect>
                <rect fill="#FAFAFA" height="10.83" id="Rectangle" width="25.46" x="149.24" y="278.08"></rect>
                <rect fill="#FAFAFA" height="10.83" id="Rectangle" width="25.46" x="118.43" y="278.08"></rect>
                <rect fill="#FAFAFA" height="10.83" id="Rectangle" width="25.46" x="164.65" y="293.16"></rect>
                <rect fill="#FAFAFA" height="10.83" id="Rectangle" width="25.46" x="133.84" y="293.16"></rect>
                <rect fill="#FAFAFA" height="10.83" id="Rectangle" width="25.46" x="103.03" y="293.16"></rect>
                <rect fill="#FAFAFA" height="10.83" id="Rectangle" width="25.46" x="323.41" y="247.23"></rect>
                <rect fill="#FAFAFA" height="10.83" id="Rectangle" width="25.46" x="292.6" y="247.23"></rect>
                <rect fill="#FAFAFA" height="10.83" id="Rectangle" width="25.46" x="261.79" y="247.23"></rect>
                <rect fill="#FAFAFA" height="10.83" id="Rectangle" width="25.46" x="338.81" y="262.31"></rect>
                <rect fill="#FAFAFA" height="10.83" id="Rectangle" width="25.46" x="308" y="262.31"></rect>
                <rect fill="#FAFAFA" height="10.83" id="Rectangle" width="25.46" x="277.2" y="262.31"></rect>
                <rect fill="#FAFAFA" height="10.83" id="Rectangle" width="25.46" x="246.39" y="262.31"></rect>
                <rect fill="#FAFAFA" height="10.83" id="Rectangle" width="25.46" x="292.6" y="277.39"></rect>
                <rect fill="#FAFAFA" height="10.83" id="Rectangle" width="25.46" x="261.79" y="277.39"></rect>
                <rect fill="#FAFAFA" height="10.83" id="Rectangle" width="25.46" x="308" y="292.47"></rect>
                <rect fill="#FAFAFA" height="10.83" id="Rectangle" width="25.46" x="277.2" y="292.47"></rect>
                <rect fill="#FAFAFA" height="10.83" id="Rectangle" width="25.46" x="246.39" y="292.47"></rect>
                <rect fill="#F5F5F5" height="87.54" id="Rectangle" transform="translate(398.235000, 97.650000) rotate(180.000000) translate(-398.235000, -97.650000) " width="70.21" x="363.13" y="53.88"></rect>
                <path d="M420.48,130 C411.64,136.34 411.62,139.81 405.28,132.71 C398.94,125.61 394.54,117 383.05,121.5 C371.56,126 365.15,114.38 372.51,103.71 C379.87,93.04 377.17,78.47 372.51,71.49 C367.85,64.51 370.02,55.12 377.45,60.38 C384.88,65.64 394.94,65.63 402.13,61.93 C409.32,58.23 417.73,49.05 417.13,65.08 C416.53,81.11 424.73,76.08 426.85,84.18 C428.97,92.28 418.73,87.18 420.52,104.9 C422.31,122.62 428.32,124.37 420.48,130 Z" fill="#E0E0E0" id="Path"></path>
                <path d="M377.23,132.7 C387.98,137.47 392.54,139.82 397.57,129.2 C402.6,118.58 412.75,104.44 420.08,108.36 C427.41,112.28 425.19,94.44 411.08,98.92 C396.97,103.4 393.63,101.13 388.66,90.41 C383.69,79.69 384.88,73.74 378.92,77.64 C372.96,81.54 381.18,93.58 377.8,103.3 C374.42,113.02 367.58,128.43 377.23,132.7 Z" fill="#EBEBEB" id="Path"></path>
                <path d="M414.91,78.49 C410.57,86.81 416.42,100.1 405.11,94.49 C393.8,88.88 398.52,67.49 388.78,72.49 C379.04,77.49 385.63,92.24 377.32,92.97 C369.01,93.7 369.9,60.97 382.04,60.3 C394.18,59.63 404.64,70.41 408.29,66.68 C411.94,62.95 422.14,54.45 424.29,65 C426.44,75.55 418.24,72.11 414.91,78.49 Z" fill="#EBEBEB" id="Path"></path>
                <rect fill="#F5F5F5" height="83.31" id="Rectangle" width="62.12" x="282.49" y="77.34"></rect>
                <path d="M335.84,152.28 C334.04,155.62 289.59,138.86 290.84,135.28 C292.09,131.7 325.57,128.65 328.52,123.75 C331.47,118.85 293,112.29 293.65,109 C294.3,105.71 330.75,108.61 331.43,105.3 C332.11,101.99 293.08,96.23 295.68,91.3 C298.28,86.37 330.68,89.89 334.27,98.3 C337.86,106.71 318.21,106.16 317.65,111.75 C317.09,117.34 338.56,118.43 335.84,127.41 C333.12,136.39 304.9,129.91 307.53,137.74 C310.16,145.57 339.24,146 335.84,152.28 Z" fill="#E6E6E6" id="Path"></path>
                <path d="M301.84,151.84 C296.04,153.2 289.33,142.84 296.22,145.15 C303.11,147.46 307.64,150.48 301.84,151.84 Z" fill="#EBEBEB" id="Path"></path>
                <path d="M328,138.72 C327.71,141.61 336.27,141.1 336.36,138.72 C336.45,136.34 328.32,135.71 328,138.72 Z" fill="#EBEBEB" id="Path"></path>
                <path d="M295.68,121.32 C298.82,126.49 308.03,124.26 307.93,121.87 C307.83,119.48 292.3,115.74 295.68,121.32 Z" fill="#EBEBEB" id="Path"></path>
                <path d="M402.62,293.45 C402.78,292.45 406.27,268.28 399.26,259.95 C397.847361,258.170439 395.711782,257.117327 393.44,257.08 C379.29,256.75 377.35,268.08 377.34,268.23 L379.01,268.49 C379.07,268.08 380.75,258.49 393.4,258.77 C395.193489,258.771571 396.887854,259.592969 398,261 C404.53,268.76 401,292.93 401,293.18 L402.62,293.45 Z" fill="#EBEBEB" id="Path"></path>
                <path d="M403.48,292.35 L405.17,292.3 C405.17,292.08 404.61,270.05 415.46,265.5 C426.1,261.04 430.88,270.21 431.08,270.6 L432.59,269.84 C432.53,269.73 426.92,258.84 414.81,263.94 C402.88,268.94 403.45,291.4 403.48,292.35 Z" fill="#EBEBEB" id="Path"></path>
                <path d="M403.43,294.08 C403.43,293.73 403.53,258.89 410.32,248.7 C416.85,238.92 427.37,243.53 427.81,243.7 L428.51,242.16 C428.39,242.11 416.25,236.75 408.92,247.74 C401.84,258.35 401.74,292.6 401.74,294.05 L403.43,294.08 Z" fill="#EBEBEB" id="Path"></path>
                <path d="M391.42,257.92 C391.42,257.92 397.6,260.19 395.76,265.57 C393.92,270.95 374.38,279.8 374.38,279.8 C374.38,279.8 366.2,272.3 373.71,260.1 C381.22,247.9 391.25,254.07 391.42,257.92 Z" fill="#E0E0E0" id="Path"></path>
                <path d="M410.63,246.87 C410.63,246.87 406.24,246.4 406.63,243.73 C407.02,241.06 423.63,234.18 433.53,245.3 C433.53,245.3 427.23,256.14 418.1,256.3 C408.97,256.46 410.63,246.87 410.63,246.87 Z" fill="#E0E0E0" id="Path"></path>
                <path d="M415.13,264.72 C415.13,264.72 412.13,262.28 415.37,261.08 C418.61,259.88 434.67,260.23 434.84,276.08 C434.84,276.08 416.17,279.18 413.84,273.13 C411.51,267.08 415.13,264.72 415.13,264.72 Z" fill="#E0E0E0" id="Path"></path>
                <polygon fill="#EBEBEB" id="Path" points="388.1 325.81 417.07 325.81 420.2 294.08 384.97 294.08"></polygon>
                <rect fill="#E0E0E0" height="7" id="Rectangle" transform="translate(402.590000, 294.090000) rotate(180.000000) translate(-402.590000, -294.090000) " width="38.32" x="383.43" y="290.59"></rect>
            </g>
            <g fill-rule="nonzero" id="freepik--Device--inject-2" transform="translate(85.000000, 48.000000)">
                <rect fill="#263238" height="312.25" id="Rectangle" rx="10.4" width="173.6" x="0.62" y="0.08"></rect>
                <path d="M168.360227,10.55 L168.360227,301.31 C168.360227,302.447643 167.90412,303.537841 167.094066,304.336618 C166.284012,305.135395 165.18753,305.576061 164.05,305.560424 L10.33,305.560424 C9.29596424,305.573968 8.30089743,305.165904 7.57438983,304.429961 C6.84788223,303.694019 6.45269172,302.693769 6.48,301.66 L6.48,10.2 C6.44213529,9.28843873 6.7689979,8.39935211 7.38829246,7.72938799 C8.00758702,7.05942387 8.8682787,6.66379268 9.78,6.63 L48.21,6.63 C49.3104483,6.64481011 50.28998,7.33087889 50.68,8.36 L52.28,12.27 C52.6732419,13.2951893 53.6520574,13.9767936 54.75,13.99 L120.18,13.99 C121.270491,13.9816694 122.24719,13.3134017 122.65,12.3 L124.24,8.37 C124.635014,7.33894466 125.616059,6.65063052 126.72,6.63 L164.59,6.63 C166.705417,6.68987582 168.382664,8.43385688 168.360227,10.55 L168.360227,10.55 Z" fill="#08A434" id="Path"></path>
                <rect fill="#FFFFFF" height="264.42" id="Rectangle" opacity="0.5" width="161.89" x="6.48" y="24.79"></rect>
                <rect fill="#FFFFFF" height="2.67" id="Rectangle" opacity="0.6" transform="translate(25.320000, 17.005000) rotate(180.000000) translate(-25.320000, -17.005000) " width="2" x="24.32" y="15.67"></rect>
                <rect fill="#FFFFFF" height="3.56" id="Rectangle" opacity="0.6" transform="translate(22.060000, 16.560000) rotate(180.000000) translate(-22.060000, -16.560000) " width="2" x="21.06" y="14.78"></rect>
                <rect fill="#FFFFFF" height="4.44" id="Rectangle" opacity="0.6" transform="translate(18.800000, 16.120000) rotate(180.000000) translate(-18.800000, -16.120000) " width="2" x="17.8" y="13.9"></rect>
                <rect fill="#FFFFFF" height="5.33" id="Rectangle" opacity="0.6" transform="translate(15.540000, 15.685000) rotate(180.000000) translate(-15.540000, -15.685000) " width="2" x="14.54" y="13.02"></rect>
                <rect fill="#FFFFFF" height="2.67" id="Rectangle" opacity="0.6" width="1.19" x="148.86" y="14.71"></rect>
                <rect fill="#FFFFFF" height="4.61" id="Rectangle" opacity="0.6" transform="translate(155.580000, 16.045000) rotate(180.000000) translate(-155.580000, -16.045000) " width="9.44" x="150.86" y="13.74"></rect>
                <path d="M87.3900228,7 C87.3900228,8.22607214 86.3960721,9.22 85.17,9.22 C83.9439279,9.22 82.95,8.22607214 82.95,7 C82.95,5.77392786 83.9439279,4.77997724 85.17,4.77997724 C85.7595963,4.77732605 86.3258169,5.01035948 86.7427287,5.42727129 C87.1596405,5.8441831 87.3926739,6.41040373 87.3900228,7 Z" fill="#FFFFFF" id="Path" opacity="0.6"></path>
                <path d="M91.89,7 C91.89,7.57433639 91.5440281,8.09211992 91.0134105,8.31190894 C90.4827928,8.53169796 89.8720255,8.41020878 89.4659084,8.00409163 C89.0597912,7.59797447 88.938302,6.98720716 89.1580911,6.45658953 C89.3778801,5.92597189 89.8956636,5.58 90.47,5.58 C91.2542443,5.58 91.89,6.21575566 91.89,7 Z" fill="#FFFFFF" id="Path" opacity="0.6"></path>
                <rect fill="#FFFFFF" height="15.38" id="Rectangle" rx="7.69" width="125.13" x="14.54" y="39.96"></rect>
                <path d="M129,50.7500162 C127.254433,50.7449569 125.729491,49.5690704 125.280832,47.8821406 C124.832172,46.1952107 125.571468,44.4171223 127.083895,43.5455758 C128.596322,42.6740294 130.505429,42.925957 131.74,44.16 L131.74,44.16 C132.84573,45.2652574 133.175568,46.9283469 132.575348,48.3719428 C131.975127,49.8155387 130.563398,50.7545168 129,50.7500162 L129,50.7500162 Z M129,44.0299624 C127.848644,44.0454439 126.817983,44.7475122 126.382088,45.8132771 C125.946192,46.879042 126.189461,48.102145 127,48.92 C127.919128,49.8321314 129.336429,50.0129095 130.45509,49.3607001 C131.573751,48.7084907 132.11463,47.3860415 131.773643,46.1368388 C131.432655,44.887636 130.294889,44.0233969 129,44.0299624 Z" fill="#08A434" id="Shape"></path>
                <path d="M133.86,52.26 C133.726843,52.2593157 133.598634,52.2094567 133.5,52.12 L131.01,49.62 C130.913323,49.5292667 130.858481,49.4025859 130.858481,49.27 C130.858481,49.1374141 130.913323,49.0107333 131.01,48.92 C131.103883,48.8253437 131.231681,48.7721008 131.365,48.7721008 C131.498319,48.7721008 131.626117,48.8253437 131.72,48.92 L134.21,51.41 C134.304656,51.5038833 134.357899,51.6316812 134.357899,51.765 C134.357899,51.8983188 134.304656,52.0261167 134.21,52.12 C134.113938,52.2071948 133.989696,52.2568917 133.86,52.26 L133.86,52.26 Z" fill="#08A434" id="Path"></path>
                <rect fill="#000000" height="15.38" id="Rectangle" opacity="0.2" rx="2.27" width="15.38" x="144.42" y="39.96"></rect>
                <path d="M149.49,44 C149.49,44.5522847 149.042285,45 148.49,45 C147.937715,45 147.49,44.5522847 147.49,44 C147.49,43.4477153 147.937715,43 148.49,43 C149.042285,43 149.49,43.4477153 149.49,44 Z" fill="#FFFFFF" id="Path"></path>
                <circle cx="156.09" cy="47.65" fill="#FFFFFF" id="Oval" r="1.02"></circle>
                <circle cx="148.86" cy="51.76" fill="#FFFFFF" id="Oval" r="1.02"></circle>
                <polygon fill="#FFFFFF" id="Path" points="148.98 51.98 148.73 51.55 155.55 47.66 148.36 44.17 148.58 43.72 156.62 47.63"></polygon>
                <rect fill="#FFFFFF" height="220.28" id="Rectangle" opacity="0.6" width="161.89" x="6.48" y="68.93"></rect>
                <rect fill="#FFFFFF" height="16.09" id="Rectangle" opacity="0.2" transform="translate(86.812453, 108.001414) rotate(135.000000) translate(-86.812453, -108.001414) " width="16.09" x="78.7674531" y="99.9564142"></rect>
                <rect fill="#000000" height="36.4" id="Rectangle" opacity="0.2" rx="4.69" transform="translate(38.520000, 108.010000) rotate(180.000000) translate(-38.520000, -108.010000) " width="36.4" x="20.32" y="89.81"></rect>
                <path d="M22.28,136.9 L54.76,136.9 C55.8645695,136.9 56.76,136.004569 56.76,134.9 L56.76,134.9 C56.76,133.795431 55.8645695,132.9 54.76,132.9 L22.28,132.9 C21.1754305,132.9 20.28,133.795431 20.28,134.9 L20.28,134.9 C20.28,136.004569 21.1754305,136.9 22.28,136.9 Z" fill="#000000" id="Path" opacity="0.2"></path>
                <rect fill="#000000" height="36.4" id="Rectangle" opacity="0.2" rx="4.69" transform="translate(86.810000, 176.010000) rotate(180.000000) translate(-86.810000, -176.010000) " width="36.4" x="68.61" y="157.81"></rect>
                <path d="M70.57,204.9 L103,204.9 C104.104569,204.9 105,204.004569 105,202.9 L105,202.9 C105,201.795431 104.104569,200.9 103,200.9 L70.57,200.9 C69.4654305,200.9 68.57,201.795431 68.57,202.9 L68.57,202.9 C68.57,204.004569 69.4654305,204.9 70.57,204.9 Z" fill="#000000" id="Path" opacity="0.2"></path>
                <rect fill="#000000" height="36.4" id="Rectangle" opacity="0.2" rx="4.69" transform="translate(38.520000, 176.010000) rotate(180.000000) translate(-38.520000, -176.010000) " width="36.4" x="20.32" y="157.81"></rect>
                <path d="M22.28,204.9 L54.76,204.9 C55.8645695,204.9 56.76,204.004569 56.76,202.9 L56.76,202.9 C56.76,201.795431 55.8645695,200.9 54.76,200.9 L22.28,200.9 C21.1754305,200.9 20.28,201.795431 20.28,202.9 L20.28,202.9 C20.28,204.004569 21.1754305,204.9 22.28,204.9 Z" fill="#000000" id="Path" opacity="0.2"></path>
                <polygon fill="#FFFFFF" id="Path" opacity="0.2" points="32.59 165.74 44.45 165.74 50.37 176 44.45 186.27 32.59 186.27 26.67 176"></polygon>
                <polygon fill="#FFFFFF" id="Path" opacity="0.2" points="96.35 169.23 96.35 183.8 77.26 183.8"></polygon>
                <rect fill="#000000" height="36.4" id="Rectangle" opacity="0.2" rx="4.69" transform="translate(135.100000, 108.010000) rotate(180.000000) translate(-135.100000, -108.010000) " width="36.4" x="116.9" y="89.81"></rect>
                <path d="M118.86,136.9 L151.33,136.9 C152.434569,136.9 153.33,136.004569 153.33,134.9 L153.33,134.9 C153.33,133.795431 152.434569,132.9 151.33,132.9 L118.86,132.9 C117.755431,132.9 116.86,133.795431 116.86,134.9 L116.86,134.9 C116.86,136.004569 117.755431,136.9 118.86,136.9 Z" fill="#000000" id="Path" opacity="0.2"></path>
                <circle cx="135.65994" cy="107.540132" fill="#FFFFFF" id="Oval" opacity="0.2" r="10.21" transform="translate(135.659940, 107.540132) rotate(-13.280000) translate(-135.659940, -107.540132) "></circle>
                <path d="M34.11,97.32 C34.11,97.32 48.11,113.14 47.67,113.14 C47.23,113.14 29.36,116.84 29.36,116.84 L34.11,97.32 Z" fill="#FFFFFF" id="Path" opacity="0.2"></path>
                <rect fill="#000000" height="36.4" id="Rectangle" opacity="0.2" rx="4.69" transform="translate(86.810000, 108.010000) rotate(180.000000) translate(-86.810000, -108.010000) " width="36.4" x="68.61" y="89.81"></rect>
                <path d="M70.57,136.9 L103,136.9 C104.104569,136.9 105,136.004569 105,134.9 L105,134.9 C105,133.795431 104.104569,132.9 103,132.9 L70.57,132.9 C69.4654305,132.9 68.57,133.795431 68.57,134.9 L68.57,134.9 C68.57,136.004569 69.4654305,136.9 70.57,136.9 Z" fill="#000000" id="Path" opacity="0.2"></path>
                <g fill="#000000" id="Group" opacity="0.2" transform="translate(23.000000, 44.000000)">
                    <path d="M3.27,3.67 L3.27,5.35 L2.88,5.35 L2.88,3.71 C2.91772253,3.46441851 2.8406482,3.21510959 2.67090977,3.03366505 C2.50117133,2.85222052 2.2575484,2.75871513 2.01,2.78 C1.73588874,2.77965714 1.47365364,2.89184953 1.28461125,3.09034405 C1.09556885,3.28883856 0.996294212,3.55623139 1.01,3.83 L1.01,5.35 L0.61,5.35 L0.61,1.26 L1.01,1.26 L1.01,3 C1.24904944,2.64260403 1.66104596,2.44042055 2.09,2.47 C2.41262947,2.4484851 2.72860298,2.56872136 2.95531381,2.79927475 C3.18202465,3.02982814 3.29693382,3.34777766 3.27,3.67 Z" id="Path"></path>
                    <path d="M5.86,5.17 C5.68960361,5.31297527 5.47229764,5.38778552 5.25,5.38 C5.01955309,5.40517414 4.79002826,5.32518522 4.62514123,5.16223804 C4.4602542,4.99929086 4.37755471,4.77072868 4.4,4.54 L4.4,2.78 L3.89,2.78 L3.89,2.45 L4.4,2.45 L4.4,1.82 L4.79,1.82 L4.79,2.45 L5.68,2.45 L5.68,2.78 L4.79,2.78 L4.79,4.51 C4.7710865,4.65194847 4.81791983,4.79477591 4.91721396,4.89796393 C5.01650808,5.00115194 5.15742931,5.05344198 5.3,5.04 C5.4568765,5.04441273 5.60990597,4.99103036 5.73,4.89 L5.86,5.17 Z" id="Path"></path>
                    <path d="M8,5.17 C7.82274585,5.30757513 7.60437375,5.38153987 7.38,5.38 C7.15027963,5.4057742 6.92131599,5.32559611 6.75785994,5.16214006 C6.59440389,4.99868401 6.5142258,4.76972037 6.54,4.54 L6.54,2.78 L6.02,2.78 L6.02,2.45 L6.54,2.45 L6.54,1.82 L7,1.82 L7,2.45 L7.88,2.45 L7.88,2.78 L7,2.78 L7,4.51 C6.97758668,4.65087538 7.02179776,4.79417781 7.1196852,4.89793849 C7.21757264,5.00169918 7.35805891,5.05417595 7.5,5.04 C7.6568765,5.04441273 7.80990597,4.99103036 7.93,4.89 L8,5.17 Z" id="Path"></path>
                    <path d="M11.67,3.9 C11.6926174,4.29201246 11.5495671,4.67550411 11.2757407,4.95693686 C11.0019142,5.2383696 10.6224849,5.39187091 10.23,5.38 C9.78924061,5.39385989 9.37284046,5.17808891 9.13,4.81 L9.13,6.42 L8.74,6.42 L8.74,2.42 L9.11,2.42 L9.11,3 C9.34778327,2.61262554 9.77577265,2.38334551 10.23,2.4 C10.626195,2.38764833 11.0090562,2.54382669 11.2835671,2.82977559 C11.558078,3.11572449 11.6985059,3.50463884 11.67,3.9 L11.67,3.9 Z M11.28,3.9 C11.2690029,3.30626037 10.7807098,2.8327839 10.1869132,2.84008157 C9.59311654,2.84737924 9.11660704,3.33271299 9.12018478,3.92654356 C9.12380301,4.52037413 9.60615854,4.99989817 10.2,5 C10.4907876,5.00283248 10.770203,4.88718753 10.9739355,4.67968214 C11.1776681,4.47217676 11.2881671,4.19068667 11.28,3.9 L11.28,3.9 Z" id="Shape"></path>
                    <path d="M12.07,5 L12.25,4.69 C12.5415472,4.90005954 12.8906917,5.01527723 13.25,5.02 C13.8,5.02 14.03,4.83 14.03,4.54 C14.03,3.79 12.15,4.38 12.15,3.24 C12.15,2.76 12.56,2.41 13.29,2.41 C13.6412598,2.41062334 13.9861604,2.50374649 14.29,2.68 L14.12,3 C13.8663149,2.82924336 13.5656919,2.74185295 13.26,2.75 C12.74,2.75 12.51,2.95 12.51,3.23 C12.51,4.01 14.39,3.42 14.39,4.53 C14.39,5.03 13.95,5.36 13.19,5.36 C12.7890181,5.35499737 12.3987995,5.22956998 12.07,5 Z" id="Path"></path>
                    <path d="M14.92,2.73 C14.917287,2.65136961 14.9466385,2.57501152 15.0013209,2.51844354 C15.0560033,2.46187556 15.1313228,2.42995321 15.21,2.43 C15.3756854,2.43000004 15.5099999,2.5643146 15.5099999,2.73 C15.5099999,2.8956854 15.3756854,3.02999996 15.21,3.03 C15.1313228,3.03004679 15.0560033,2.99812444 15.0013209,2.94155646 C14.9466385,2.88498848 14.917287,2.80863039 14.92,2.73 Z M14.92,5.08 C14.917287,5.00136961 14.9466385,4.92501152 15.0013209,4.86844354 C15.0560033,4.81187556 15.1313228,4.77995321 15.21,4.78 C15.2903973,4.7771764 15.3683551,4.8078758 15.4252397,4.86476035 C15.4821242,4.9216449 15.5128236,4.99960266 15.51,5.08 C15.51,5.24568542 15.3756854,5.38 15.21,5.38 C15.1313228,5.38004679 15.0560033,5.34812444 15.0013209,5.29155646 C14.9466385,5.23498848 14.917287,5.15863039 14.92,5.08 L14.92,5.08 Z" id="Shape"></path>
                    <polygon id="Path" points="17.73 0.71 18.08 0.71 16.27 5.9 15.91 5.9"></polygon>
                    <polygon id="Path" points="19.21 0.71 19.57 0.71 17.75 5.9 17.4 5.9"></polygon>
                    <path d="M24.33,3.67 L24.33,5.35 L23.94,5.35 L23.94,3.71 C23.94,3.1 23.63,2.78 23.11,2.78 C22.8291566,2.75629829 22.5527163,2.861234 22.3583426,3.06532633 C22.163969,3.26941865 22.0726349,3.55064603 22.11,3.83 L22.11,5.35 L21.72,5.35 L21.72,3.71 C21.72,3.1 21.41,2.78 20.88,2.78 C20.6001605,2.76008085 20.3260504,2.86619673 20.1325694,3.06935181 C19.9390884,3.27250688 19.8464619,3.55146438 19.88,3.83 L19.88,5.35 L19.49,5.35 L19.49,2.45 L19.87,2.45 L19.87,3 C20.0929913,2.63320112 20.5017091,2.42113057 20.93,2.45 C21.3600031,2.41639898 21.7630984,2.66228707 21.93,3.06 C22.168757,2.66233686 22.606689,2.42800486 23.07,2.45 C23.4112578,2.39296687 23.7593258,2.50133803 24.007892,2.74201322 C24.2564581,2.98268841 24.375998,3.32708036 24.33,3.67 Z" id="Path"></path>
                    <path d="M27.78,2.45 L26.33,5.7 C26.09,6.27 25.78,6.45 25.33,6.45 C25.0670327,6.45688862 24.8119418,6.3598822 24.62,6.18 L24.81,5.89 C24.9454676,6.03206483 25.1337069,6.11170454 25.33,6.11 C25.59,6.11 25.77,5.99 25.93,5.63 L26.06,5.35 L24.77,2.45 L25.17,2.45 L26.27,4.92 L27.36,2.45 L27.78,2.45 Z" id="Path"></path>
                    <polygon id="Path" points="28.34 1.26 28.73 1.26 28.73 5.35 28.34 5.35"></polygon>
                    <path d="M29.73,1.54 C29.7353909,1.38375571 29.8636628,1.25990703 30.02,1.26 C30.0933249,1.25728238 30.1645979,1.28452443 30.2174167,1.33545679 C30.2702354,1.38638915 30.3000503,1.45662478 30.3,1.53 C30.3027152,1.60597766 30.2744184,1.67979319 30.221611,1.73448652 C30.1688037,1.78917985 30.0960261,1.8200485 30.02,1.82 C29.8636628,1.82009297 29.7353909,1.69624429 29.73,1.54 Z M29.82,2.45 L30.21,2.45 L30.21,5.35 L29.82,5.35 L29.82,2.45 Z" id="Shape"></path>
                    <path d="M34,3.67 L34,5.35 L33.61,5.35 L33.61,3.71 C33.6477225,3.46441851 33.5706482,3.21510959 33.4009098,3.03366505 C33.2311713,2.85222052 32.9875484,2.75871513 32.74,2.78 C32.4658887,2.77965714 32.2036536,2.89184953 32.0146112,3.09034405 C31.8255689,3.28883856 31.7262942,3.55623139 31.74,3.83 L31.74,5.35 L31.35,5.35 L31.35,2.45 L31.73,2.45 L31.73,3 C31.9651961,2.62460665 32.3880766,2.40932203 32.83,2.44 C33.1566925,2.42032588 33.4754162,2.5458288 33.7009851,2.78296536 C33.9265541,3.02010191 34.035974,3.34469867 34,3.67 Z" id="Path"></path>
                    <polygon id="Path" points="36.11 3.9 35.43 4.52 35.43 5.35 35 5.35 35 1.26 35.4 1.26 35.4 4 37.13 2.42 37.61 2.42 36.37 3.61 37.73 5.32 37.25 5.32"></polygon>
                    <polygon id="Path" points="39.48 0.71 39.84 0.71 38 5.9 37.65 5.9"></polygon>
                </g>
            </g>
            <g fill-rule="nonzero" id="freepik--Window--inject-2" transform="translate(116.000000, 121.000000)">
                <path d="M168.15,13.56 L168.15,97.56 C168.15,100.21649 165.99649,102.37 163.34,102.37 L5.34,102.37 C2.68351035,102.37 0.53,100.21649 0.53,97.56 L0.53,13.56 C0.53,12.2852263 1.03708255,11.0628096 1.93942114,10.162347 C2.84175973,9.26188439 4.06522911,8.75734422 5.34,8.75998957 L163.34,8.75998957 C164.614771,8.75734422 165.83824,9.26188439 166.740579,10.162347 C167.642917,11.0628096 168.15,12.2852263 168.15,13.56 Z" fill="#000000" id="Path" opacity="0.2"></path>
                <path d="M175.15,5.56 L175.15,89.56 C175.15,90.8356913 174.643234,92.0591336 173.741184,92.9611836 C172.839134,93.8632336 171.615691,94.37 170.34,94.37 L12.34,94.37 C9.68351035,94.37 7.53,92.2164896 7.53,89.56 L7.53,5.56 C7.53,4.28522634 8.03708255,3.06280965 8.93942114,2.16234702 C9.84175973,1.26188439 11.0652291,0.757344222 12.34,0.759989568 L170.34,0.759989568 C171.614771,0.757344222 172.83824,1.26188439 173.740579,2.16234702 C174.642917,3.06280965 175.15,4.28522634 175.15,5.56 L175.15,5.56 Z" fill="#08A434" id="Path"></path>
                <path d="M175.15,17 L175.15,89.62 C175.15,90.8956913 174.643234,92.1191336 173.741184,93.0211836 C172.839134,93.9232336 171.615691,94.43 170.34,94.43 L12.34,94.43 C9.68351035,94.43 7.53,92.2764896 7.53,89.62 L7.53,17 L175.15,17 Z" fill="#FFFFFF" id="Path" opacity="0.5"></path>
                <rect fill="#FFFFFF" height="19.54" id="Rectangle" width="113.73" x="17.64" y="29.93"></rect>
                <path d="M138.09,39.6 C138.080992,38.8706893 138.372975,38.169909 138.89716,37.6627551 C139.421345,37.1556012 140.131384,36.8869165 140.86,36.92 C141.579823,36.895144 142.276816,37.1746672 142.78,37.69 L142.43,38.05 C142.021216,37.6307362 141.455294,37.4021911 140.87,37.42 C139.666019,37.42 138.69,38.3960192 138.69,39.6 C138.69,40.8039808 139.666019,41.78 140.87,41.78 C141.456189,41.8028807 142.024094,41.5735343 142.43,41.15 L142.78,41.51 C142.273736,42.0268971 141.57304,42.3064493 140.85,42.28 C140.122277,42.3132082 139.413175,42.0442373 138.890543,41.5367539 C138.367911,41.0292706 138.078205,40.3283849 138.09,39.6 L138.09,39.6 Z" fill="#FFFFFF" id="Path"></path>
                <path d="M143.39,39.6 C143.353312,38.4712622 144.005534,37.4332687 145.038414,36.9765921 C146.071294,36.5199156 147.277995,36.736007 148.088211,37.522738 C148.898426,38.3094691 149.149908,39.5092943 148.723801,40.5551566 C148.297694,41.6010189 147.279328,42.2834809 146.15,42.28 C145.423079,42.3102542 144.715691,42.0403116 144.193726,41.533476 C143.671761,41.0266404 143.381134,40.3274965 143.39,39.6 L143.39,39.6 Z M148.39,39.6 C148.402171,38.7035088 147.871507,37.888501 147.046725,37.5369625 C146.221943,37.185424 145.266504,37.3670253 144.628213,37.9966517 C143.989922,38.626278 143.79528,39.5791455 144.135513,40.4086549 C144.475747,41.2381643 145.283426,41.7799174 146.18,41.78 C146.761467,41.790974 147.322357,41.5648218 147.73359,41.1535895 C148.144822,40.7423572 148.370974,40.1814667 148.36,39.6 L148.39,39.6 Z" fill="#FFFFFF" id="Shape"></path>
                <path d="M154.28,38.78 C154.28,39.9 153.47,40.57 152.13,40.57 L150.71,40.57 L150.71,42.24 L150.16,42.24 L150.16,37 L152.16,37 C153.47,37 154.28,37.65 154.28,38.78 Z M153.72,38.78 C153.72,37.93 153.17,37.45 152.11,37.45 L150.71,37.45 L150.71,40.08 L152.11,40.08 C153.17,40.08 153.72,39.6 153.72,38.78 L153.72,38.78 Z" fill="#FFFFFF" id="Shape"></path>
                <polygon fill="#FFFFFF" id="Path" points="157.29 40.42 157.29 42.24 156.74 42.24 156.74 40.42 154.63 37 155.22 37 157.03 40 158.84 37 159.39 37"></polygon>
                <path d="M164.07,30.93 L164.07,48.47 L132.36,48.47 L132.36,30.93 L164.07,30.93 M165.07,29.93 L131.36,29.93 L131.36,49.47 L165.07,49.47 L165.07,29.93 Z" fill="#FFFFFF" id="Shape"></path>
                <rect fill="#08A434" height="19.79" id="Rectangle" rx="4.31" width="82" x="51" y="66"></rect>
            </g>
            <g fill-rule="nonzero" id="freepik--speech-bubble--inject-2" transform="translate(328.000000, 120.000000)">
                <rect fill="#08A434" height="22.59" id="Rectangle" rx="3.05" width="22.59" x="0.72" y="0.14"></rect>
                <circle cx="6.81" cy="6.09" fill="#FFFFFF" id="Oval" r="1.4"></circle>
                <circle cx="17.23" cy="11.15" fill="#FFFFFF" id="Oval" r="1.4"></circle>
                <path d="M8.74,16.78 C8.74,17.5531986 8.11319865,18.18 7.34,18.18 C6.56680135,18.18 5.94,17.5531986 5.94,16.78 C5.94,16.0068014 6.56680135,15.38 7.34,15.38 C8.11319865,15.38 8.74,16.0068014 8.74,16.78 Z" fill="#FFFFFF" id="Path"></path>
                <polygon fill="#FFFFFF" id="Path" points="7.46 17 7.21 16.57 16.69 11.17 6.7 6.31 6.92 5.86 17.76 11.13"></polygon>
                <path d="M12.59,20 C12.59,20 12.59,24.7 15.27,26.9 C15.27,26.9 11.55,26.26 9.84,20.8 L12.59,20 Z" fill="#08A434" id="Path"></path>
            </g>
            <g fill-rule="nonzero" id="freepik--Character--inject-2" transform="translate(273.000000, 153.000000)">
                <rect fill="#08A434" height="76.25" id="Rectangle" transform="translate(71.255000, 169.205000) rotate(180.000000) translate(-71.255000, -169.205000) " width="7.29" x="67.61" y="131.08"></rect>
                <rect fill="#000000" height="76.25" id="Rectangle" opacity="0.2" transform="translate(71.255000, 169.205000) rotate(180.000000) translate(-71.255000, -169.205000) " width="7.29" x="67.61" y="131.08"></rect>
                <rect fill="#08A434" height="76.25" id="Rectangle" transform="translate(19.065000, 169.205000) rotate(180.000000) translate(-19.065000, -169.205000) " width="7.29" x="15.42" y="131.08"></rect>
                <rect fill="#000000" height="76.25" id="Rectangle" opacity="0.2" transform="translate(19.065000, 169.205000) rotate(180.000000) translate(-19.065000, -169.205000) " width="7.29" x="15.42" y="131.08"></rect>
                <rect fill="#08A434" height="76.25" id="Rectangle" transform="translate(80.845000, 169.205000) rotate(180.000000) translate(-80.845000, -169.205000) " width="7.29" x="77.2" y="131.08"></rect>
                <rect fill="#08A434" height="76.25" id="Rectangle" transform="translate(133.035000, 169.205000) rotate(180.000000) translate(-133.035000, -169.205000) " width="7.29" x="129.39" y="131.08"></rect>
                <path d="M0.479969469,128.26 L0.479969469,133.9 C0.477337236,134.336685 0.648946235,134.756399 0.956794976,135.066125 C1.26464372,135.375851 1.68330679,135.55 2.12,135.55 L143.58,135.55 C144.49127,135.55 145.23,134.81127 145.23,133.9 L145.23,128.26 C145.224501,127.352638 144.487379,126.62 143.58,126.62 L2.12,126.62 C1.68504496,126.62 1.26790454,126.792785 0.960344879,127.100345 C0.652785218,127.407905 0.479969469,127.825045 0.479969469,128.26 L0.479969469,128.26 Z" fill="#08A434" id="Path"></path>
                <path d="M0.479969469,128.26 L0.479969469,133.9 C0.477337236,134.336685 0.648946235,134.756399 0.956794976,135.066125 C1.26464372,135.375851 1.68330679,135.55 2.12,135.55 L143.58,135.55 C144.49127,135.55 145.23,134.81127 145.23,133.9 L145.23,128.26 C145.224501,127.352638 144.487379,126.62 143.58,126.62 L2.12,126.62 C1.68504496,126.62 1.26790454,126.792785 0.960344879,127.100345 C0.652785218,127.407905 0.479969469,127.825045 0.479969469,128.26 L0.479969469,128.26 Z" fill="#FFFFFF" id="Path" opacity="0.2"></path>
                <path d="M88.35,128.26 L88.35,133.9 C88.35,134.81127 89.0887302,135.55 90,135.55 L143.58,135.55 C144.49127,135.55 145.23,134.81127 145.23,133.9 L145.23,128.26 C145.224501,127.352638 144.487379,126.62 143.58,126.62 L90,126.62 C89.0926212,126.62 88.3554993,127.352638 88.35,128.26 L88.35,128.26 Z" fill="#FFFFFF" id="Path" opacity="0.3"></path>
                <g id="freepik--group--inject-2" transform="translate(5.000000, 0.000000)">
                    <path d="M82.27,1 C87.076559,2.33277989 90.3691392,6.7530688 90.27,11.74 C90.27,16.6 90.41,16.54 93.18,18.32 C95.95,20.1 91.4,23.32 91.4,23.32 C92.0502805,24.3816309 91.9154625,25.7461521 91.07,26.66 C89.62,28.27 92.45,28.8 92.45,28.8 C92.45,28.8 91.27,31.35 89.75,29.97 C89.75,29.97 89.91,32.72 85.45,32.91 C80.99,33.1 73.83,34.99 72.13,32.62 C70.43,30.25 65.02,23.39 65.02,23.39 C65.02,23.39 60.27,21.52 61.66,15.04 C63.05,8.56 68.06,3.87 72.74,4.04 C77.42,4.21 82.27,1 82.27,1 Z" fill="#263238" id="Path"></path>
                    <path d="M50.36,40.2 C50.36,40.2 46.62,40.95 46.62998,41.64 C46.64,42.33 48.09,47.72 48.76,48.38 C49.4544897,48.9550173 50.2128049,49.4482577 51.02,49.85 L50.07,58.57 L55.18,59.89 L55.25,50.59 C55.25,50.59 57.05,47.86 55.76,45.17 C54.47,42.48 50.36,40.2 50.36,40.2 Z" fill="#E4897B" id="Path"></path>
                    <path d="M50.36,40.2 C50.36,40.2 46.62,40.95 46.62998,41.64 C46.64,42.33 48.09,47.72 48.76,48.38 C49.4544897,48.9550173 50.2128049,49.4482577 51.02,49.85 L50.07,58.57 L55.18,59.89 L55.25,50.59 C55.25,50.59 57.05,47.86 55.76,45.17 C54.47,42.48 50.36,40.2 50.36,40.2 Z" fill="#000000" id="Path" opacity="0.2"></path>
                    <path d="M63.94,41.22 C60.56,43.64 59.28,57.02 57.94,58.96 C56.6,60.9 56.07,55.26 56.07,55.26 L49.27,54.94 C49.27,54.94 48.34,62.89 52.27,68.55 C56.2,74.21 63.44,70 67.55,60.93 C71.66,51.86 63.94,41.22 63.94,41.22 Z" fill="#263238" id="Path"></path>
                    <path d="M52.27,68.55 C52.9849542,69.680744 54.0754689,70.5234145 55.35,70.93 C59.3,72.06 64.35,67.93 67.54,60.93 C68.4931841,58.7511338 68.8950198,56.3710305 68.71,54 C68.27,47.19 63.94,41.22 63.94,41.22 C60.57,43.64 59.28,57.02 57.94,58.96 C56.6,60.9 56.08,55.26 56.08,55.26 L49.27,54.93 C49.27,54.93 48.34,62.9 52.27,68.55 Z" fill="#FFFFFF" id="Path" opacity="0.2"></path>
                    <path d="M63.84,41.35 C62.11,41.57 57.69,56.17 57.69,56.17 L68.75,61 L71.68,52.39 L63.84,41.35 Z" fill="#08A434" id="Path"></path>
                    <path d="M71.68,52.35 L68.75,61 L65.9,59.77 L57.69,56.21 C57.69,56.21 62.11,41.61 63.84,41.39 L67.1,45.96 L71.68,52.35 Z" fill="#FFFFFF" id="Path" opacity="0.5"></path>
                    <path d="M71.68,52.35 L68.75,61 L65.9,59.77 C63.8330145,55.2777841 64.2891553,50.0283639 67.1,45.96 L71.68,52.35 Z" fill="#000000" id="Path" opacity="0.2"></path>
                    <polygon fill="#E4897B" id="Path" points="19.5 198.88 12.75 197.03 13.96 180.57 20.69 182.43"></polygon>
                    <path d="M12.34,196.13 L20.17,196.68 C20.3008461,196.679886 20.4260676,196.733194 20.5166828,196.827585 C20.6072979,196.921975 20.655452,197.049267 20.65,197.18 L20.65,197.18 L20.65,203.4 C20.6320242,203.725604 20.4844428,204.03046 20.2401951,204.246525 C19.9959474,204.46259 19.6753651,204.571879 19.35,204.55 C16.62,204.32 15.35,204.07 11.89,203.8 C8.81899798,203.713521 5.75799095,203.409425 2.73,202.89 C-0.12,202.23 0.61,199.42 1.87,199.45 C5.17685382,199.268816 8.38061707,198.235344 11.17,196.45 C11.5174709,196.224789 11.9262775,196.112979 12.34,196.13 Z" fill="#263238" id="Path"></path>
                    <path d="M8.5,196.71 C8.28048009,196.455144 8.22968922,196.095701 8.37,195.79 C8.41927935,195.586749 8.57083739,195.423824 8.77,195.36 C9.65,195.09 11.53,196.57 11.77,196.74 C11.8109292,196.786516 11.8292281,196.848732 11.82,196.91 C11.8006704,196.970005 11.7513573,197.015525 11.69,197.03 C11.0697649,197.139947 10.4391805,197.180197 9.81,197.15 C9.33344703,197.173955 8.86546934,197.016771 8.5,196.71 L8.5,196.71 Z M8.87,195.71 C8.76945266,195.737334 8.6923999,195.81824 8.67,195.92 C8.59144686,196.115769 8.61781876,196.338047 8.74,196.51 C9.05,196.85 9.96,196.96 11.23,196.8 C10.45,196.23 9.34,195.56 8.87,195.71 L8.87,195.71 Z" fill="#08A434" id="Shape"></path>
                    <path d="M11.54,197 C10.88,196.54 9.94,195 10.15,194.26 C10.2281872,193.984987 10.4842966,193.799101 10.77,193.81 C11.0264802,193.788286 11.2782727,193.888262 11.45,194.08 C12.1,194.81 11.8,196.83 11.8,196.89 C11.784311,196.941902 11.7482215,196.985209 11.7,197.01 C11.6779048,197.02075 11.6520952,197.02075 11.63,197.01 C11.5997206,197.016729 11.5680639,197.013211 11.54,197 L11.54,197 Z M10.78,194.16 C10.55,194.16 10.48,194.28 10.46,194.37 C10.5171944,195.199913 10.8723307,195.981212 11.46,196.57 C11.6096884,195.810679 11.5042189,195.023173 11.16,194.33 C11.078254,194.224775 10.9532278,194.162262 10.82,194.16 L10.78,194.16 Z" fill="#08A434" id="Shape"></path>
                    <polygon fill="#000000" id="Path" opacity="0.2" points="20.69 182.43 13.96 180.58 13.27 189.99 20.04 191.5"></polygon>
                    <polygon fill="#E4897B" id="Path" points="28.31 198.64 34.68 201.54 36.3 194.7 38.48 185.5 32.13 182.59 29.94 191.78"></polygon>
                    <polygon fill="#000000" id="Path" opacity="0.2" points="29.94 191.78 36.3 194.7 38.48 185.5 32.13 182.59"></polygon>
                    <path d="M28.05,197.69 L35.69,199.47 C35.9600369,199.520604 36.1386586,199.779606 36.09,200.05 L36.09,200.05 L35.09,206.19 C35.0184507,206.505642 34.8244126,206.779918 34.5505926,206.952462 C34.2767725,207.125006 33.9456127,207.181676 33.63,207.11 C30.97,206.45 29.74,206 26.38,205.18 C23.360573,204.607799 20.3862277,203.819096 17.48,202.82 C14.77,201.71 15.94,199.06 17.19,199.29 C20.4812646,199.630956 23.8048512,199.11778 26.84,197.8 C27.2221677,197.638745 27.6450186,197.600304 28.05,197.69 Z" fill="#263238" id="Path"></path>
                    <path d="M24.17,197.65 C23.9853734,197.36749 23.9853734,197.00251 24.17,196.72 C24.2540298,196.526922 24.4316987,196.390835 24.64,196.36 C25.55,196.23 27.17,197.99 27.36,198.2 C27.3852818,198.253847 27.3852818,198.316153 27.36,198.37 C27.3344788,198.429067 27.2741281,198.465278 27.21,198.46 C26.5824443,198.468691 25.9557008,198.411714 25.34,198.29 C24.8839962,198.229543 24.4668707,198.001372 24.17,197.65 L24.17,197.65 Z M24.69,196.71 C24.5856346,196.722097 24.4968242,196.791601 24.46,196.89 C24.3546067,197.072547 24.3546067,197.297453 24.46,197.48 C24.71,197.87 25.59,198.12 26.87,198.16 C26.19,197.47 25.19,196.64 24.71,196.71 L24.69,196.71 Z" fill="#08A434" id="Shape"></path>
                    <path d="M27.12,198.44 C26.53,197.89 25.85,196.22 26.18,195.52 C26.3028373,195.259211 26.5870124,195.115064 26.87,195.17 C27.121785,195.201361 27.3477804,195.339874 27.49,195.55 C28.02,196.38 27.4,198.32 27.39,198.38 C27.3633923,198.429028 27.3211519,198.467748 27.27,198.49 C27.2472892,198.497622 27.2227108,198.497622 27.2,198.49 C27.1652979,198.492503 27.132957,198.47229 27.12,198.44 Z M26.82,195.52 C26.59,195.52 26.5,195.59 26.47,195.68 C26.403554,196.516843 26.6454066,197.3491 27.15,198.02 C27.4079974,197.291875 27.4289997,196.500789 27.21,195.76 C27.1434044,195.643331 27.0309656,195.559909 26.9,195.53 L26.82,195.52 Z" fill="#08A434" id="Shape"></path>
                    <path d="M75.52,105.19 L77.58,82.45 L115.58,83.34 C115.58,83.34 120,115 116.77,120.85 C110.94,131.24 72.67,125.34 63.77,126.22 C60.06,128.17 40.5,193 40.5,193 L29.55,188.58 C29.55,188.58 41.33,133.86 44.01,123.58 C47.74,109.23 63,109.48 75.52,105.19 Z" fill="#263238" id="Path"></path>
                    <path d="M12.6,187.46 L22.26,188.35 C22.26,188.35 34.11,128 35,127.77 C36.65,127.3 41.45,126.77 44,126.09 C61.92,121.43 106.07,112.85 106.07,112.85 L89.79,97.16 C89.79,97.16 16,106 14.4,123.35 C13.61,131.68 12.6,187.46 12.6,187.46 Z" fill="#263238" id="Path"></path>
                    <path d="M37.64,127.81 C39.29,127.34 41.48,126.76 44.06,126.09 C43.34,126.47 45.42,117.09 47.49,114.64 C51.59,109.8 68.08,107.19 74,106.24 C78.94,105.45 95.54,103.98 95.54,103.98 C95.54,103.98 66.24,101.45 44.16,107.51 C33.25,110.51 35.19,121.16 37.64,127.81 Z" fill="#000000" id="Path" opacity="0.2"></path>
                    <path d="M57.67,43.19 C57.714887,43.3528318 57.6865626,43.5271415 57.5924279,43.6673831 C57.4982931,43.8076246 57.3477009,43.8998641 57.18,43.92 L50.73,44.82 C50.3614719,44.8644019 50.0147855,44.6360962 49.91,44.28 L46.68,31.75 C46.6315214,31.5774868 46.6552734,31.392677 46.7457992,31.2380288 C46.8363249,31.0833806 46.9858419,30.9721893 47.16,30.93 L53.61,30.03 C54.0029238,30.0175675 54.3519165,30.279312 54.45,30.66 L57.67,43.19 Z" fill="#263238" id="Path"></path>
                    <path d="M53.72,30.68 L57,43.33 C57.057234,43.4763665 57.0423204,43.6411257 56.9597346,43.774836 C56.8771487,43.9085464 56.736502,43.9956469 56.58,44.01 L51.11,44.77 C50.74,44.77 50.04,44.72 49.95,44.36 L46.68,31.67 C46.59,31.31 47.18,30.93 47.54,30.88 L53.01,30.11 C53.3577155,30.0901399 53.6642269,30.3362125 53.72,30.68 L53.72,30.68 Z" fill="#FFFFFF" id="Path" opacity="0.5"></path>
                    <polygon fill="#08A434" id="Path" points="28.71 186.04 28.31 189.73 40.98 194.19 42.17 191.5"></polygon>
                    <polygon fill="#08A434" id="Path" points="10.59 184.21 10.98 187.89 23.04 189.27 23.55 186.38"></polygon>
                    <path d="M76.71,87.09 C74.49,74.36 70.76,57.31 63.84,41.35 C67.4770001,39.8153991 71.2200669,38.54543 75.04,37.55 C80.620722,36.0430091 86.2833761,34.8577248 92,34 C95.9519589,33.5787486 99.9311133,33.4717462 103.9,33.68 C103.9,33.68 112.46,49.68 116.8,87.1 L76.71,87.09 Z" fill="#08A434" id="Path"></path>
                    <path d="M116.79,87.09 L76.71,87.09 C74.49,74.36 70.76,57.31 63.84,41.35 C67.4753386,39.8110312 71.2187274,38.5409529 75.04,37.55 C80.620722,36.0430091 86.2833761,34.8577248 92,34 C95.9519589,33.5787486 99.9311133,33.4717462 103.9,33.68 C104.678401,35.2212887 105.372752,36.8036062 105.98,38.42 C108.163361,44.1553129 109.967252,50.0279802 111.38,56 C113.828755,66.240613 115.635605,76.6241542 116.79,87.09 Z" fill="#FFFFFF" id="Path" opacity="0.6"></path>
                    <path d="M111.37,56 C104.88,60.83 95.44,54 95.44,54 L106,38.41 C108.173607,44.1492946 109.967477,50.0253035 111.37,56 L111.37,56 Z" fill="#000000" id="Path" opacity="0.2"></path>
                    <path d="M82.83,44.24 C89.15,45.64 94.05,36.53 94.05,36.53 C94.05,36.53 94.05,34.12 84.47,35.32 C74.89,36.52 73.93,42.27 82.83,44.24 Z" fill="#263238" id="Path"></path>
                    <path d="M82.83,44.24 C89.15,45.64 94.05,36.53 94.05,36.53 C94.05,36.53 94.05,34.12 84.47,35.32 C74.89,36.52 73.93,42.27 82.83,44.24 Z" fill="#FFFFFF" id="Path" opacity="0.2"></path>
                    <polygon fill="#FFFFFF" id="Path" opacity="0.5" points="76.46 56.8 92.33 55.09 96.17 73.39 80.79 74.6"></polygon>
                    <polygon fill="#000000" id="Path" opacity="0.2" points="76.46 56.8 96.17 73.39 92.33 55.09"></polygon>
                    <path d="M68.34,50.05 L62.58,46.27 C62.58,46.27 60.13,38.9 59.58,38.17 C59.03,37.44 52.95,39.1 52.28,39.17 C51.61,39.24 53.39,46.77 54.2,47.42 C55.01,48.07 57.66,48.15 57.66,48.15 L64.2,54 L68.34,50.05 Z" fill="#E4897B" id="Path"></path>
                    <path d="M102.93,33.68 C99.09,34.57 89.86,50.53 84.93,53.47 C80,56.41 66.35,47 66.35,47 L61.68,52.81 C61.68,52.81 72.73,62.55 82.4,62.81 C92.07,63.07 105.78,49.36 107.82,44.35 C109.86,39.34 107.61,32.6 102.93,33.68 Z" fill="#263238" id="Path"></path>
                    <path d="M102.93,33.68 C99.09,34.57 89.86,50.53 84.93,53.47 C80,56.41 66.35,47 66.35,47 L61.68,52.81 C61.68,52.81 72.73,62.55 82.4,62.81 C92.07,63.07 105.78,49.36 107.82,44.35 C109.86,39.34 107.61,32.6 102.93,33.68 Z" fill="#FFFFFF" id="Path" opacity="0.2"></path>
                    <path d="M82.55,19.7 C84.06,25.17 87.66,34.79 92.81,36.37 C92.81,36.37 89.02,42.58 83.34,43.1 C79.73,43.43 77.73,39.35 77.73,39.35 C81.41,38.66 80,35.96 77.1,32.58 L82.55,19.7 Z" fill="#E4897B" id="Path"></path>
                    <path d="M80.33,25 L77.11,32.62 C77.7893734,33.4085834 78.4078216,34.2476672 78.96,35.13 C82.58,35.41 85.18,29.67 84.29,27.33 C84,26.32 81,25.73 80.33,25 Z" fill="#000000" id="Path" opacity="0.2"></path>
                    <path d="M70,11 C73.45,12.43 72.79,16.2 67.07,23.06 C63.54,20.06 61.63,13.12 63.48,10.9 C65.33,8.68 67,9.74 70,11 Z" fill="#263238" id="Path"></path>
                    <path d="M84.23,13.92 C85.43,21.39 86.51,25.69 83.64,30.31 C79.33,37.25 69.48,35.92 66.06,28.96 C63.01,22.71 61.55,11.54 68.06,6.96 C70.9871053,4.90794982 74.7676966,4.51685045 78.0528857,5.92624339 C81.3380747,7.33563632 83.6599187,10.3447675 84.19,13.88 L84.23,13.92 Z" fill="#E4897B" id="Path"></path>
                    <path d="M73.68,18.41 C73.82,19.01 73.61,19.57 73.21,19.65 C72.81,19.73 72.4,19.33 72.27,18.73 C72.14,18.13 72.34,17.58 72.72,17.48 C73.1,17.38 73.51,17.83 73.68,18.41 Z" fill="#263238" id="Path"></path>
                    <path d="M66.87,20 C67,20.6 66.79,21.16 66.4,21.24 C66.01,21.32 65.58,20.92 65.4,20.32 C65.22,19.72 65.48,19.16 65.87,19.07 C66.26,18.98 66.73,19.35 66.87,20 Z" fill="#263238" id="Path"></path>
                    <path d="M69.16,19.73 C68.8560539,21.7235739 68.2772113,23.665389 67.44,25.5 C68.4068094,25.910154 69.5058243,25.8698568 70.44,25.39 L69.16,19.73 Z" fill="#DE5753" id="Path"></path>
                    <path d="M75.06,15.84 C75.1411885,15.8386931 75.2178112,15.8022061 75.27,15.74 C75.3377836,15.6724513 75.3758839,15.5806945 75.3758839,15.485 C75.3758839,15.3893055 75.3377836,15.2975487 75.27,15.23 C74.3964618,14.4595831 73.204878,14.1579635 72.07,14.42 C71.8883845,14.4775875 71.7801923,14.663678 71.82,14.85 L71.82,14.85 C71.8821044,15.0371119 72.0800149,15.1426642 72.27,15.09 L72.27,15.09 C73.1656404,14.9002049 74.0980894,15.1491057 74.78,15.76 C74.8579015,15.8249099 74.9595651,15.8539567 75.06,15.84 L75.06,15.84 Z" fill="#263238" id="Path"></path>
                    <path d="M63.25,18.35 C63.3858133,18.31821 63.4932939,18.2145679 63.53,18.08 C63.7210812,17.1935779 64.3225796,16.4509873 65.15,16.08 C65.3098165,15.9937801 65.3834428,15.8043252 65.3237865,15.6328134 C65.2641303,15.4613016 65.0888256,15.3584313 64.91,15.39 C63.8435235,15.8568212 63.0686216,16.8105467 62.83,17.95 C62.8059448,18.0415772 62.8200186,18.1389933 62.8690099,18.2200173 C62.9180012,18.3010413 62.9977294,18.3587594 63.09,18.3800056 L63.09,18.3800056 C63.144757,18.3802787 63.1990633,18.3700963 63.25,18.35 L63.25,18.35 Z" fill="#263238" id="Path"></path>
                    <path d="M79.83,8.05 C76.65,10.05 77.9,13.62 84.65,19.48 C87.65,15.92 88.43,8.79 86.25,6.9 C84.07,5.01 82.6,6.35 79.83,8.05 Z" fill="#263238" id="Path"></path>
                    <path d="M89.06,19 C88.9493073,20.9011419 88.0899413,22.6810004 86.67,23.95 C84.77,25.61 82.74,24.17 82.36,21.82 C82.01,19.69 82.59,16.27 84.93,15.52 C85.9742284,15.1921273 87.1135962,15.4206895 87.9505754,16.1259407 C88.7875546,16.831192 89.206032,17.9152935 89.06,19 Z" fill="#E4897B" id="Path"></path>
                    <path d="M71.68,27 C72.186465,27.7513579 72.6408622,28.5365294 73.04,29.35 L73.5,29.21 C75.57,28.56 76.32,27.58 76.5,26.69 C76.6118495,26.0040747 76.4922302,25.3004318 76.16,24.69 C75.0592776,25.657666 73.763306,26.3772713 72.36,26.8 L71.68,27 Z" fill="#263238" id="Path"></path>
                    <path d="M72.38,26.79 L72.8,27.47 C74.75,26.86 76.04,26.16 76.46,25.38 C76.3976328,25.1354414 76.3034987,24.900106 76.18,24.68 C75.0792776,25.647666 73.783306,26.3672713 72.38,26.79 Z" fill="#FFFFFF" id="Path"></path>
                    <path d="M73.5,29.23 C75.57,28.58 76.32,27.6 76.5,26.71 C75.7152934,26.9664543 74.983494,27.3628456 74.34,27.88 C73.9248616,28.2303482 73.6308974,28.7027907 73.5,29.23 L73.5,29.23 Z" fill="#A24E3F" id="Path"></path>
                    <path d="M86.21,8 C86.21,8 88.05,5 84.1,2 C80.15,-1 75.36,2 75.36,2 C75.36,2 74.55,1.22 71.68,0.65 C68.81,0.08 64.91,4.15 62.54,5.12 C60.17,6.09 57.73,8.66 58.98,11.76 C60.23,14.86 56.47,21.99 62.08,21.19 C61.0254057,20.6726688 60.5597752,19.4207376 61.02,18.34 C61.68,16.24 64.02,16.18 64.1,11.83 C64.18,7.48 68.29,10.23 68.29,10.23 C68.29,10.23 69.59,8.23 71.37,8.4 C73.15,8.57 76.25,9.94 76.68,15.4 C77.11,20.86 81.32,22.25 84.95,19.03 C88.58,15.81 89.31,15.87 89.95,17.49 C89.95,17.49 91.33,15.13 88.36,14.35 C85.39,13.57 85.09,9.59 86.21,8 Z" fill="#263238" id="Path"></path>
                    <path d="M91.09,43.55 L103.62,52.88 C103.62,52.88 112.55,42.88 107.41,35.09 C102.27,27.3 91.09,43.55 91.09,43.55 Z" fill="#08A434" id="Path"></path>
                    <path d="M91.09,43.55 L103.62,52.88 C103.62,52.88 112.55,42.88 107.41,35.09 C102.27,27.3 91.09,43.55 91.09,43.55 Z" fill="#FFFFFF" id="Path" opacity="0.5"></path>
                </g>
            </g>
            <text fill="#EDEAEA" font-family="Vazir-Medium-FD, Vazir FD" font-size="8" font-weight="400" id="-">
                <tspan x="244" y="133"> </tspan>
            </text>
            <text fill="#1C1C1C" font-family="Vazir-Medium-FD, Vazir FD" font-size="8" font-weight="400" id="https://cansell.info">
                <tspan x="137.046875" y="163">https:</tspan>
                <tspan x="157.910156" y="163">/</tspan>
                <tspan x="160.105469" y="163">/cansell.info/YourName</tspan>
            </text>
            <text fill="#F2F4F5" font-family="Vazir-Medium-FD, Vazir FD" font-size="9" font-weight="400" id="--">
                <tspan x="176" y="198">  </tspan>
            </text>
        </g>
    </g>
</svg>