<?xml version="1.0" encoding="UTF-8"?>
<svg height="362px" version="1.1" viewBox="0 0 500 362" width="500px"
    xmlns="http://www.w3.org/2000/svg">
    <!-- Generator: Sketch 64 (93537) - https://sketch.com -->
    <title>Firmware-rafiki</title>
    <desc>Created with Sketch.</desc>
    <g id="Page-1" stroke="none" stroke-width="1" fill="none" fill-rule="evenodd">
        <g id="Firmware-rafiki" fill-rule="nonzero">
            <g id="freepik--background-complete--inject-114">
                <rect id="Rectangle" fill="#EBEBEB" x="0" y="327.4" width="500" height="1"></rect>
                <rect id="Rectangle" fill="#EBEBEB" x="394.36" y="338.85" width="50.9"
                    height="1"></rect>
                <rect id="Rectangle" fill="#EBEBEB" x="52.46" y="335.89" width="47.21"
                    height="1"></rect>
                <rect id="Rectangle" fill="#EBEBEB" x="378.81" y="334.21" width="19.19"
                    height="1"></rect>
                <rect id="Rectangle" fill="#EBEBEB" x="317.14" y="340.84" width="14.08" height="1"></rect>
                <rect id="Rectangle" fill="#EBEBEB" x="272.79" y="340.84" width="35.44" height="1"></rect>
                <rect id="Rectangle" fill="#EBEBEB" x="195.22" y="336.62" width="56.99" height="1"></rect>
                <path d="M237,282.8 L43.92,282.8 C40.7664541,282.8 38.21,280.243546 38.21,277.09 L38.21,5.66 C38.2374442,2.5259977 40.7858775,0 43.92,0 L237,0 C240.153546,0 242.71,2.55645408 242.71,5.71 L242.71,277.09 C242.71,280.243546 240.153546,282.8 237,282.8 Z M43.92,0.2 C40.9068079,0.205503561 38.4655036,2.64680786 38.46,5.66 L38.46,277.09 C38.4655036,280.103192 40.9068079,282.544496 43.92,282.55 L237,282.55 C240.013192,282.544496 242.454496,280.103192 242.46,277.09 L242.46,5.66 C242.454496,2.64680786 240.013192,0.205503561 237,0.2 L43.92,0.2 Z" id="Shape" fill="#EBEBEB"></path>
                <path d="M453.31,282.8 L260.21,282.8 C257.058737,282.794496 254.505504,280.241263 254.5,277.09 L254.5,5.66 C254.532848,2.52828036 257.078113,0.00530307708 260.21,-7.10542736e-15 L453.31,-7.10542736e-15 C456.436323,0.0108307119 458.972643,2.53377766 459,5.66 L459,277.09 C459,280.235752 456.455733,282.788982 453.31,282.8 Z M260.21,0.2 C257.196808,0.205503561 254.755504,2.64680786 254.75,5.66 L254.75,277.09 C254.755504,280.103192 257.196808,282.544496 260.21,282.55 L453.31,282.55 C456.323192,282.544496 458.764496,280.103192 458.77,277.09 L458.77,5.66 C458.764496,2.64680786 456.323192,0.205503561 453.31,0.2 L260.21,0.2 Z" id="Shape" fill="#EBEBEB"></path>
                <rect id="Rectangle" fill="#F0F0F0" x="52.46" y="41.78" width="127.06" height="285.62"></rect>
                <rect id="Rectangle" fill="#F5F5F5" x="55.14" y="41.78" width="124.38" height="285.62"></rect>
                <rect id="Rectangle" fill="#EBEBEB" transform="translate(117.330000, 184.590000) rotate(90.000000) translate(-117.330000, -184.590000) " x="-19" y="129.98" width="272.66" height="109.22"></rect>
                <path d="M121.69,44.8 L133.3,44.8 L133.3,115.5 L121.69,115.5 C110.462051,115.5 101.36,106.397949 101.36,95.17 L101.36,65.12 C101.365521,53.8959565 110.465955,44.8 121.69,44.8 Z" id="Path" fill="#FAFAFA" transform="translate(117.330000, 80.150000) rotate(90.000000) translate(-117.330000, -80.150000) "></path>
                <rect id="Rectangle" fill="#F0F0F0" transform="translate(117.335000, 271.400000) rotate(90.000000) translate(-117.335000, -271.400000) " x="84.765" y="227.525" width="65.14" height="87.75" rx="10.35"></rect>
                <rect id="Rectangle" fill="#F0F0F0" transform="translate(92.805000, 169.545000) rotate(180.000000) translate(-92.805000, -169.545000) " x="73.45" y="113" width="38.71" height="113.09" rx="10.35"></rect>
                <rect id="Rectangle" fill="#F0F0F0" transform="translate(141.855000, 169.545000) rotate(180.000000) translate(-141.855000, -169.545000) " x="122.5" y="113" width="38.71" height="113.09" rx="10.35"></rect>
                <path d="M152.68,172.33 C152.68,175.914328 155.585672,178.82 159.17,178.82 C162.754328,178.82 165.66,175.914328 165.66,172.33 C165.66,168.745672 162.754328,165.84 159.17,165.84 C157.448745,165.84 155.797988,166.523766 154.580877,167.740877 C153.363766,168.957988 152.68,170.608745 152.68,172.33 L152.68,172.33 Z" id="Path" fill="#FFFFFF"></path>
                <rect id="Rectangle" fill="#F0F0F0" transform="translate(170.945000, 184.590000) rotate(90.000000) translate(-170.945000, -184.590000) " x="34.615" y="183.605" width="272.66" height="1.97"></rect>
                <rect id="Rectangle" fill="#E6E6E6" x="398.09" y="206.16" width="27.59" height="121.24"></rect>
                <polygon id="Path" fill="#EBEBEB" points="415.38 327.4 425.67 327.4 425.67 310.66 404.59 310.66"></polygon>
                <rect id="Rectangle" fill="#E6E6E6" x="347.44" y="206.16" width="27.59" height="121.24"></rect>
                <rect id="Rectangle" fill="#EBEBEB" x="366.04" y="206.16" width="59.63" height="115.48"></rect>
                <polygon id="Path" fill="#EBEBEB" points="376.34 327.4 366.04 327.4 366.04 310.66 387.13 310.66"></polygon>
                <rect id="Rectangle" fill="#FAFAFA" x="374.03" y="249.19" width="43.66" height="28.9"></rect>
                <rect id="Rectangle" fill="#FAFAFA" x="374.03" y="284.26" width="43.66" height="28.9"></rect>
                <path d="M389.44,246.68 L402.27,246.68 L402.27,248.38 C402.27,250.528388 400.528388,252.27 398.38,252.27 L393.38,252.27 C391.231612,252.27 389.49,250.528388 389.49,248.38 L389.49,246.68 L389.44,246.68 Z" id="Path" fill="#EBEBEB"></path>
                <rect id="Rectangle" fill="#FAFAFA" x="374.03" y="214.11" width="43.66" height="28.9"></rect>
                <path d="M389.44,211.61 L402.27,211.61 L402.27,213.31 C402.27,215.458388 400.528388,217.2 398.38,217.2 L393.38,217.2 C391.231612,217.2 389.49,215.458388 389.49,213.31 L389.49,211.61 L389.44,211.61 Z" id="Path" fill="#EBEBEB"></path>
                <path d="M389.44,281.76 L402.27,281.76 L402.27,283.46 C402.27,285.608388 400.528388,287.35 398.38,287.35 L393.38,287.35 C391.231612,287.35 389.49,285.608388 389.49,283.46 L389.49,281.76 L389.44,281.76 Z" id="Path" fill="#EBEBEB"></path>
                <polygon id="Path" fill="#EBEBEB" points="240.96 327.4 203.47 327.4 204.14 189.59 240.96 202.31"></polygon>
                <polygon id="Path" fill="#E0E0E0" points="316.74 327.4 208.57 327.4 203.47 181 311.63 181"></polygon>
                <polygon id="Path" fill="#F5F5F5" points="324.52 327.4 211.96 327.4 206.86 181 319.41 181"></polygon>
                <path d="M222.9,310.25 L219,199.09 C218.957052,197.375423 219.604087,195.715352 220.796,194.482079 C221.987913,193.248807 223.624956,192.545541 225.34,192.529759 L302.62,192.529759 C305.764626,192.501543 308.352926,194.996451 308.44,198.14 L312.32,309.31 C312.360245,311.024586 311.71064,312.683584 310.516856,313.914967 C309.323072,315.14635 307.685009,315.847073 305.97,315.860241 L228.72,315.860241 C225.575374,315.888457 222.987074,313.393549 222.9,310.25 Z" id="Path" fill="#FFFFFF"></path>
                <rect id="Rectangle" fill="#E6E6E6" x="220.74" y="27.78" width="196.77" height="101.51"></rect>
                <rect id="Rectangle" fill="#F0F0F0" x="222.95" y="27.78" width="199.29" height="101.51"></rect>
                <rect id="Rectangle" fill="#E6E6E6" x="220.74" y="129.3" width="196.77" height="2.32"></rect>
                <rect id="Rectangle" fill="#F0F0F0" x="230.83" y="129.3" width="199.29" height="2.32"></rect>
                <rect id="Rectangle" fill="#FAFAFA" transform="translate(322.590000, 78.535000) rotate(90.000000) translate(-322.590000, -78.535000) " x="278.455" y="-14.485" width="88.27" height="186.04"></rect>
                <polygon id="Path" fill="#FFFFFF" points="262.11 122.68 280.54 34.41 309.3 34.41 290.87 122.68"></polygon>
                <path d="M232.64,116.08 C232.380426,116.08 232.17,115.869574 232.17,115.61 L232.17,38.71 C232.17,38.4504262 232.380426,38.24 232.64,38.24 C232.899574,38.24 233.11,38.4504262 233.11,38.71 L233.11,115.61 C233.11,115.869574 232.899574,116.08 232.64,116.08 L232.64,116.08 Z" id="Path" fill="#F0F0F0"></path>
                <polygon id="Path" fill="#FFFFFF" points="297.05 122.68 315.48 34.41 326.69 34.41 308.26 122.68"></polygon>
                <rect id="Rectangle" fill="#E6E6E6" transform="translate(415.200000, 78.535000) rotate(90.000000) translate(-415.200000, -78.535000) " x="371.065" y="78.115" width="88.27" height="1"></rect>
                <polygon id="Path" fill="#EBEBEB" opacity="0.6" points="423.8 44.39 227.04 44.39 226.43 36.98 423.19 36.98"></polygon>
                <polygon id="Path" fill="#EBEBEB" opacity="0.6" points="423.8 48.57 227.04 48.57 226.43 41.16 423.19 41.16"></polygon>
                <polygon id="Path" fill="#EBEBEB" opacity="0.6" points="423.8 52.75 227.04 52.75 226.43 45.34 423.19 45.34"></polygon>
                <polygon id="Path" fill="#EBEBEB" opacity="0.6" points="423.8 56.93 227.04 56.93 226.43 49.52 423.19 49.52"></polygon>
                <polygon id="Path" fill="#EBEBEB" opacity="0.6" points="423.8 61.11 227.04 61.11 226.43 53.7 423.19 53.7"></polygon>
                <polygon id="Path" fill="#EBEBEB" opacity="0.6" points="423.8 65.29 227.04 65.29 226.43 57.88 423.19 57.88"></polygon>
            </g>
            <g id="freepik--Character--inject-114" transform="translate(93.000000, 57.000000)">
                <path d="M106.66,21 C103.43,14.22 96.25,16.48 96.85,10.7 C97.45,4.92 91.67,-3.12 82.85,1.31 C74.03,5.74 78.92,16.21 78.92,16.21 C78.92,16.21 74.11,34.46 82.29,40.21 C88.81,44.76 102.91,40.77 100.77,34.33 C98.63,27.89 109.88,27.78 106.66,21 Z" id="Path" fill="#263238"></path>
                <path d="M101.29,39.36 C101.187842,39.3586734 101.096771,39.2953196 101.06,39.2 C98.74,33.04 101.88,30.08 104.65,27.47 C106.84,25.41 108.73,23.63 107.73,20.62 C106.56,17.12 104.08,16.23 101.9,15.44 C99.72,14.65 97.81,13.96 97.99,10.91 C98.0636613,7.40119292 96.3352476,4.0990925 93.41,2.16 C91.46,0.93 88.23,-0.03 83.91,2.37 C83.7884974,2.43627417 83.6362742,2.39150264 83.57,2.27 C83.5037258,2.14849736 83.5484974,1.99627417 83.67,1.93 C87.21,-0.07 90.76,-0.07 93.67,1.74 C96.7651194,3.76063458 98.5869595,7.24523504 98.48,10.94 C98.32,13.62 99.97,14.21 102.06,14.94 C104.15,15.67 106.94,16.7 108.19,20.43 C109.3,23.74 107.19,25.72 104.99,27.81 C102.2,30.43 99.32,33.15 101.52,38.99 C101.567563,39.1224681 101.501079,39.2687327 101.37,39.32 L101.29,39.36 Z" id="Path" fill="#263238"></path>
                <path d="M60.47,68.46 C60.19,68.96 60.02,69.24 59.79,69.6 L59.14,70.6 C58.7,71.25 58.24,71.87 57.77,72.49 C56.8214574,73.7238471 55.8031282,74.902438 54.72,76.02 C52.504361,78.2985121 49.9957331,80.2724593 47.26,81.89 C44.4178569,83.5646256 41.2985182,84.716173 38.05,85.29 C36.3995632,85.5768822 34.7245113,85.6974859 33.05,85.65 C32.22,85.65 31.4,85.59 30.59,85.47 L29.98,85.4 L29.67,85.4 L29.27,85.33 C28.7304346,85.2380742 28.1988328,85.1043378 27.68,84.93 C25.939084,84.3073531 24.3161502,83.3944528 22.88,82.23 C21.6417307,81.2335978 20.4816655,80.1437382 19.41,78.97 C17.4406452,76.7848996 15.651465,74.4439162 14.06,71.97 C12.49,69.54 11.06,67.07 9.74,64.57 C8.42,62.07 7.22,59.57 6.13,56.85 L10.29,54.74 C11.75,56.97 13.29,59.26 14.85,61.44 C16.41,63.62 18.02,65.8 19.71,67.84 C21.3332887,69.8466379 23.0870911,71.744085 24.96,73.52 C25.8190937,74.3225379 26.7384547,75.0580267 27.71,75.72 C28.4623953,76.2520021 29.2967437,76.6573535 30.18,76.92 C30.3201944,76.9596572 30.464466,76.9831433 30.61,76.99 L31,76.99 L31.42,76.99 C31.9762632,77.0199712 32.5337368,77.0199712 33.09,76.99 C34.1941001,76.9395719 35.2916442,76.7923404 36.37,76.55 C38.5461411,76.0236138 40.6229133,75.1490057 42.52,73.96 C44.5053965,72.6934755 46.3230808,71.1815384 47.93,69.46 C48.7670903,68.5884835 49.5581644,67.6739083 50.3,66.72 C50.67,66.25 51.02,65.72 51.36,65.27 L51.86,64.54 L52.26,63.92 L60.47,68.46 Z" id="Path" fill="#B65B52"></path>
                <path d="M60.7,58.22 C52.29,58.63 50.22,64.04 50.22,64.04 L59.93,78.84 C59.93,78.84 64.08,74.38 65.2,69.39 C66.36,64.19 66.41,57.94 60.7,58.22 Z" id="Path" fill="#263238"></path>
                <path d="M10.72,56.07 L10.27,48.07 L2.47,53.88 C2.47,53.88 4.4,58 8.11,58.88 L10.72,56.07 Z" id="Path" fill="#B55B52"></path>
                <polygon id="Path" fill="#B55B52" points="5.42 41.75 0.4 47.13 2.47 53.88 10.27 48.07"></polygon>
                <polygon id="Path" fill="#B55B52" points="105.1 294.5 96.02 295.37 91.39 274.21 100.48 273.34"></polygon>
                <polygon id="Path" fill="#B55B52" points="188.58 267.1 181.56 273.21 165.5 259.25 172.52 253.13"></polygon>
                <path d="M178,271.07 L184.28,262.71 C184.493773,262.405347 184.900551,262.306864 185.23,262.48 L192.45,266.35 C192.811228,266.562898 193.062611,266.921742 193.139304,267.333967 C193.215997,267.746192 193.11049,268.171433 192.85,268.5 C190.61,271.38 189.39,272.66 186.63,276.34 C184.93,278.6 181.49,283.85 179.15,286.97 C176.81,290.09 173.64,287.97 174.34,286.5 C177.49,279.76 177.66,275.81 177.51,272.64 C177.485882,272.075621 177.659145,271.520471 178,271.07 L178,271.07 Z" id="Path" fill="#263238"></path>
                <path d="M94.88,292.63 L105.8,292.63 C106.20304,292.63 106.555844,292.900651 106.66,293.29 L109.04,301.93 C109.157006,302.34365 109.071553,302.788267 108.809546,303.129073 C108.547539,303.469879 108.139827,303.666747 107.71,303.66 C103.89,303.59 102.03,303.37 97.22,303.37 C94.27,303.37 86.63,303.68 82.55,303.68 C78.47,303.68 77.72,299.68 79.38,299.28 C86.78,297.64 91.05,295.38 93.38,293.22 C93.7894681,292.844019 94.3241116,292.633726 94.88,292.63 Z" id="Path" fill="#263238"></path>
                <polygon id="Path" fill="#000000" opacity="0.2" points="91.4 274.21 93.78 285.12 103.06 285.12 100.48 273.34"></polygon>
                <polygon id="Path" fill="#000000" opacity="0.2" points="172.52 253.14 165.5 259.26 173.78 266.45 180.8 260.33"></polygon>
                <path d="M54.32,60 C54.32,60 50.45,62.66 72.26,112.35 L108.51,102.35 C104.16,87.86 101.83,78.82 101.2,46.78 C95.8500097,47.1347707 90.5327555,47.8767132 85.29,49 C79.7026394,50.1255154 74.2021656,51.6459987 68.83,53.55 C61.92,56.1 54.32,60 54.32,60 Z" id="Path" fill="#263238"></path>
                <path d="M79,31 C79.3,36.55 80.73,46.48 85.33,49 C85.33,49 88.96,65.72 75.69,82.68 C61.69,70.38 68.87,53.55 68.87,53.55 C74.42,50.55 73.16,46.2 71.08,42.4 L79,31 Z" id="Path" fill="#B55B52"></path>
                <path d="M85.29,49 C85.29,49 88.92,65.72 75.65,82.68 C61.65,70.38 68.83,53.55 68.83,53.55 C68.83,53.55 70.89,58.72 75.07,60.49 C77.74,58.94 83.13,54.06 85.29,49 Z" id="Path" fill="#F5F5F5"></path>
                <path d="M76.16,59.75 C76.16,59.75 83.62,57.04 89.16,59.04 C89.65,56.04 90.35,49.72 88,48.04 C87.042221,48.0697705 86.1140855,48.379149 85.33,48.93 L76.16,59.75 Z" id="Path" fill="#FFFFFF"></path>
                <path d="M74,59.86 C74,59.86 69.11,58.72 64.27,63.5 C63.92,60.5 64.15,55.5 66.57,53.79 C67.4167556,53.357936 68.33503,53.0834703 69.28,52.98 C70.4459636,55.5277102 72.0427125,57.8551747 74,59.86 L74,59.86 Z" id="Path" fill="#FFFFFF"></path>
                <path d="M78.1,32.22 C78.8163885,35.3899046 78.8504757,38.6759163 78.2,41.86 C77.74,44.06 75.35,45.67 72.69,46.61 C72.3729831,45.1119319 71.8193816,43.6739183 71.05,42.35 L78.1,32.22 Z" id="Path" fill="#000000" opacity="0.2"></path>
                <path d="M63.15,12.16 C55.33,22.9 63.07,37.16 69.77,36.86 C74.77,36.67 81.28,30.34 80.47,24.65 C79.26,16.12 67.08,6.76 63.15,12.16 Z" id="Path" fill="#263238"></path>
                <path d="M86.75,24.48 C84.89,33.48 84.29,37.31 79.06,41.4 C71.19,47.55 60.61,43.55 59.76,34.25 C59,25.88 62.18,12.59 71.53,10.07 C75.6686169,8.88270145 80.1265587,9.97053533 83.2531074,12.9306908 C86.3796561,15.8908463 87.7094182,20.282698 86.75,24.48 Z" id="Path" fill="#B55B52"></path>
                <path d="M79,10.57 C78.63,13.21 84,20.63 90,20.57 C92.92,20.57 93.82,16.09 91,12.04 C87.21,6.68 79.58,6.78 79,10.57 Z" id="Path" fill="#00C237"></path>
                <path d="M66.71,12.28 C66.06,16.87 75.71,29 86.02,28.83 C91.08,28.75 92.02,17.22 88.28,12.89 C81,4.42 67.64,5.72 66.71,12.28 Z" id="Path" fill="#263238"></path>
                <path d="M83.09,26.22 C79.94,26.86 81.77,31.12 83.68,33.28 C86.12,31.62 88.07,25.21 83.09,26.22 Z" id="Path" fill="#263238"></path>
                <path d="M74.8,16.08 C67.27,19.21 59.88,11.21 57.73,7.67 C63.17,8.45 74.4,1.03 79.02,10.42 C82.27,17 74.8,16.08 74.8,16.08 Z" id="Path" fill="#263238"></path>
                <path d="M73.12,15.53 C68,19.99 59.99,15.75 57.33,13.53 C61.85,12.67 68.75,3.86 74.94,9.93 C79.29,14.24 73.12,15.53 73.12,15.53 Z" id="Path" fill="#263238"></path>
                <path d="M88.94,31.28 C88.4974947,33.008157 87.4001224,34.4964233 85.88,35.43 C83.88,36.65 82.26,35.02 82.33,32.8 C82.39,30.8 83.52,27.8 85.79,27.44 C86.7926901,27.3057774 87.7934162,27.7001062 88.4350188,28.4822502 C89.0766213,29.2643943 89.2676778,30.3229052 88.94,31.28 Z" id="Path" fill="#B55B52"></path>
                <path d="M72.26,112.3 C72.26,112.3 68.51,185.06 73.71,212.53 C79.12,241.11 89.32,281.95 89.32,281.95 L106.58,281.11 C106.58,281.11 100.13,229.3 98.58,207.21 C96.48,176.77 98.78,104.95 98.78,104.95 L72.26,112.3 Z" id="Path" fill="#00C237"></path>
                <path d="M72.26,112.3 C72.26,112.3 68.51,185.06 73.71,212.53 C79.12,241.11 89.32,281.95 89.32,281.95 L106.58,281.11 C106.58,281.11 100.13,229.3 98.58,207.21 C96.48,176.77 98.78,104.95 98.78,104.95 L72.26,112.3 Z" id="Path" fill="#000000" opacity="0.4"></path>
                <path d="M98.13,132.33 C95.6,125.59 93.33,121.88 92.88,128.59 C91.94,142.79 94.05,159.02 97.73,167.07 C97.76,155 97.94,142.75 98.13,132.33 Z" id="Path" fill="#000000" opacity="0.2"></path>
                <polygon id="Path" fill="#00C237" points="107.79 281.95 88.12 282.9 85.79 275.71 107.11 274.04"></polygon>
                <path d="M81.83,109.65 C81.83,109.65 102.56,169.09 116.7,201.91 C128.12,228.42 169.89,265.46 169.89,265.46 L179.76,257.27 C179.76,257.27 149.92,215.05 142.02,197.07 C116.72,139.51 124.23,115.13 108.51,102.27 L81.83,109.65 Z" id="Path" fill="#00C237"></path>
                <path d="M81.83,109.65 C81.83,109.65 102.56,169.09 116.7,201.91 C128.12,228.42 169.89,265.46 169.89,265.46 L179.76,257.27 C179.76,257.27 149.92,215.05 142.02,197.07 C116.72,139.51 124.23,115.13 108.51,102.27 L81.83,109.65 Z" id="Path" fill="#000000" opacity="0.4"></path>
                <polygon id="Path" fill="#00C237" points="180.56 257.18 169.51 266.74 164.1 262.75 177.11 251.87"></polygon>
                <path d="M108.51,100 L110.97,102.78 C111.16,102.99 110.97,103.33 110.51,103.44 L72.51,113.96 C72.19,114.05 71.88,113.96 71.8,113.77 L70.65,110.64 C70.57,110.42 70.81,110.15 71.17,110.05 L107.88,99.9 C108.093235,99.8229007 108.33112,99.8606679 108.51,100 L108.51,100 Z" id="Path" fill="#00C237"></path>
                <path d="M104.63,105.45 L105.63,105.17 C105.83,105.17 105.95,104.98 105.9,104.86 L104.37,100.8 C104.37,100.68 104.13,100.63 103.94,100.68 L102.94,100.95 C102.75,101.01 102.62,101.15 102.67,101.27 L104.2,105.33 C104.23,105.45 104.43,105.5 104.63,105.45 Z" id="Path" fill="#00C237"></path>
                <path d="M104.63,105.45 L105.63,105.17 C105.83,105.17 105.95,104.98 105.9,104.86 L104.37,100.8 C104.37,100.68 104.13,100.63 103.94,100.68 L102.94,100.95 C102.75,101.01 102.62,101.15 102.67,101.27 L104.2,105.33 C104.23,105.45 104.43,105.5 104.63,105.45 Z" id="Path" fill="#000000" opacity="0.4"></path>
                <path d="M75.35,113.55 L76.35,113.27 C76.55,113.22 76.67,113.08 76.62,112.96 L75.09,108.9 C75.09,108.78 74.85,108.73 74.66,108.78 L73.66,109.05 C73.47,109.11 73.34,109.25 73.39,109.37 L74.92,113.43 C75,113.55 75.15,113.6 75.35,113.55 Z" id="Path" fill="#00C237"></path>
                <path d="M75.35,113.55 L76.35,113.27 C76.55,113.22 76.67,113.08 76.62,112.96 L75.09,108.9 C75.09,108.78 74.85,108.73 74.66,108.78 L73.66,109.05 C73.47,109.11 73.34,109.25 73.39,109.37 L74.92,113.43 C75,113.55 75.15,113.6 75.35,113.55 Z" id="Path" fill="#000000" opacity="0.4"></path>
                <path d="M90,109.5 L91,109.22 C91.2,109.17 91.32,109.03 91.27,108.91 L89.74,104.85 C89.74,104.73 89.5,104.68 89.31,104.73 L88.31,105 C88.12,105.06 87.99,105.2 88.04,105.32 L89.57,109.38 C89.59,109.5 89.79,109.55 90,109.5 Z" id="Path" fill="#00C237"></path>
                <path d="M90,109.5 L91,109.22 C91.2,109.17 91.32,109.03 91.27,108.91 L89.74,104.85 C89.74,104.73 89.5,104.68 89.31,104.73 L88.31,105 C88.12,105.06 87.99,105.2 88.04,105.32 L89.57,109.38 C89.59,109.5 89.79,109.55 90,109.5 Z" id="Path" fill="#000000" opacity="0.4"></path>
                <ellipse id="Oval" fill="#263238" transform="translate(71.832476, 25.237582) rotate(-80.830000) translate(-71.832476, -25.237582) " cx="71.8324756" cy="25.2375823" rx="1.35" ry="1"></ellipse>
                <path d="M64.38,24.33 C64.28,25.06 63.8,25.61 63.32,25.56 C62.84,25.51 62.54,24.85 62.64,24.11 C62.74,23.37 63.23,22.83 63.71,22.89 C64.19,22.95 64.49,23.59 64.38,24.33 Z" id="Path" fill="#263238"></path>
                <path d="M63.91,23 L62.22,22.28 C62.22,22.28 62.93,23.72 63.91,23 Z" id="Path" fill="#263238"></path>
                <path d="M66.4,25.86 C65.4989715,27.4628251 64.3892917,28.9390356 63.1,30.25 C63.7881214,30.884278 64.7219924,31.1809193 65.65,31.06 L66.4,25.86 Z" id="Path" fill="#A02724"></path>
                <path d="M67.73,34.25 C67.652709,34.2109645 67.6115873,34.1246087 67.63,34.04 C67.6374349,33.9814131 67.6681125,33.9282754 67.7151313,33.8925412 C67.7621501,33.8568069 67.8215615,33.8414769 67.88,33.85 C69.7446677,34.1068132 71.6217791,33.4737046 72.95,32.14 C73.0357849,32.0548333 73.1742151,32.0548333 73.26,32.14 C73.3003132,32.1794987 73.3230306,32.2335616 73.3230306,32.29 C73.3230306,32.3464384 73.3003132,32.4005013 73.26,32.44 C71.8406354,33.9016158 69.8061404,34.5934185 67.79,34.3 C67.7645573,34.2912337 67.7432106,34.2734448 67.73,34.25 L67.73,34.25 Z" id="Path" fill="#263238"></path>
                <path d="M76.19,21.91 C76.1260691,21.8762006 76.0737994,21.8239309 76.04,21.76 C75.5314197,20.7799932 74.5750384,20.1112735 73.48,19.97 C73.3648308,19.9650449 73.2567607,19.9129709 73.1811193,19.8259833 C73.1054778,19.7389956 73.0689148,19.6247415 73.08,19.51 C73.1011946,19.2693197 73.3086702,19.0883303 73.55,19.1 C74.9332182,19.2585657 76.1492119,20.0891829 76.8,21.32 C76.8951822,21.4938206 76.8624182,21.7098218 76.7199717,21.8475979 C76.5775253,21.985374 76.3605522,22.0109217 76.19,21.91 L76.19,21.91 Z" id="Path" fill="#263238"></path>
                <path d="M61,20 L60.94,20 C60.7696665,19.8284303 60.7696665,19.5515697 60.94,19.38 C61.8461384,18.2929826 63.2179879,17.7055782 64.63,17.8 C64.7439453,17.8146426 64.8469193,17.8753209 64.9149384,17.9679024 C64.9829575,18.060484 65.010084,18.1768869 64.99,18.29 C64.9538799,18.5312515 64.7321142,18.6997935 64.49,18.67 C63.3744474,18.6093739 62.2969771,19.0849471 61.59,19.95 C61.4335404,20.1119299 61.1814783,20.1332911 61,20 L61,20 Z" id="Path" fill="#263238"></path>
                <path d="M104.41,51.65 C106.18,53.72 108.18,55.94 110.17,58 C112.16,60.06 114.17,62.12 116.33,64.05 C120.433739,67.9075956 124.939525,71.3137558 129.77,74.21 C130.920254,74.8731241 132.105294,75.4739896 133.32,76.01 C134.318081,76.4550872 135.375978,76.751568 136.46,76.89 C138.855399,77.1364753 141.275538,76.8390853 143.54,76.02 C146.096067,75.1326327 148.53152,73.930023 150.79,72.44 C151.95,71.67 153.12,70.87 154.25,70.01 C155.38,69.15 156.5,68.2 157.48,67.33 L161.03,70.33 C160.082569,71.6271928 159.053838,72.8630055 157.95,74.03 C156.865539,75.1993588 155.717111,76.3077246 154.51,77.35 C152.022516,79.5207896 149.25437,81.3471611 146.28,82.78 C143.027081,84.3531118 139.441506,85.1148322 135.83,85 C133.92059,84.9280663 132.034303,84.5568828 130.24,83.9 C128.676349,83.3214506 127.147171,82.6536872 125.66,81.9 C120.037843,78.9317847 114.810345,75.2698481 110.1,71 C107.76,68.93 105.48,66.82 103.34,64.58 C102.27,63.46 101.21,62.33 100.17,61.17 C99.13,60.01 98.17,58.87 97.09,57.57 L104.41,51.65 Z" id="Path" fill="#B65B52"></path>
                <path d="M159,72.08 L164.24,67.9 L157.58,63.35 C157.58,63.35 154.5,67.35 155.41,71.08 L159,72.08 Z" id="Path" fill="#B55B52"></path>
                <polygon id="Path" fill="#B55B52" points="168.44 63.15 163.53 59.2 157.61 63.35 164.27 67.9"></polygon>
                <path d="M101.2,46.7 C105.11,46.8 107.48,50.7 107.48,50.7 L100.85,66.44 C100.85,66.44 94.79,62.73 95.13,57.64 C95.47,52.39 96.74,46.6 101.2,46.7 Z" id="Path" fill="#263238"></path>
                <path d="M175.07,275.53 C174.972804,275.462207 174.882384,275.385182 174.8,275.3 C174.599005,275.123371 174.51075,274.850933 174.57,274.59 C174.84,273.44 177.97,272.24 178.33,272.11 C178.409886,272.080806 178.499444,272.100275 178.56,272.16 C178.602872,272.234256 178.602872,272.325744 178.56,272.4 C178.06,273.53 177.05,275.46 175.9,275.69 C175.613055,275.747124 175.315149,275.689696 175.07,275.53 L175.07,275.53 Z M177.98,272.72 C176.74,273.23 175.14,274.08 174.98,274.72 C174.951699,274.836017 174.994902,274.95777 175.09,275.03 C175.273183,275.248988 175.558125,275.355366 175.84,275.31 C176.48,275.14 177.26,274.2 178,272.72 L177.98,272.72 Z" id="Shape" fill="#00C237"></path>
                <path d="M174.46,272.5 C174.387223,272.454789 174.320084,272.401078 174.26,272.34 C174.014102,272.052016 174.014102,271.627984 174.26,271.34 C174.434081,271.045436 174.724737,270.838344 175.06,270.77 C176.37,270.48 178.48,272.03 178.57,272.1 C178.63346,272.145895 178.667737,272.222066 178.66,272.3 C178.651543,272.379571 178.596473,272.446442 178.52,272.47 C177.63,272.9 175.36,273.08 174.46,272.5 Z M177.86,272.21 C177.067664,271.595422 176.102116,271.245586 175.1,271.21 C174.886037,271.244796 174.700864,271.378121 174.6,271.57 C174.46,271.81 174.52,271.93 174.6,272.01 C175.02,272.48 176.84,272.52 177.93,272.22 L177.86,272.21 Z" id="Shape" fill="#00C237"></path>
                <path d="M90,294.43 C89.2512452,294.483478 88.5041543,294.305433 87.86,293.92 C87.5234177,293.674522 87.3201501,293.286466 87.31,292.87 C87.2816951,292.638178 87.3860615,292.410118 87.58,292.28 C88.58,291.6 92.29,293.28 93.03,293.64 C93.1145063,293.672914 93.1701564,293.75431 93.1701564,293.845 C93.1701564,293.93569 93.1145063,294.017086 93.03,294.05 C92.0365683,294.285062 91.0207122,294.412463 90,294.43 L90,294.43 Z M88.26,292.54 C88.1097315,292.527484 87.9593256,292.562462 87.83,292.64 C87.7628629,292.682808 87.7275136,292.761362 87.74,292.84 C87.7501165,293.130551 87.8941063,293.40007 88.13,293.57 C88.77,294.05 90.28,294.12 92.23,293.76 C90.9905685,293.153564 89.6649649,292.742054 88.3,292.54 L88.26,292.54 Z" id="Shape" fill="#00C237"></path>
                <path d="M93,294.05 L92.91,294.05 C91.68,293.54 89.19,291.55 89.33,290.52 C89.33,290.29 89.52,290.01 90.08,289.94 C92.24,289.68 93.17,293.63 93.21,293.8 C93.2284489,293.877614 93.2013273,293.958978 93.14,294.01 C93.1004963,294.041395 93.0501268,294.055786 93,294.05 L93,294.05 Z M90.28,290.36 L90.13,290.36 C89.9,290.36 89.78,290.45 89.77,290.56 C89.69,291.16 91.4,292.73 92.66,293.42 C92.35,292.48 91.57,290.36 90.26,290.36 L90.28,290.36 Z" id="Shape" fill="#00C237"></path>
                <path d="M72.22,24 L70.53,23.27 C70.53,23.27 71.24,24.74 72.22,24 Z" id="Path" fill="#263238"></path>
            </g>
            <g id="freepik--Smartphone--inject-114" transform="translate(223.000000, 56.000000)">
                <rect id="Rectangle" fill="#00C237" transform="translate(74.110000, 152.845000) rotate(180.000000) translate(-74.110000, -152.845000) " x="1.95" y="0.45" width="144.32" height="304.79" rx="14.62"></rect>
                <rect id="Rectangle" fill="#00C237" transform="translate(3.840000, 72.280000) rotate(180.000000) translate(-3.840000, -72.280000) " x="0.12" y="51.82" width="7.44" height="40.92" rx="2.74"></rect>
                <rect id="Rectangle" fill="#00C237" transform="translate(147.700000, 61.810000) rotate(180.000000) translate(-147.700000, -61.810000) " x="143.98" y="51.82" width="7.44" height="19.98" rx="2.59"></rect>
                <rect id="Rectangle" fill="#00C237" transform="translate(147.700000, 88.220000) rotate(180.000000) translate(-147.700000, -88.220000) " x="143.98" y="78.23" width="7.44" height="19.98" rx="2.59"></rect>
                <rect id="Rectangle" fill="#00C237" transform="translate(77.150000, 152.845000) rotate(180.000000) translate(-77.150000, -152.845000) " x="4.99" y="0.45" width="144.32" height="304.79" rx="14.62"></rect>
                <rect id="Rectangle" fill="#FFFFFF" opacity="0.6" transform="translate(77.150000, 152.845000) rotate(180.000000) translate(-77.150000, -152.845000) " x="4.99" y="0.45" width="144.32" height="304.79" rx="14.62"></rect>
                <circle id="Oval" fill="#00C237" opacity="0.3" cx="77.14" cy="286.65" r="8.23"></circle>
                <rect id="Rectangle" fill="#FFFFFF" transform="translate(77.150000, 148.045000) rotate(180.000000) translate(-77.150000, -148.045000) " x="8.47" y="23.73" width="137.36" height="248.63"></rect>
                <path d="M122.91,192.66 L31.38,192.66 L31.38,175.21 L122.91,175.21 L122.91,192.66 Z M32.38,191.66 L121.91,191.66 L121.91,176.21 L32.38,176.21 L32.38,191.66 Z" id="Shape" fill="#00C237"></path>
                <rect id="Rectangle" fill="#00C237" x="34.38" y="178.64" width="5.42" height="10.59"></rect>
                <rect id="Rectangle" fill="#00C237" x="41.47" y="178.64" width="5.42" height="10.59"></rect>
                <rect id="Rectangle" fill="#00C237" x="48.55" y="178.64" width="5.42" height="10.59"></rect>
                <rect id="Rectangle" fill="#00C237" opacity="0.9" x="55.64" y="178.64" width="5.42" height="10.59"></rect>
                <rect id="Rectangle" fill="#00C237" opacity="0.7" x="62.73" y="178.64" width="5.42" height="10.59"></rect>
                <rect id="Rectangle" fill="#00C237" opacity="0.5" x="69.81" y="178.64" width="5.42" height="10.59"></rect>
                <rect id="Rectangle" fill="#00C237" opacity="0.3" x="76.9" y="178.64" width="5.42" height="10.59"></rect>
                <rect id="Rectangle" fill="#00C237" x="75.55" y="212.45" width="3" height="18.27"></rect>
                <polygon id="Path" fill="#00C237" points="84.41 224.75 83.09 223.53 77.05 230.03 71.01 223.53 69.69 224.75 77.05 232.67"></polygon>
                <rect id="Rectangle" fill="#00C237" x="64.81" y="235.39" width="24.47" height="3"></rect>
                <path d="M96.4800185,13.4 C96.4840439,12.3020978 95.8252604,11.3102381 94.8116996,10.888219 C93.7981389,10.4661999 92.6300983,10.6974197 91.853759,11.473759 C91.0774197,12.2500983 90.8461999,13.4181389 91.268219,14.4316996 C91.6902381,15.4452604 92.6820978,16.1040439 93.78,16.1000185 C95.2711688,16.1000185 96.4800185,14.8911688 96.4800185,13.4 L96.4800185,13.4 Z" id="Path" fill="#00C237" opacity="0.3"></path>
                <rect id="Rectangle" fill="#00C237" opacity="0.3" x="59.26" y="10.69" width="27.88" height="5.41" rx="2.7"></rect>
            </g>
        </g>
    </g>
</svg>