<svg height="24" viewBox="0 0 24 24" width="24" xmlns="http://www.w3.org/2000/svg">
    <g id="account_circle" transform="translate(-678 -154)">
        <path
            d="M683.639,170.831h0A7.927,7.927,0,0,1,682,166a8,8,0,1,1,16,0,7.914,7.914,0,0,1-1.639,4.829,6.663,6.663,0,0,0-3.169-1.816A12.257,12.257,0,0,0,690,168.5c-1.45,0-4.913.57-6.36,2.33ZM690,160a3.5,3.5,0,1,0,3.5,3.5A3.5,3.5,0,0,0,690,160Z"
            fill="#d0d0d0" id="Icon" />
        <path
            d="M690,176a10,10,0,1,1,10-10A10.012,10.012,0,0,1,690,176Zm0-5.5c-1.982,0-4.517.915-4.93,1.78a7.925,7.925,0,0,0,9.859,0,3.415,3.415,0,0,0-1.917-1.228A9.644,9.644,0,0,0,690,170.5Zm0-2c1.45,0,4.912.57,6.359,2.33A7.914,7.914,0,0,0,698,166a8,8,0,1,0-16,0,7.919,7.919,0,0,0,1.64,4.83,6.649,6.649,0,0,1,3.169-1.817A12.261,12.261,0,0,1,690,168.5Zm0-1.5a3.5,3.5,0,1,1,3.5-3.5A3.5,3.5,0,0,1,690,167Zm0-5a1.5,1.5,0,1,0,1.5,1.5A1.5,1.5,0,0,0,690,162Z"
            data-name="Icon" fill="#9a9a9a" id="Icon-2" />
    </g>
</svg>
