<svg height="24" viewBox="0 0 24 24" width="24" xmlns="http://www.w3.org/2000/svg">
    <g id="announcement" transform="translate(-440 -154)">
        <path d="M444,171.17V158h16v12H445.17l-.58.58-.589.589Zm7-4.17v2h2v-2h-2Zm0-8v6h2v-6h-2Z"
            fill="#d0d0d0" id="Icon" />
        <path
            d="M442,176V158a2,2,0,0,1,2-2h16a2,2,0,0,1,2,2v12a2,2,0,0,1-2,2H446l-4,4Zm2-18h0V171.17l.58-.58.59-.59H460V158H444Zm9,11h-2v-2h2v2Zm0-4h-2v-6h2v6Z"
            data-name="Icon" fill="#9a9a9a" id="Icon-2" />
    </g>
</svg>
