<svg height="24" viewBox="0 0 24 24" width="24" xmlns="http://www.w3.org/2000/svg">
    <g id="assignment_late" transform="translate(-270 -154)">
        <path d="M289,173H275V159h14v14Zm-8-4v2h2v-2Zm0-8v6h2v-6Z" fill="#d0d0d0" id="Icon" />
        <path
            d="M289,175H275a2.639,2.639,0,0,1-.4-.03,2,2,0,0,1-1.01-.55,2.107,2.107,0,0,1-.43-.64A2.054,2.054,0,0,1,273,173V159a1.975,1.975,0,0,1,.16-.77,2.022,2.022,0,0,1,1.44-1.19A1.7,1.7,0,0,1,275,157h4.18a2.988,2.988,0,0,1,5.64,0H289a2,2,0,0,1,2,2v14A2,2,0,0,1,289,175Zm-14-16h0v14h14V159Zm7-2.25a.75.75,0,1,0,.751.75A.751.751,0,0,0,282,156.75ZM283,171h-2v-2h2v2Zm0-4h-2v-6h2v6Z"
            data-name="Icon" fill="#9a9a9a" id="Icon-2" />
    </g>
</svg>
