<svg height="24" viewBox="0 0 24 24" width="24" xmlns="http://www.w3.org/2000/svg">
    <g id="assignment_turned_in" transform="translate(-168 -154)">
        <path
            d="M187,173H173V159h14v14Zm-11.59-7.41h0L174,167l4,4,8-8-1.41-1.42L178,168.17l-2.59-2.579Z"
            fill="#d0d0d0" id="Icon" />
        <path
            d="M187,175H173a2.621,2.621,0,0,1-.4-.03,1.989,1.989,0,0,1-1.01-.55,2.107,2.107,0,0,1-.43-.64A2.054,2.054,0,0,1,171,173V159a1.975,1.975,0,0,1,.16-.77,2.022,2.022,0,0,1,1.44-1.19A1.711,1.711,0,0,1,173,157h4.18a2.988,2.988,0,0,1,5.639,0H187a2,2,0,0,1,2,2v14A2,2,0,0,1,187,175Zm-14-16h0v14h14V159H173Zm7-2.25a.75.75,0,1,0,.75.75A.751.751,0,0,0,180,156.75ZM178,171h0l-4-4,1.41-1.409L178,168.17l6.59-6.59L186,163l-8,8Z"
            data-name="Icon" fill="#9a9a9a" id="Icon-2" />
    </g>
</svg>
