<svg height="24" viewBox="0 0 24 24" width="24" xmlns="http://www.w3.org/2000/svg">
    <g id="bug_report" transform="translate(-780 -198)">
        <path
            d="M792,217a4.018,4.018,0,0,1-3.461-2l-.37-.65-.1-.651a4.226,4.226,0,0,1-.07-.7v-4a4.248,4.248,0,0,1,.07-.7l.1-.65.37-.65a4.111,4.111,0,0,1,1.211-1.31l.57-.4.74-.18A4.28,4.28,0,0,1,792,205a4.533,4.533,0,0,1,.96.11l.68.16.61.419a4.014,4.014,0,0,1,1.21,1.31l.37.65.1.65a4.293,4.293,0,0,1,.069.7v4a4.483,4.483,0,0,1-.069.71l-.1.651-.37.64A4.032,4.032,0,0,1,792,217Zm-2-5h0v2h4v-2Zm0-4v2h4v-2h-4Z"
            fill="#d0d0d0" id="Icon" />
        <path
            d="M792,219a6.029,6.029,0,0,1-5.19-3H784v-2h2.09a6.718,6.718,0,0,1-.09-1v-1h-2v-2h2v-1a6.691,6.691,0,0,1,.09-1H784v-2h2.81a6.1,6.1,0,0,1,1.81-1.96L787,202.41l1.41-1.41,2.18,2.17A5.959,5.959,0,0,1,792,203a6.043,6.043,0,0,1,1.42.17l2.17-2.17L797,202.41l-1.63,1.63A5.942,5.942,0,0,1,797.19,206H800v2h-2.09a6.686,6.686,0,0,1,.09,1v1h2v2h-2v1a6.72,6.72,0,0,1-.09,1H800v2h-2.81A6.029,6.029,0,0,1,792,219Zm0-14a3.768,3.768,0,0,0-.94.12l-.74.18-.57.39a4.11,4.11,0,0,0-1.211,1.31l-.37.65-.1.65a4.248,4.248,0,0,0-.07.7v4a4.441,4.441,0,0,0,.07.71l.1.651.37.64a3.993,3.993,0,0,0,6.92,0l.37-.65.1-.651A4.273,4.273,0,0,0,796,213v-4a4.058,4.058,0,0,0-.069-.689l-.1-.651-.38-.65a3.892,3.892,0,0,0-1.21-1.31l-.61-.419-.68-.16A3.858,3.858,0,0,0,792,205Zm2,9h-4v-2h4v2Zm0-4h-4v-2h4v2Z"
            data-name="Icon" fill="#9a9a9a" id="Icon-2" />
    </g>
</svg>
