<svg height="24" viewBox="0 0 24 24" width="24" xmlns="http://www.w3.org/2000/svg">
    <g id="build" transform="translate(-882 -374)">
        <path
            d="M893.03,384.24l9.45,9.45-.88.88-9.46-9.46a4.513,4.513,0,0,1-5.83-.43,4.509,4.509,0,0,1-1.31-3.44l3.09,3.09,4.24-4.24L889.24,377a4.5,4.5,0,0,1,4.68,5.28A4.356,4.356,0,0,1,893.03,384.24Z"
            fill="#d0d0d0" id="Icon" />
        <path
            d="M901.6,396.972a.989.989,0,0,1-.7-.293l-9.11-9.11a6.537,6.537,0,0,1-2.3.417,6.486,6.486,0,0,1-5.238-10.317l3.83,3.83,1.42-1.42-3.829-3.83a6.5,6.5,0,0,1,9.869,7.65l9.07,9.07a.983.983,0,0,1,.3.716.957.957,0,0,1-.3.694l-2.3,2.3A.991.991,0,0,1,901.6,396.972ZM892.15,385.11h0l9.459,9.459.88-.9-9.45-9.45a4.345,4.345,0,0,0,.879-1.95,4.485,4.485,0,0,0-4.424-5.277c-.085,0-.171,0-.256.007l3.091,3.09-4.24,4.24L885,381.24a4.481,4.481,0,0,0,1.32,3.44,4.431,4.431,0,0,0,3.159,1.3,4.632,4.632,0,0,0,.671-.049,4.361,4.361,0,0,0,2-.819Z"
            data-name="Icon" fill="#1d1d1d" id="Icon-2" />
    </g>
</svg>
