<svg height="24" viewBox="0 0 24 24" width="24" xmlns="http://www.w3.org/2000/svg">
    <g id="call" transform="translate(-780 -1216)">
        <path
            d="M799.01,1234.96h0a14.439,14.439,0,0,1-3.8-.75l1.19-1.19a14.3,14.3,0,0,0,2.6.45h.01v1.489Zm-13.22-10.16h0a15.461,15.461,0,0,1-.749-3.8h1.5a12.6,12.6,0,0,0,.45,2.6l-1.2,1.2Z"
            fill="#d0d0d0" id="Icon" />
        <path
            d="M800,1237a17,17,0,0,1-17-17,1,1,0,0,1,1-1h3.5a1,1,0,0,1,1,1,11.361,11.361,0,0,0,.57,3.57,1,1,0,0,1-.249,1.02l-2.2,2.2a15.237,15.237,0,0,0,6.59,6.59l2.2-2.2a1.027,1.027,0,0,1,.71-.291.808.808,0,0,1,.31.05,11.367,11.367,0,0,0,3.57.57,1,1,0,0,1,1,1V1236A1,1,0,0,1,800,1237Zm-3.6-3.98-1.2,1.19a15.456,15.456,0,0,0,3.8.751v-1.49a12.839,12.839,0,0,1-2.6-.45ZM785.03,1221a14.844,14.844,0,0,0,.76,3.791l1.2-1.2a13.08,13.08,0,0,1-.46-2.59Z"
            data-name="Icon" fill="#f9f9f9" id="Icon-2" />
    </g>
</svg>
