<svg height="24" viewBox="0 0 24 24" width="24" xmlns="http://www.w3.org/2000/svg">
    <g id="camera_alt" transform="translate(-134 -2680)">
        <path
            d="M154,2698H138v-12h4.05l1.831-2h4.24l1.83,2H154v12Zm-8-11a5,5,0,1,0,5,5A5.006,5.006,0,0,0,146,2687Z"
            fill="#d0d0d0" id="Icon" />
        <path
            d="M154,2700H138a2,2,0,0,1-2-2v-12a2,2,0,0,1,2-2h3.171l1.83-2h6l1.831,2H154a2,2,0,0,1,2,2v12A2,2,0,0,1,154,2700Zm-16-14v12h16v-12h-4.05l-1.83-2h-4.24l-1.831,2H138Zm8,11a5,5,0,1,1,5-5A5.006,5.006,0,0,1,146,2697Zm0-8a3,3,0,1,0,3,3A3,3,0,0,0,146,2689Z"
            data-name="Icon" fill="#f9f9f9" id="Icon-2" />
    </g>
</svg>
