<svg height="24" viewBox="0 0 24 24" width="24" xmlns="http://www.w3.org/2000/svg">
    <g id="chat" transform="translate(-440 -1216)">
        <path
            d="M444,1233.169V1220h16v12H445.17L444,1233.167Zm2-5.17v2h8v-2Zm0-3v2h12v-2Zm0-3v2h12v-2Z"
            fill="#d0d0d0" id="Icon" />
        <path
            d="M442,1238v0l.01-18a2,2,0,0,1,1.99-2h16a2,2,0,0,1,2,2v12a2,2,0,0,1-2,2H446l-4,4Zm2-18v13.17l1.17-1.169H460v-12Zm10,10h-8v-2h8v2Zm4-3H446v-2h12v2Zm0-3H446v-2h12v2Z"
            data-name="Icon" fill="#9a9a9a" id="Icon-2" />
    </g>
</svg>
