<svg height="24" viewBox="0 0 24 24" width="24" xmlns="http://www.w3.org/2000/svg">
    <g id="drafts" transform="translate(-508 -1482)">
        <path d="M520,1497.36l-8-5.02V1500h16l-.01-7.63Z" fill="#d0d0d0" id="Icon" />
        <path
            d="M528,1502H512a2,2,0,0,1-2-2v-10a1.982,1.982,0,0,1,.949-1.7L520,1483l9.049,5.3a1.976,1.976,0,0,1,.941,1.7l.01,10A2,2,0,0,1,528,1502Zm-16-9.661h0V1500h16l-.011-7.629L520,1497.36l-8-5.02Zm8-7.02-8,4.68,8,5,7.989-4.99V1490L520,1485.32Z"
            data-name="Icon" fill="#f9f9f9" id="Icon-2" />
    </g>
</svg>
