<svg height="24" viewBox="0 0 24 24" width="24" xmlns="http://www.w3.org/2000/svg">
    <g id="error" transform="translate(-134 -728)">
        <path d="M146,748a8,8,0,1,1,8-8A8.009,8.009,0,0,1,146,748Zm-1-5v2h2v-2Zm0-8v6h2v-6Z"
            fill="#d0d0d0" id="Icon" />
        <path
            d="M145.99,750a10,10,0,1,1,10-10A10.011,10.011,0,0,1,145.99,750Zm.01-18a8,8,0,1,0,8,8A8.009,8.009,0,0,0,146,732Zm1,13h-2v-2h2v2Zm0-4h-2v-6h2v6Z"
            data-name="Icon" fill="#9a9a9a" id="Icon-2" />
    </g>
</svg>
