<svg height="24" viewBox="0 0 24 24" width="24" xmlns="http://www.w3.org/2000/svg">
    <g id="highlight_off" transform="translate(-746 -286)">
        <path
            d="M758,306a8,8,0,1,1,8-8A8.009,8.009,0,0,1,758,306Zm0-6.59h0L760.59,302l1.41-1.41L759.41,298l2.59-2.59L760.59,294,758,296.59,755.41,294,754,295.41,756.59,298,754,300.59,755.41,302,758,299.411Z"
            fill="#d0d0d0" id="Icon" />
        <path
            d="M758,308a10,10,0,1,1,10-10A10.011,10.011,0,0,1,758,308Zm0-18a8,8,0,1,0,8,8A8.009,8.009,0,0,0,758,290Zm-2.591,12h0L754,300.59,756.59,298,754,295.41,755.41,294l2.59,2.59,2.59-2.59,1.41,1.41L759.41,298l2.59,2.59-1.41,1.41L758,299.41,755.41,302Z"
            data-name="Icon" fill="#f9f9f9" id="Icon-2" />
    </g>
</svg>
