<svg height="24" viewBox="0 0 24 24" width="24" xmlns="http://www.w3.org/2000/svg">
    <g id="live_help" transform="translate(-712 -1260)">
        <path
            d="M724,1280.17h0l-1.579-1.58-.59-.589H717v-14h14v14H726.17l-.581.58-1.59,1.59Zm-1-5.17v2h2v-2Zm1-8a2,2,0,0,1,2,2c0,.879-.57,1.316-1.23,1.821A3.583,3.583,0,0,0,723,1274h2a3.1,3.1,0,0,1,1.441-2.354A3.413,3.413,0,0,0,728,1269a4,4,0,1,0-8,0h2A2,2,0,0,1,724,1267Z"
            fill="#d0d0d0" id="Icon" />
        <path
            d="M724,1283h0l-3-3h-4a2,2,0,0,1-2-2v-14a2,2,0,0,1,2-2h14a2,2,0,0,1,2,2v14a2,2,0,0,1-2,2h-4l-3,3Zm-2.17-5,.581.58,1.589,1.59,1.58-1.58.59-.589H731v-14H717v14Zm3.171-1h-2v-2h2v2Zm0-3h-2a3.583,3.583,0,0,1,1.771-3.178c.66-.506,1.23-.943,1.23-1.822a2,2,0,0,0-4,0h-2a4,4,0,1,1,8,0,3.413,3.413,0,0,1-1.56,2.645A3.1,3.1,0,0,0,725,1274Z"
            data-name="Icon" fill="#9a9a9a" id="Icon-2" />
    </g>
</svg>
