<svg height="24" viewBox="0 0 24 24" width="24" xmlns="http://www.w3.org/2000/svg">
    <g id="loyalty" transform="translate(-916 -506)">
        <path
            d="M929,526.01h0L920,517v-7h7l9,9-7,7.009Zm-2.05-9.509a2.052,2.052,0,0,0-2.049,2.05,2.076,2.076,0,0,0,.6,1.45l3.5,3.5,3.5-3.5a2.05,2.05,0,0,0-1.45-3.5,2.062,2.062,0,0,0-1.45.6l-.6.6-.6-.59A2.007,2.007,0,0,0,926.95,516.5ZM922.5,511a1.5,1.5,0,1,0,1.5,1.5A1.5,1.5,0,0,0,922.5,511Z"
            fill="#d0d0d0" id="Icon" />
        <path
            d="M929,528a1.979,1.979,0,0,1-1.41-.58l-9-9A2,2,0,0,1,918,517v-7a2,2,0,0,1,2-2h7a1.98,1.98,0,0,1,1.41.581l9,9A2.023,2.023,0,0,1,938,519a1.949,1.949,0,0,1-.589,1.409l-7,7A1.95,1.95,0,0,1,929,528Zm-9-18v7l9,9.01,7-7.02-9-9V510Zm9,13.5h0l-3.5-3.5a2.047,2.047,0,1,1,2.9-2.891l.6.59.6-.6a2.05,2.05,0,0,1,3.5,1.45,2.068,2.068,0,0,1-.6,1.45l-3.5,3.5Zm-6.5-9.5a1.5,1.5,0,1,1,1.5-1.5A1.5,1.5,0,0,1,922.5,514Z"
            data-name="Icon" fill="#9a9a9a" id="Icon-2" />
    </g>
</svg>
