<svg height="24" viewBox="0 0 24 24" width="24" xmlns="http://www.w3.org/2000/svg">
    <g id="notifications_active" transform="translate(-576 -4098)">
        <path d="M592,4109v6h-8v-6c0-2.48,1.51-4.5,4-4.5S592,4106.52,592,4109Z" fill="#d0d0d0"
            id="Icon" />
        <path
            d="M588,4120a2,2,0,0,1-2-2h4A2,2,0,0,1,588,4120Zm8-3H580v-1l2-2v-5a7.086,7.086,0,0,1,1.178-4.06,5.53,5.53,0,0,1,3.322-2.261V4102a1.5,1.5,0,1,1,3,0v.679a5.52,5.52,0,0,1,3.326,2.265A7.094,7.094,0,0,1,594,4109v5l2,2v1Zm-8-12.5a3.715,3.715,0,0,0-2.933,1.32A4.91,4.91,0,0,0,584,4109v6h8v-6a4.909,4.909,0,0,0-1.067-3.181A3.716,3.716,0,0,0,588,4104.5Zm9.971,4h-2a8.466,8.466,0,0,0-3.539-6.42l1.42-1.43a10.5,10.5,0,0,1,4.12,7.849Zm-17.941,0h-2a10.426,10.426,0,0,1,4.119-7.85l1.431,1.43a8.425,8.425,0,0,0-3.551,6.419Z"
            data-name="Icon" fill="#9a9a9a" id="Icon-2" />
    </g>
</svg>
