<svg height="24" viewBox="0 0 24 24" width="24" xmlns="http://www.w3.org/2000/svg">
    <g id="notifications_none" transform="translate(-542 -4098)">
        <path d="M558,4109v6h-8v-6c0-2.48,1.51-4.5,4-4.5S558,4106.52,558,4109Z" fill="#d0d0d0"
            id="Icon" />
        <path
            d="M554,4120a2,2,0,0,1-2-2h4A2,2,0,0,1,554,4120Zm8-3H546v-1l2-2v-5a7.086,7.086,0,0,1,1.177-4.06,5.528,5.528,0,0,1,3.322-2.261V4102a1.5,1.5,0,1,1,3,0v.679a5.521,5.521,0,0,1,3.327,2.265A7.092,7.092,0,0,1,560,4109v5l2,2v1Zm-8-12.5a3.716,3.716,0,0,0-2.934,1.32A4.91,4.91,0,0,0,550,4109v6h8v-6a4.91,4.91,0,0,0-1.066-3.181A3.715,3.715,0,0,0,554,4104.5Z"
            data-name="Icon" fill="#9a9a9a" id="Icon-2" />
    </g>
</svg>
