<svg height="24" viewBox="0 0 24 24" width="24" xmlns="http://www.w3.org/2000/svg">
    <g id="pan_tool" transform="translate(-542 -330)">
        <path
            d="M562,336.15V350a2.006,2.006,0,0,1-2,2h-6.56a2.022,2.022,0,0,1-1.44-.62l-5.86-6.1.51-.45,5.35,2.83V334.79a.5.5,0,0,1,.5-.5.5.5,0,0,1,.5.5V342h2v-9.49a.5.5,0,1,1,1,0V342h2v-8.58a.5.5,0,1,1,1,0V342h2v-5.85a.5.5,0,0,1,1,0Z"
            fill="#d0d0d0" id="Icon" />
        <path
            d="M560,354h-6.55a4.032,4.032,0,0,1-2.89-1.229l-7.3-7.61,2.07-1.83a2,2,0,0,1,2.26-.27l2.41,1.28v-9.55a2.5,2.5,0,0,1,2.5-2.5,2.756,2.756,0,0,1,.509.049,2.494,2.494,0,0,1,4.55-1.239,2.437,2.437,0,0,1,.94-.18,2.5,2.5,0,0,1,2.5,2.5v.28a2.691,2.691,0,0,1,.5-.05,2.5,2.5,0,0,1,2.5,2.5V350A4,4,0,0,1,560,354Zm-13.34-9.18h0l-.51.45,5.86,6.11a1.964,1.964,0,0,0,1.44.62H560a2,2,0,0,0,2-2V336.15a.5.5,0,1,0-1,0V342h-2v-8.58a.5.5,0,1,0-1,0V342h-2v-9.49a.5.5,0,0,0-1,0V342h-2v-7.21a.5.5,0,0,0-.5-.5.5.5,0,0,0-.5.5v12.87l-5.34-2.84Z"
            data-name="Icon" fill="#f9f9f9" id="Icon-2" />
    </g>
</svg>
