<svg height="24" viewBox="0 0 24 24" width="24" xmlns="http://www.w3.org/2000/svg">
    <g id="save" transform="translate(-474 -1526)">
        <path
            d="M493,1545H479v-14h11.17l2.831,2.83V1545Zm-7-7a3,3,0,1,0,3,3A3,3,0,0,0,486,1538Zm-6-6v4h9v-4Z"
            fill="#d0d0d0" id="Icon" />
        <path
            d="M493,1547H479a2,2,0,0,1-2-2v-14a2,2,0,0,1,2-2h12l4,4v12A2,2,0,0,1,493,1547Zm-14-16v14h14v-11.17L490.17,1531Zm7,13a3,3,0,1,1,3-3A3,3,0,0,1,486,1544Zm3-8h-9v-4h9v4Z"
            data-name="Icon" fill="#9a9a9a" id="Icon-2" />
    </g>
</svg>
