<svg height="24" viewBox="0 0 24 24" width="24" xmlns="http://www.w3.org/2000/svg">
    <g id="shopping_cart" transform="translate(-644 -418)">
        <path d="M659.55,429l2.76-5H650.16l2.37,5Z" fill="#d0d0d0" id="Icon" />
        <path
            d="M651,440a2,2,0,1,1,2-2A2,2,0,0,1,651,440Zm10-.01a1.99,1.99,0,1,1,2-1.99A2,2,0,0,1,661,439.99Zm2-4.99H651a1.977,1.977,0,0,1-1.715-.976,2,2,0,0,1-.035-1.994l1.35-2.44L647,422h-2v-2h3.27l.94,2h14.8a1,1,0,0,1,.869,1.48l-3.579,6.49A1.993,1.993,0,0,1,659.55,431H652.1l-1.1,2h12v2Zm-12.84-11h0l2.37,5h7.02l2.76-5H650.16Z"
            data-name="Icon" fill="#9a9a9a" id="Icon-2" />
    </g>
</svg>
