<svg height="24" viewBox="0 0 24 24" width="24" xmlns="http://www.w3.org/2000/svg">
    <g id="thumb_down" transform="translate(-916 -462)">
        <path d="M919,474v2h9l-1.34,5.34L931,477V467h-9Z" fill="#d0d0d0" id="Icon" />
        <path
            d="M925.83,485h0l-1.06-1.05a1.51,1.51,0,0,1-.44-1.06l.031-.32.949-4.57H919a2,2,0,0,1-2-2v-2a1.973,1.973,0,0,1,.14-.731l3.02-7.05A1.984,1.984,0,0,1,922,465h9a2,2,0,0,1,2,2v10a1.979,1.979,0,0,1-.581,1.41L925.831,485ZM922,467l-3,7v2h9l-1.34,5.34L931,477V467h-9Zm17,10h-4V465h4v12Z"
            data-name="Icon" fill="#9a9a9a" id="Icon-2" />
    </g>
</svg>
