<svg height="24" viewBox="0 0 24 24" width="24" xmlns="http://www.w3.org/2000/svg">
    <g id="thumb_up" transform="translate(-746 -462)">
        <path d="M767,474v-2h-9l1.34-5.34L755,471v10h9Z" fill="#d0d0d0" id="Icon" />
        <path
            d="M751,483h-4V471h4v12Zm13,0h-9a2,2,0,0,1-2-2V471a1.978,1.978,0,0,1,.58-1.409L760.17,463l1.06,1.05a1.51,1.51,0,0,1,.44,1.06l-.03.32-.95,4.57H767a2,2,0,0,1,2,2v2a1.972,1.972,0,0,1-.14.73l-3.02,7.05A1.984,1.984,0,0,1,764,483Zm-4.66-16.34h0L755,471v10h9l3-7v-2h-9l1.34-5.34Z"
            data-name="Icon" fill="#f9f9f9" id="Icon-2" />
    </g>
</svg>
